<?xml version="1.0" encoding="utf-8"?>
<!-- Generator: Adobe Illustrator 18.1.1, SVG Export Plug-In . SVG Version: 6.00 Build 0)  -->
<svg version="1.1" id="Layer_1" xmlns="http://www.w3.org/2000/svg" xmlns:xlink="http://www.w3.org/1999/xlink" x="0px" y="0px"
	 viewBox="148.3 104.7 595.3 623.6" enable-background="new 148.3 104.7 595.3 623.6" xml:space="preserve">
<g>
	<g>
		<path fill="#FFFFFF" d="M651.7,133.1H240.3c-50.8,0-92,41.2-92,92v411.3c0,50.8,41.2,92,92,92h411.3c50.8,0,92-41.2,92-92V225.1
			C743.6,174.5,702.5,133.1,651.7,133.1z M724.2,636.4c0,40.2-32.4,72.5-72.5,72.5H240.3c-40.2,0-72.5-32.4-72.5-72.5V225.1
			c0-40.2,32.4-72.5,72.5-72.5h411.3c40.2,0,72.5,32.4,72.5,72.5v411.3H724.2z M512,295.7h12.1v35.6h61.7V202.8
			c-18.4-7.8-43.6-11.6-67.8-11.6c-24.2,0-50,3.9-67.8,11.6v128.5H512V295.7L512,295.7z M512,228c2.2-0.4,3.9-0.4,6.1-0.4
			c2.2,0,3.9,0,6.1,0.4v31.5H512V228z M279.1,505.5v-92.4h26.8v-44.8H189.1v44.8h27.3v92.4H279.1z M358.7,360.8h41.6l17.1-30.8
			c8.9-1.8,17-4.3,23.9-7.4v-52h-61.7v24c-2.2,0.2-3.7,0.4-5.8,0.4c-1.9,0-3.7,0-5.8-0.4V231c2.4-0.4,3.7-0.4,5.8-0.4
			c1.9,0,3.7,0,5.8,0.4v24h61.9v-52.2c-18.2-7.8-43.3-11.6-67.5-11.6c-24.4,0-50,3.9-68,11.6v120c17.5,7.4,42.6,11.5,66.3,11.6
			L358.7,360.8z M387.4,505.7h61.9V377.3c-18.4-7.8-43.6-11.6-67.8-11.6c-24.2,0-50,3.9-67.8,11.6v128.5h61.5v-35.6h12.1
			L387.4,505.7L387.4,505.7z M375.3,433.6v-31.5c2.2-0.4,3.9-0.4,6.1-0.4s3.9,0,6.1,0.4v31.5H375.3z M458.3,368.3v137.2H559v-44.8
			h-38.3v-92.4H458.3L458.3,368.3z M565.8,377.3V497c17.9,7.5,43.8,11.6,68,11.6c24.4-0.2,49.8-4.1,67.5-11.6V377.3
			c-18.2-7.8-43.3-11.6-67.5-11.6C609.3,365.6,583.7,369.5,565.8,377.3z M639.3,468.7c-2.2,0.2-3.9,0.4-5.8,0.4
			c-1.9,0-3.7,0-5.8-0.4v-63.7c2.2-0.4,3.9-0.4,5.8-0.4c1.9,0,3.7,0,5.8,0.4V468.7z M233.8,539.3v119.8c17.9,7.5,43.8,11.6,68,11.6
			c24.4-0.2,49.8-4.1,67.5-11.9v-77.2H302v36.8h8.2v15.2c-2.2,0.2-4.9,0.4-7.2,0.4s-5.1,0-7.2-0.4v-69.2c2.4-0.4,3.9-0.4,5.8-0.4
			c1.9,0,3.7,0,5.8,0.4v12.9h61.9v-37.9c-18.2-7.8-43.3-11.6-67.5-11.6C277.4,527.7,251.7,531.6,233.8,539.3z M378,539.3v119.8
			c17.9,7.5,43.8,11.6,68,11.6c24.6-0.2,49.8-4.1,67.5-11.6V539.3c-18.2-7.8-43.3-11.6-67.5-11.6C421.6,527.7,395.9,531.6,378,539.3
			z M451.5,630.8c-2.2,0.2-3.7,0.4-5.8,0.4c-1.9,0-3.7,0-5.8-0.4v-63.7c2.2-0.4,3.7-0.4,5.8-0.4c1.9,0,3.7,0,5.8,0.4V630.8z
			 M584.7,564.5c2.4-0.4,3.7-0.4,5.8-0.4c1.9,0,3.7,0,5.8,0.4v11.7h61.7v-36.8c-18.2-7.8-43.3-11.6-67.5-11.6
			c-24.4,0-50,3.9-68,11.6v78.2h73.5V634c-2.2,0.2-3.7,0.4-5.8,0.4c-1.9,0-3.7,0-5.8-0.4v-11.6h-61.9v36.8
			c17.9,7.5,43.3,11.4,67.8,11.6c24.2,0,50-4.1,68-11.6V581h-73.5v-16.5H584.7z"/>
	</g>
</g>
</svg>
