<?xml version="1.0" encoding="utf-8"?>
<!-- Generator: Adobe Illustrator 18.1.1, SVG Export Plug-In . SVG Version: 6.00 Build 0)  -->
<svg version="1.1" id="Layer_1" xmlns="http://www.w3.org/2000/svg" xmlns:xlink="http://www.w3.org/1999/xlink" x="0px" y="0px"
	 viewBox="166.5 141.1 774.5 774.5" enable-background="new 166.5 141.1 774.5 774.5" xml:space="preserve">
<g>
	<g>
		<g>
			<path fill="#B3B4A1" d="M286.1,917.7c-67.1,0-121.7-54.6-121.7-121.7V260.8c0-67.1,54.6-121.7,121.7-121.7h535.3
				c67,0,121.6,54.6,121.6,121.7V796c0,67.1-54.6,121.7-121.7,121.7H286.1z M286.1,168.5c-24.7,0-47.9,9.6-65.3,27
				c-17.4,17.4-27,40.6-27,65.4V796c0,24.7,9.6,47.9,27,65.3c17.4,17.4,40.6,27,65.4,27h535.3c24.7,0,47.9-9.6,65.3-27
				c17-16.9,26.5-39.4,27-63.4h-0.1V260.8c0-24.7-9.6-47.9-27-65.3c-17.4-17.4-40.6-27-65.4-27H286.1z M741.5,842.7
				c-34-0.3-66.4-5.8-88.9-15.2l-1.2-0.5v-51.2H736v15.4c1.9,0.3,3.7,0.3,5.6,0.3c2.1,0,3.7-0.2,5.6-0.4v-17.6h-95.6v-105l1.2-0.5
				c22.6-9.7,55.1-15.2,89.3-15.2c33.7,0,66,5.5,88.6,15.2l1.2,0.5v51.1h-84.3v-15.5c-1.9-0.3-3.7-0.3-5.6-0.3c-2.2,0-3.6,0-5.5,0.2
				V722H832v105l-1.2,0.5C807.9,837,774.5,842.7,741.5,842.7L741.5,842.7z M553.8,842.6c-33,0-66.3-5.7-89.2-15.2l-1.2-0.5V668.4
				l1.2-0.5c22.6-9.7,55.1-15.2,89.3-15.2c33.7,0,66,5.5,88.6,15.2l1.2,0.5v158.5l-1.2,0.5C620.2,836.7,587.9,842.3,553.8,842.6
				L553.8,842.6L553.8,842.6z M547.8,787c1.9,0.3,3.7,0.3,5.6,0.3c2.1,0,3.7-0.2,5.6-0.4v-79.3c-1.9-0.3-3.7-0.3-5.6-0.3
				c-2.2,0-3.7,0-5.6,0.3V787z M366.2,842.6c-33,0-66.3-5.7-89.2-15.2l-1.2-0.5V668.4l1.2-0.5c22.6-9.7,55.2-15.2,89.4-15.2
				c33.7,0,66,5.5,88.6,15.2l1.2,0.5v52.7h-84.6v-17c-1.9-0.3-3.7-0.3-5.6-0.3c-2,0-3.6,0-5.6,0.3v86.6c2.3,0.3,5,0.3,7.4,0.3
				c2,0,4.5-0.1,7.4-0.4v-16h-10.7v-51.8h91.5v103.7l-1.2,0.5C432.9,836.6,400.7,842.3,366.2,842.6L366.2,842.6L366.2,842.6z
				 M798.1,631.7c-33,0-66.3-5.7-89.2-15.2l-1.2-0.5V457.5l1.2-0.5c22.3-9.7,54.4-15.2,88-15.2l1.3,0c33.7,0,66,5.5,88.5,15.2
				l1.2,0.5V616l-1.2,0.5C864.5,625.9,832.3,631.4,798.1,631.7L798.1,631.7L798.1,631.7z M792.1,576.1c1.9,0.3,3.7,0.3,5.6,0.3
				c1.9,0,3.6-0.2,5.6-0.4v-79.3c-1.9-0.3-3.7-0.3-5.6-0.3c-1.9,0-3.7,0-5.6,0.3V576.1z M379.8,628.1V457.5l1.2-0.5
				c22-9.5,55.3-15.2,89-15.2c33.7,0,66.1,5.5,89,15.2l1.2,0.5v170.4h-84.6v-46.1h-11.8v46.3H379.8z M475.6,530.1v-37.2
				c-1.9-0.3-3.7-0.3-5.9-0.3s-3.9,0-5.9,0.3v37.2H475.6z M567.8,627.7V445.2H653v120.3h49.8v62.2H567.8z M253.1,627.7V507.4h-35.6
				v-62.2h156v62.2h-34.9v120.3H253.1z M436.9,439.5l17.7-34.5c-31.1-0.5-62.1-6.1-83.7-15.2l-1.2-0.5V230.5l1.2-0.5
				c22.6-9.7,55.1-15.2,89.3-15.2c33.7,0,66,5.5,88.6,15.2l1.2,0.5v71.3h-84.6v-31.5c-1.9-0.3-3.7-0.3-5.6-0.3c-2.2,0-3.6,0-5.6,0.3
				v79.4c1.9,0.3,3.7,0.3,5.6,0.3c2.1,0,3.7-0.2,5.6-0.4v-31.4h84.3v71l-1.2,0.5c-8.9,3.9-19.2,7.1-30.6,9.5l-22.4,40.3H436.9z
				 M557.4,401.1V230.5l1.2-0.5c22-9.5,55.3-15.2,89-15.2c33.7,0,66.1,5.5,89,15.2l1.2,0.5v170.4h-84.3v-46.3h-11.8v46.4H557.4z
				 M653.5,303.5v-37.2c-1.9-0.3-3.7-0.3-5.9-0.3s-3.9,0-5.9,0.3v37.2H653.5z"/>
			<path fill="#FFFFFF" d="M821.4,141.1c66.1,0,119.5,53.9,119.5,119.7V796c0,66.1-53.6,119.7-119.7,119.7H286.1
				c-66.1,0-119.7-53.6-119.7-119.7V260.8c0-66.1,53.6-119.7,119.7-119.7H821.4 M286.1,890.4h535.3c52.2,0,94.4-42.1,94.4-94.4h-0.1
				V260.8c0-52.2-42.1-94.4-94.4-94.4H286.1c-52.2,0-94.4,42.1-94.4,94.4V796C191.8,848.2,233.8,890.4,286.1,890.4 M647.6,216.8
				c31.5,0,64.3,4.9,88.2,15v167.1h-80.3v-46.3h-15.8v46.4h-80.3V231.9C582.5,221.9,616.1,216.8,647.6,216.8 M639.7,305.6h15.8
				v-40.9c-2.8-0.6-5.1-0.6-7.9-0.6c-2.8,0-5.1,0-7.9,0.6V305.6 M460.1,216.8c31.4,0,64.1,4.9,87.8,15v67.9h-80.6v-31.2
				c-2.8-0.6-5.1-0.6-7.6-0.6c-2.8,0-4.5,0-7.6,0.6v82.8c2.8,0.6,5.1,0.6,7.6,0.6c2.8,0,4.8-0.3,7.6-0.6v-31.2h80.3v67.7
				c-9,3.9-19.5,7.2-31.1,9.6l-22.2,40.1h-54.1l17.7-34.5c-30.8-0.1-63.4-5.5-86.2-15V231.9C395,221.9,428.3,216.8,460.1,216.8
				 M796.8,443.8c0.4,0,0.9,0,1.3,0c31.4,0,64.1,4.9,87.8,15v155.8c-22.9,9.7-56,14.8-87.8,15c-31.5,0-65.1-5.3-88.5-15V458.9
				C732.7,448.9,765.4,443.8,796.8,443.8 M797.7,578.4c2.5,0,4.8-0.3,7.6-0.6V495c-2.8-0.6-5.1-0.6-7.6-0.6c-2.5,0-4.8,0-7.6,0.6
				v82.8C792.9,578.4,795.1,578.4,797.7,578.4 M470,443.8c31.5,0,64.3,4.9,88.2,15v167.1h-80.6v-46.1h-15.8v46.3h-80V458.9
				C404.8,448.9,438.5,443.8,470,443.8 M461.8,532.1h15.8v-40.9c-2.8-0.6-5.1-0.6-7.9-0.6c-2.8,0-5.1,0-7.9,0.6V532.1 M569.8,447.2
				l81.2,0v120.3h49.8v58.2H569.8V447.2 M371.5,447.2v58.2h-34.9v120.3h-81.6V505.4h-35.6v-58.2H371.5 M553.8,654.6
				c31.4,0,64.1,4.9,87.8,15v155.8c-22.9,9.7-55.7,14.8-87.8,15c-31.5,0-65.1-5.3-88.5-15V669.7C488.7,659.7,522,654.6,553.8,654.6
				 M553.4,789.2c2.8,0,4.8-0.3,7.6-0.6v-82.8c-2.8-0.6-5.1-0.6-7.6-0.6c-2.8,0-4.8,0-7.6,0.6v82.8
				C548.6,789.2,550.8,789.2,553.4,789.2 M366.3,654.6c31.4,0,64.1,4.9,87.8,15v49.4h-80.6v-16.7c-2.8-0.6-5.1-0.6-7.6-0.6
				s-4.5,0-7.6,0.6v90c2.8,0.6,6.3,0.6,9.4,0.6c3.1,0,6.6-0.3,9.4-0.6v-19.8h-10.7v-47.8h87.5v100.4c-22.9,10.1-56,15.2-87.8,15.5
				c-31.5,0-65.1-5.3-88.5-15V669.7C301.1,659.7,334.4,654.6,366.3,654.6 M742,654.8c31.4,0,64.1,4.9,87.8,15v47.8h-80.3v-15.2
				c-2.8-0.6-5.1-0.6-7.6-0.6c-2.8,0-4.5,0-7.6,0.6h0.1V724H830v101.7c-23.3,9.7-57,15-88.5,15c-31.8-0.3-64.8-5.3-88.2-15v-47.8
				H734v15c2.8,0.6,5.1,0.6,7.6,0.6c2.8,0,4.8-0.3,7.6-0.6v-21.4h-95.6V669.8C676.9,659.8,710.2,654.8,742,654.8 M821.4,137.1H286.1
				c-33,0-64.1,12.9-87.5,36.2c-23.4,23.4-36.2,54.4-36.2,87.5V796c0,33,12.9,64.1,36.2,87.5c23.4,23.4,54.4,36.2,87.5,36.2h535.2
				c33,0,64.1-12.9,87.5-36.2C932.1,860.1,945,829,945,796V260.8C945,192.6,889.6,137.1,821.4,137.1L821.4,137.1z M286.1,886.4
				c-24.2,0-46.9-9.4-64-26.4c-17-17-26.4-39.7-26.4-63.9V260.8c0-24.2,9.4-46.9,26.4-64c17-17,39.7-26.4,63.9-26.4h535.2
				c24.2,0,46.9,9.4,64,26.4c17,17,26.4,39.7,26.4,63.9V796v4h0.1c-1,22.7-10.2,43.9-26.4,60c-17,17-39.7,26.4-63.9,26.4H286.1
				L286.1,886.4z M647.6,212.8c-34,0-67.5,5.7-89.8,15.4l-2.4,1v2.6v167.2v4h4h80.3h4v-4v-42.4h7.8v42.3v4h4h80.3h4v-4V231.9v-2.6
				l-2.4-1C714.3,218.4,681.6,212.8,647.6,212.8L647.6,212.8z M643.7,268.1c1.2-0.1,2.4-0.1,3.9-0.1s2.7,0,3.9,0.1v33.4h-7.8V268.1
				L643.7,268.1z M460.1,212.8c-34.4,0-67.2,5.6-90,15.4l-2.4,1v2.6V388v2.7l2.5,1c21.1,8.8,51,14.4,81.3,15.3l-14.8,28.7l-3,5.8
				h4.6c-22.3,2.4-42.8,7.1-58,13.7l-2.4,1v2.6v167.2v4h4h80h4v-4v-42.3h7.8v42.1v4h4h80.6h4v-4V458.9v-2.6l-2.4-1
				c-16.9-7.1-38.9-12.1-62.8-14.2l0.9-1.6l21.3-38.5c11.2-2.4,21.3-5.6,30.1-9.4l2.4-1v-2.6v-67.7v-4h-4h-80.3h-4v4v27.6
				c-1.2,0.1-2.3,0.2-3.6,0.2c-1.3,0-2.4,0-3.6-0.1v-75.8c1.1-0.1,2.2-0.1,3.6-0.1c1.3,0,2.4,0,3.6,0.1v27.7v4h4h80.6h4v-4v-67.9
				v-2.6l-2.4-1C526.7,218.4,494.1,212.8,460.1,212.8L460.1,212.8z M465.8,494.7c1.2-0.1,2.4-0.1,3.9-0.1s2.7,0,3.9,0.1v33.4h-7.8
				V494.7L465.8,494.7z M796.8,439.8c-33.9,0-66.2,5.6-88.8,15.4l-2.4,1v2.6v155.8v2.7l2.5,1c23.1,9.6,56.8,15.4,90,15.4
				c34.4-0.3,67-5.9,89.3-15.4l2.4-1v-2.7V458.9v-2.6l-2.4-1c-22.8-9.8-55.4-15.4-89.3-15.4C797.7,439.8,797.2,439.8,796.8,439.8
				L796.8,439.8z M794.1,498.5c1.2-0.1,2.3-0.1,3.6-0.1s2.4,0,3.6,0.1v75.7c-1.2,0.1-2.4,0.2-3.6,0.2c-1.3,0-2.4,0-3.6-0.1V498.5
				L794.1,498.5z M569.8,443.2h-4v4v178.5v4h4h130.9h4v-4v-58.2v-4h-4H655V447.2v-4h-4L569.8,443.2L569.8,443.2z M375.5,443.2h-4
				h-152h-4v4v58.2v4h4h31.6v116.3v4h4h81.6h4v-4V509.4h30.9h4v-4v-58.2V443.2L375.5,443.2z M553.8,650.6c-34.4,0-67.2,5.6-90,15.4
				l-2.4,1v2.6v155.8v2.7l2.5,1c23.1,9.6,56.8,15.4,90,15.4c34.4-0.3,67-5.9,89.3-15.4l2.4-1v-2.7V669.7V667l-2.4-1
				C620.3,656.2,587.8,650.6,553.8,650.6L553.8,650.6z M549.8,709.3c1.1-0.1,2.2-0.1,3.6-0.1c1.3,0,2.4,0,3.6,0.1v75.7
				c-1.2,0.1-2.3,0.2-3.6,0.2c-1.3,0-2.4,0-3.6-0.1V709.3L549.8,709.3z M366.3,650.6c-34.5,0-67.3,5.6-90.2,15.4l-2.4,1v2.6v155.8
				v2.7l2.5,1c23.1,9.6,56.8,15.4,90,15.4c34.8-0.3,67.3-6.1,89.4-15.8l2.4-1.1v-2.6V724.7v-1.6h0.1v-4v-49.4V667l-2.4-1
				C432.9,656.2,400.3,650.6,366.3,650.6L366.3,650.6z M362.3,705.8c1.2-0.1,2.3-0.1,3.6-0.1c1.3,0,2.4,0,3.6,0.1v13.2v1.6h-3h-4v4
				v47.8v4h4h6.7v12.2c-2.1,0.2-3.9,0.2-5.4,0.2c-1.8,0-3.7,0-5.4-0.1V705.8L362.3,705.8z M742,650.8c-34.4,0-67.2,5.6-90,15.4
				l-2.4,1v2.6v101.7v2.3h-0.1v4v47.8v2.7l2.5,1c22.7,9.5,55.4,15.1,89.7,15.4c33.3,0,66.9-5.7,90-15.4l2.5-1v-2.7V724v-4h-0.3v-2.3
				v-47.8v-2.6l-2.4-1C808.5,656.4,776,650.8,742,650.8L742,650.8z M738.4,706c1-0.1,2.1-0.1,3.5-0.1c1.3,0,2.4,0,3.6,0.1v11.7v2.3
				h-7V706L738.4,706z M738,775.5h7.2v13.8c-1.2,0.1-2.3,0.2-3.6,0.2c-1.3,0-2.4,0-3.6-0.1v-11.5V775.5L738,775.5z"/>
		</g>
	</g>
</g>
</svg>
