<?xml version="1.0" encoding="utf-8"?>
<!-- Generator: Adobe Illustrator 18.1.1, SVG Export Plug-In . SVG Version: 6.00 Build 0)  -->
<svg version="1.1" id="Layer_1" xmlns="http://www.w3.org/2000/svg" xmlns:xlink="http://www.w3.org/1999/xlink" x="0px" y="0px"
	 viewBox="157 21.5 782.5 782.5" enable-background="new 157 21.5 782.5 782.5" xml:space="preserve">
<g>
	<g>
		<g>
			<path fill="#B3B4A1" d="M280.7,802C213.6,802,159,747.4,159,680.3V145.1C159,78,213.6,23.5,280.7,23.5H816
				c67,0,121.5,54.6,121.5,121.7v535.2c0,67.1-54.6,121.7-121.7,121.7H280.7z M280.7,52.8c-24.7,0-47.9,9.6-65.3,27
				c-17.4,17.4-27,40.6-27,65.4v535.2c0,24.7,9.6,47.9,27,65.3c17.4,17.4,40.6,27,65.4,27H816c24.7,0,47.9-9.6,65.3-27
				c17-16.9,26.5-39.4,27-63.4h-0.1V145.1c0-24.7-9.6-47.9-27-65.3c-17.4-17.4-40.6-27-65.4-27H280.7z M736.1,727
				c-34-0.3-66.4-5.8-88.9-15.2l-1.2-0.5v-51.2h84.6v15.4c1.9,0.3,3.7,0.3,5.6,0.3c2.1,0,3.7-0.2,5.6-0.4v-17.6h-95.6v-105l1.2-0.5
				c22.6-9.7,55.1-15.2,89.3-15.2c33.7,0,66,5.5,88.6,15.2l1.2,0.5V604H742v-15.5c-1.9-0.3-3.7-0.3-5.6-0.3c-2.2,0-3.6,0-5.5,0.2
				v17.8h95.6v105l-1.2,0.5C802.5,721.4,769.1,727,736.1,727L736.1,727z M548.4,726.9c-33,0-66.3-5.7-89.2-15.2l-1.2-0.5V552.7
				l1.2-0.5c22.6-9.7,55.1-15.2,89.3-15.2c33.7,0,66,5.5,88.6,15.2l1.2,0.5v158.5l-1.2,0.5C614.8,721.1,582.5,726.6,548.4,726.9
				L548.4,726.9L548.4,726.9z M542.4,671.3c1.9,0.3,3.7,0.3,5.6,0.3c2.1,0,3.7-0.2,5.6-0.4v-79.3c-1.9-0.3-3.7-0.3-5.6-0.3
				c-2.2,0-3.8,0-5.6,0.3V671.3z M360.7,726.9c-33,0-66.3-5.7-89.2-15.2l-1.2-0.5V552.7l1.2-0.5c22.6-9.7,55.2-15.2,89.4-15.2
				c33.7,0,66,5.5,88.6,15.2l1.2,0.5v52.7h-84.6v-17c-1.9-0.3-3.7-0.3-5.6-0.3c-2,0-3.6,0-5.6,0.3v86.6c2.3,0.3,5,0.3,7.4,0.3
				c2,0,4.5-0.1,7.4-0.4v-16H359V607h91.5v103.7l-1.2,0.5C427.5,720.9,395.2,726.6,360.7,726.9L360.7,726.9L360.7,726.9z
				 M792.7,516.1c-33,0-66.3-5.7-89.2-15.2l-1.2-0.5V341.9l1.2-0.5c22.3-9.7,54.4-15.2,88-15.2l1.3,0c33.7,0,66,5.5,88.5,15.2
				l1.2,0.5v158.5l-1.2,0.5C859.1,510.2,826.8,515.8,792.7,516.1L792.7,516.1L792.7,516.1z M786.7,460.5c1.9,0.3,3.7,0.3,5.6,0.3
				c1.9,0,3.6-0.2,5.6-0.4V381c-1.9-0.3-3.7-0.3-5.6-0.3s-3.7,0-5.6,0.3V460.5z M374.4,512.4V341.9l1.2-0.5
				c22-9.5,55.3-15.2,89-15.2c33.7,0,66.1,5.5,89,15.2l1.2,0.5v170.4h-84.6v-46.1h-11.8v46.3H374.4z M470.1,414.5v-37.2
				c-1.9-0.3-3.7-0.3-5.9-0.3s-3.9,0-5.9,0.3v37.2H470.1z M562.4,512V329.5h85.2v120.3h49.8V512H562.4z M247.6,512V391.7h-35.6
				v-62.2h156v62.2h-34.9V512H247.6z M431.5,323.8l17.7-34.5c-31.1-0.5-62.1-6.1-83.7-15.2l-1.2-0.5V114.9l1.2-0.5
				c22.6-9.7,55.1-15.2,89.3-15.2c33.7,0,66,5.5,88.6,15.2l1.2,0.5v71.3h-84.6v-31.5c-1.9-0.3-3.7-0.3-5.6-0.3c-2.2,0-3.6,0-5.6,0.3
				V234c1.9,0.3,3.7,0.3,5.6,0.3c2.1,0,3.7-0.2,5.6-0.4v-31.4h84.3v71L543,274c-8.9,3.9-19.2,7.1-30.6,9.5l-22.3,40.3H431.5z
				 M552,285.4V114.9l1.2-0.5c22-9.5,55.3-15.2,89-15.2c33.7,0,66.1,5.5,89,15.2l1.2,0.5v170.4h-84.3V239h-11.8v46.4H552z
				 M648.1,187.9v-37.2c-1.9-0.3-3.7-0.3-5.9-0.3s-3.9,0-5.9,0.3v37.2H648.1z"/>
			<path fill="#FFFFFF" d="M816,25.5c66.1,0,119.5,53.9,119.5,119.7v535.2c0,66.1-53.6,119.7-119.7,119.7H280.7
				C214.6,800,161,746.4,161,680.3V145.1C161,79,214.6,25.5,280.7,25.5H816 M280.7,774.7H816c52.2,0,94.4-42.1,94.4-94.4h-0.1V145.1
				c0-52.2-42.1-94.4-94.4-94.4H280.7c-52.2,0-94.4,42.1-94.4,94.4v535.2C186.3,732.5,228.4,774.7,280.7,774.7 M642.2,101.1
				c31.5,0,64.3,4.9,88.2,15v167.1h-80.3V237h-15.8v46.4H554V116.2C577.1,106.2,610.7,101.1,642.2,101.1 M634.3,189.9h15.8v-40.9
				c-2.8-0.6-5.1-0.6-7.9-0.6c-2.8,0-5.1,0-7.9,0.6V189.9 M454.7,101.1c31.4,0,64.1,4.9,87.8,15v67.9h-80.6v-31.2
				c-2.8-0.6-5.1-0.6-7.6-0.6c-2.8,0-4.5,0-7.6,0.6v82.8c2.8,0.6,5.1,0.6,7.6,0.6c2.8,0,4.8-0.3,7.6-0.6v-31.2h80.3v67.7
				c-9,3.9-19.5,7.2-31.1,9.6l-22.2,40.1h-54.1l17.7-34.5c-30.8-0.1-63.4-5.5-86.2-15V116.2C389.6,106.2,422.9,101.1,454.7,101.1
				 M791.4,328.1c0.4,0,0.9,0,1.3,0c31.4,0,64.1,4.9,87.8,15V499c-22.9,9.7-56,14.8-87.8,15c-31.5,0-65.1-5.3-88.5-15V343.2
				C727.2,333.2,760,328.1,791.4,328.1 M792.3,462.7c2.5,0,4.8-0.3,7.6-0.6v-82.8c-2.8-0.6-5.1-0.6-7.6-0.6c-2.5,0-4.8,0-7.6,0.6
				v82.8C787.5,462.7,789.7,462.7,792.3,462.7 M464.5,328.1c31.5,0,64.3,4.9,88.2,15v167.1h-80.6v-46.1h-15.8v46.3h-80V343.2
				C399.4,333.2,433,328.1,464.5,328.1 M456.4,416.5h15.8v-40.9c-2.8-0.6-5.1-0.6-7.9-0.6c-2.8,0-5.1,0-7.9,0.6V416.5 M645.6,331.5
				v120.3h49.8V510H564.4V331.5H645.6 M366.1,331.5v58.2h-34.9V510h-81.6V389.7h-35.6v-58.2H366.1 M548.4,539
				c31.4,0,64.1,4.9,87.8,15v155.8c-22.9,9.7-55.7,14.8-87.8,15c-31.5,0-65.1-5.3-88.5-15V554C483.3,544,516.6,539,548.4,539
				 M547.9,673.6c2.8,0,4.8-0.3,7.6-0.6v-82.8c-2.8-0.6-5.1-0.6-7.6-0.6c-2.8,0-4.8,0-7.6,0.6V673
				C543.2,673.6,545.4,673.6,547.9,673.6 M360.9,539c31.4,0,64.1,4.9,87.8,15v49.4h-80.6v-16.7c-2.8-0.6-5.1-0.6-7.6-0.6
				c-2.5,0-4.5,0-7.6,0.6v90c2.8,0.6,6.3,0.6,9.4,0.6c3.1,0,6.6-0.3,9.4-0.6v-19.8H361V609h87.5v100.4c-22.9,10.1-56,15.2-87.8,15.5
				c-31.5,0-65.1-5.3-88.5-15V554C295.6,544,329,539,360.9,539 M736.6,539.1c31.4,0,64.1,4.9,87.8,15V602H744v-15.2
				c-2.8-0.6-5.1-0.6-7.6-0.6c-2.8,0-4.5,0-7.6,0.6h0.1v21.5h95.6V710c-23.3,9.7-57,15-88.5,15c-31.8-0.3-64.8-5.3-88.2-15v-47.8
				h80.6v15c2.8,0.6,5.1,0.6,7.6,0.6c2.8,0,4.8-0.3,7.6-0.6v-21.4h-95.6V554.1C671.4,544.2,704.8,539.1,736.6,539.1 M816,21.5H280.7
				c-33,0-64.1,12.9-87.5,36.2C169.9,81,157,112.1,157,145.1v535.2c0,33,12.9,64.1,36.2,87.5c23.4,23.4,54.4,36.2,87.5,36.2h535.2
				c33,0,64.1-12.9,87.5-36.2c23.4-23.4,36.2-54.4,36.2-87.5V145.1C939.6,76.9,884.1,21.5,816,21.5L816,21.5z M280.7,770.7
				c-24.2,0-46.9-9.4-64-26.4c-17-17-26.4-39.7-26.4-63.9V145.1c0-24.2,9.4-46.9,26.4-64c17-17,39.7-26.4,63.9-26.4h535.2
				c24.2,0,46.9,9.4,64,26.4c17,17,26.4,39.7,26.4,63.9v535.2v4h0.1c-1,22.7-10.2,43.9-26.4,60c-17,17-39.7,26.4-63.9,26.4H280.7
				L280.7,770.7z M642.2,97.1c-34,0-67.5,5.7-89.8,15.4l-2.4,1v2.6v167.2v4h4h80.3h4v-4V241h7.8v42.3v4h4h80.3h4v-4V116.2v-2.6
				l-2.4-1C708.9,102.7,676.2,97.1,642.2,97.1L642.2,97.1z M638.3,152.5c1.2-0.1,2.4-0.1,3.9-0.1s2.7,0,3.9,0.1v33.4h-7.8V152.5
				L638.3,152.5z M454.7,97.1c-34.4,0-67.2,5.6-90,15.4l-2.4,1v2.6v156.1v2.7l2.5,1c21.1,8.8,51,14.4,81.3,15.3L431.2,320l-3,5.8
				h4.6c-22.3,2.4-42.8,7.1-58,13.7l-2.4,1v2.6v167.2v4h4h80h4v-4v-42.3h7.8v42.1v4h4h80.6h4v-4V343.2v-2.6l-2.4-1
				c-16.9-7.1-38.9-12.1-62.8-14.2l0.9-1.6l21.3-38.5c11.2-2.4,21.3-5.6,30.1-9.4l2.4-1v-2.6v-67.7v-4h-4h-80.3h-4v4v27.6
				c-1.2,0.1-2.3,0.2-3.6,0.2c-1.3,0-2.4,0-3.6-0.1v-75.8c1.1-0.1,2.2-0.1,3.6-0.1c1.3,0,2.4,0,3.6,0.1v27.7v4h4h80.6h4v-4v-67.9
				v-2.6l-2.4-1C521.2,102.7,488.7,97.1,454.7,97.1L454.7,97.1z M460.4,379c1.2-0.1,2.4-0.1,3.9-0.1s2.7,0,3.9,0.1v33.4h-7.8V379
				L460.4,379z M791.4,324.1c-33.9,0-66.2,5.6-88.8,15.4l-2.4,1v2.6V499v2.7l2.5,1c23.1,9.6,56.8,15.4,90,15.4
				c34.4-0.3,67-5.9,89.3-15.4l2.4-1V499V343.2v-2.6l-2.4-1c-22.8-9.8-55.4-15.4-89.3-15.4C792.3,324.1,791.8,324.1,791.4,324.1
				L791.4,324.1z M788.7,382.8c1.2-0.1,2.3-0.1,3.6-0.1s2.4,0,3.6,0.1v75.7c-1.2,0.1-2.4,0.2-3.6,0.2c-1.3,0-2.4,0-3.6-0.1V382.8
				L788.7,382.8z M649.6,327.5h-4h-81.2h-4v4V510v4h4h130.9h4v-4v-58.2v-4h-4h-45.8V331.5V327.5L649.6,327.5z M370.1,327.5h-4h-152
				h-4v4v58.2v4h4h31.6V510v4h4h81.6h4v-4V393.7h30.9h4v-4v-58.2V327.5L370.1,327.5z M548.4,535c-34.4,0-67.2,5.6-90,15.4l-2.4,1
				v2.6v155.8v2.7l2.5,1c23.1,9.6,56.8,15.4,90,15.4c34.4-0.3,67-5.9,89.3-15.4l2.4-1v-2.7V554v-2.6l-2.4-1
				C614.9,540.6,582.4,535,548.4,535L548.4,535z M544.4,593.7c1.1-0.1,2.2-0.1,3.6-0.1c1.3,0,2.4,0,3.6,0.1v75.7
				c-1.2,0.1-2.3,0.2-3.6,0.2c-1.3,0-2.4,0-3.6-0.1V593.7L544.4,593.7z M360.9,535c-34.5,0-67.3,5.6-90.2,15.4l-2.4,1v2.6v155.8v2.7
				l2.5,1c23.1,9.6,56.8,15.4,90,15.4c34.8-0.3,67.3-6.1,89.4-15.8l2.4-1.1v-2.6V609v-1.6h0.1v-4V554v-2.6l-2.4-1
				C427.4,540.6,394.9,535,360.9,535L360.9,535z M356.9,590.2c1.2-0.1,2.3-0.1,3.6-0.1c1.3,0,2.4,0,3.6,0.1v13.2v1.6h-3h-4v4v47.8v4
				h4h6.7V673c-2.1,0.2-3.9,0.2-5.4,0.2c-1.8,0-3.7,0-5.4-0.1V590.2L356.9,590.2z M736.6,535.1c-34.4,0-67.2,5.6-90,15.4l-2.4,1v2.6
				v101.7v2.3h-0.1v4V710v2.7l2.5,1c22.7,9.5,55.4,15.1,89.7,15.4c33.3,0,66.9-5.7,90-15.4l2.5-1V710V608.3v-4h-0.3V602v-47.8v-2.6
				l-2.4-1C803.1,540.7,770.5,535.1,736.6,535.1L736.6,535.1z M733,590.3c1-0.1,2.1-0.1,3.5-0.1c1.3,0,2.4,0,3.6,0.1V602v2.3h-7
				V590.3L733,590.3z M732.5,659.8h7.2v13.8c-1.2,0.1-2.3,0.2-3.6,0.2c-1.3,0-2.4,0-3.6-0.1v-11.5V659.8L732.5,659.8z"/>
		</g>
	</g>
</g>
</svg>
