<?xml version="1.0" encoding="utf-8"?>
<!-- Generator: Adobe Illustrator 18.1.1, SVG Export Plug-In . SVG Version: 6.00 Build 0)  -->
<svg version="1.1" id="Layer_1" xmlns="http://www.w3.org/2000/svg" xmlns:xlink="http://www.w3.org/1999/xlink" x="0px" y="0px"
	 viewBox="0 6 808.4 808.4" enable-background="new 0 6 808.4 808.4" xml:space="preserve">
<g>
	<g>
		<g>
			<path fill="#B3B4A1" d="M127.8,812.3c-69.3,0-125.7-56.4-125.7-125.7V133.7C2.1,64.4,58.5,8,127.8,8h552.9
				c69.2,0,125.6,56.4,125.6,125.7v552.8c0,69.3-56.4,125.7-125.7,125.7H127.8z M127.8,38.4c-25.5,0-49.5,9.9-67.4,27.9
				c-18,18-27.9,41.9-27.9,67.6v552.7c0,25.5,9.9,49.5,27.9,67.4c18,18,41.9,27.9,67.6,27.9h552.9c25.5,0,49.5-9.9,67.4-27.9
				c17.6-17.5,27.4-40.7,27.9-65.5H776V133.7c0-25.5-9.9-49.5-27.9-67.4s-41.9-27.9-67.6-27.9L127.8,38.4L127.8,38.4z"/>
			<path fill="#FFFFFF" d="M680.7,10.1c68.3,0,123.4,55.7,123.4,123.6v552.8c0,68.3-55.4,123.6-123.6,123.6H127.8
				c-68.3,0-123.6-55.4-123.6-123.6V133.7c0-68.3,55.4-123.6,123.6-123.6L680.7,10.1 M127.8,784.1h552.9c53.9,0,97.5-43.5,97.5-97.5
				h-0.1V133.7c0-53.9-43.5-97.5-97.5-97.5H127.8c-53.9,0-97.5,43.5-97.5,97.5v552.8C30.4,740.5,73.8,784.1,127.8,784.1 M680.7,6
				H127.8C93.7,6,61.6,19.3,37.4,43.4C13.2,67.5,0,99.6,0,133.7v552.8c0,34.1,13.3,66.2,37.4,90.4c24.2,24.2,56.2,37.4,90.4,37.4
				h552.8c34.1,0,66.2-13.3,90.4-37.4c24.1-24.2,37.4-56.3,37.4-90.4V133.7C808.4,63.3,751.1,6,680.7,6L680.7,6z M127.8,779.9
				c-25,0-48.4-9.7-66.1-27.3c-17.6-17.6-27.3-41-27.3-66V133.7c0-25,9.7-48.4,27.3-66.1c17.6-17.6,41-27.3,66-27.3h552.8
				c25,0,48.4,9.7,66.1,27.3c17.6,17.6,27.3,41,27.3,66v552.9v4.1h0.1c-1,23.4-10.5,45.3-27.3,62c-17.6,17.6-41,27.3-66,27.3H127.8
				L127.8,779.9z"/>
		</g>
	</g>
</g>
<path fill="#FFFFFF" d="M598.2,734.8c-35.1-0.3-68.6-6-91.8-15.7l-1.2-0.5v-52.9h87.4v15.9c2,0.3,3.8,0.3,5.8,0.3
	c2.2,0,3.8-0.2,5.8-0.4v-18.2h-98.7V554.9l1.2-0.5c23.3-10,56.9-15.7,92.2-15.7c34.8,0,68.2,5.7,91.5,15.7l1.2,0.5v52.8h-87.1v-16
	c-2-0.3-3.8-0.3-5.8-0.3c-2.3,0-3.7,0-5.7,0.2v18.6h98.6v108.5l-1.2,0.5C666.8,728.9,632.3,734.8,598.2,734.8L598.2,734.8z"/>
<path fill="#FFFFFF" d="M404.3,734.7c-34.1,0-68.5-5.9-92.1-15.7l-1.2-0.5V554.8l1.2-0.5c23.3-10,56.9-15.7,92.2-15.7
	c34.8,0,68.2,5.7,91.5,15.7l1.2,0.5v163.7l-1.2,0.5C472.9,728.6,439.5,734.4,404.3,734.7L404.3,734.7L404.3,734.7z"/>
<path fill="#FFFFFF" d="M398.1,677.3c2,0.3,3.8,0.3,5.8,0.3c2.2,0,3.8-0.2,5.8-0.4v-81.9c-2-0.3-3.8-0.3-5.8-0.3
	c-2.3,0-3.8,0-5.8,0.3V677.3z"/>
<path fill="#FFFFFF" d="M210.5,734.7c-34.1,0-68.5-5.9-92.1-15.7l-1.2-0.5V554.8l1.2-0.5c23.3-10,57-15.7,92.3-15.7
	c34.8,0,68.2,5.7,91.5,15.7l1.2,0.5v54.4h-87.4v-17.6c-2-0.3-3.8-0.3-5.8-0.3c-2.1,0-3.7,0-5.8,0.3v89.5c2.4,0.3,5.2,0.3,7.6,0.3
	c2.1,0,4.6-0.1,7.6-0.4v-16.5h-11.1V611h94.5v107.1l-1.2,0.5C279.4,728.5,246.1,734.4,210.5,734.7L210.5,734.7L210.5,734.7z"/>
<path fill="#FFFFFF" d="M656.6,516.9c-34.1,0-68.5-5.9-92.1-15.7l-1.2-0.5V336.9l1.2-0.5c23-10,56.2-15.7,90.9-15.7h1.3
	c34.8,0,68.2,5.7,91.4,15.7l1.2,0.5v163.7l-1.2,0.5C725.2,510.9,692,516.5,656.6,516.9L656.6,516.9L656.6,516.9z"/>
<path fill="#FFFFFF" d="M650.4,459.4c2,0.3,3.8,0.3,5.8,0.3c2,0,3.7-0.2,5.8-0.4v-81.9c-2-0.3-3.8-0.3-5.8-0.3c-2,0-3.8,0-5.8,0.3
	V459.4z"/>
<path fill="#FFFFFF" d="M224.6,513.1V336.9l1.2-0.5c22.7-9.8,57.1-15.7,91.9-15.7s68.3,5.7,91.9,15.7l1.2,0.5v176h-87.4v-47.6h-12.2
	v47.8L224.6,513.1L224.6,513.1z"/>
<path fill="#FFFFFF" d="M323.5,411.9v-38.4c-2-0.3-3.8-0.3-6.1-0.3c-2.3,0-4,0-6.1,0.3v38.4H323.5z"/>
<polygon fill="#FFFFFF" points="418.7,512.7 418.7,324.2 506.8,324.2 506.8,448.5 558.2,448.5 558.2,512.7 "/>
<polygon fill="#FFFFFF" points="93.7,512.7 93.7,388.5 56.9,388.5 56.9,324.2 218.1,324.2 218.1,388.5 182,388.5 182,512.7 "/>
<path fill="#FFFFFF" d="M283.5,318.3l18.3-35.6c-32.1-0.5-64.1-6.3-86.5-15.7l-1.2-0.5v-164l1.2-0.5c23.3-10,56.9-15.7,92.2-15.7
	c34.8,0,68.2,5.7,91.5,15.7l1.2,0.5v73.6H313v-32.5c-2-0.3-3.8-0.3-5.8-0.3c-2.3,0-3.7,0-5.8,0.3v82c2,0.3,3.8,0.3,5.8,0.3
	c2.2,0,3.8-0.2,5.8-0.4V193h87.1v73.3l-1.2,0.5c-9.2,4-19.8,7.3-31.6,9.8l-23.1,41.6L283.5,318.3L283.5,318.3z"/>
<path fill="#FFFFFF" d="M408,278.7V102.4l1.2-0.5c22.7-9.8,57.1-15.7,91.9-15.7s68.3,5.7,91.9,15.7l1.2,0.5v176h-87.1v-47.8h-12.2
	v47.9H408V278.7z"/>
<path fill="#FFFFFF" d="M507.3,177.8v-38.4c-2-0.3-3.8-0.3-6.1-0.3c-2.3,0-4,0-6.1,0.3v38.4H507.3z"/>
<path fill="#FFFFFF" d="M501.2,88.3c32.5,0,66.4,5.1,91.1,15.5v172.6h-82.9v-47.8H493v47.9h-82.9V103.9
	C433.9,93.6,468.6,88.3,501.2,88.3"/>
<path fill="#FFFFFF" d="M493,180h16.3v-42.2c-2.9-0.6-5.3-0.6-8.2-0.6c-2.9,0-5.3,0-8.2,0.6L493,180"/>
<path fill="#FFFFFF" d="M307.5,88.3c32.4,0,66.2,5.1,90.7,15.5v70.1h-83.3v-32.2c-2.9-0.6-5.3-0.6-7.9-0.6c-2.9,0-4.6,0-7.9,0.6
	v85.5c2.9,0.6,5.3,0.6,7.9,0.6c2.9,0,5-0.3,7.9-0.6V195h82.9v69.9c-9.3,4-20.1,7.4-32.1,9.9l-22.9,41.4h-55.9l18.3-35.6
	c-31.8-0.1-65.5-5.7-89-15.5V103.9C240.3,93.6,274.7,88.3,307.5,88.3"/>
<path fill="#FFFFFF" d="M655.3,322.8c0.4,0,0.9,0,1.3,0c32.4,0,66.2,5.1,90.7,15.5v160.9c-23.7,10-57.8,15.3-90.7,15.5
	c-32.5,0-67.2-5.5-91.4-15.5V338.4C589.1,328,622.9,322.8,655.3,322.8"/>
<path fill="#FFFFFF" d="M656.2,461.8c2.6,0,5-0.3,7.9-0.6v-85.5c-2.9-0.6-5.3-0.6-7.9-0.6c-2.6,0-5,0-7.9,0.6v85.5
	C651.3,461.8,653.5,461.8,656.2,461.8"/>
<path fill="#FFFFFF" d="M317.7,322.8c32.5,0,66.4,5.1,91.1,15.5v172.6h-83.3v-47.6h-16.3v47.8h-82.6V338.4
	C250.4,328,285.2,322.8,317.7,322.8"/>
<path fill="#FFFFFF" d="M309.3,414h16.3v-42.2c-2.9-0.6-5.3-0.6-8.2-0.6c-2.9,0-5.3,0-8.2,0.6V414"/>
<polyline fill="#FFFFFF" points="420.8,326.3 504.7,326.3 504.7,450.5 556.1,450.5 556.1,510.7 420.8,510.7 420.8,326.3 "/>
<polyline fill="#FFFFFF" points="216,326.3 216,386.4 179.9,386.4 179.9,510.7 95.6,510.7 95.6,386.4 58.9,386.4 58.9,326.3 
	216,326.3 "/>
<path fill="#FFFFFF" d="M404.3,540.5c32.4,0,66.2,5.1,90.7,15.5v160.9c-23.7,10-57.5,15.3-90.7,15.5c-32.5,0-67.2-5.5-91.4-15.5
	V556.1C337,545.8,371.4,540.5,404.3,540.5"/>
<path fill="#FFFFFF" d="M403.9,679.5c2.9,0,5-0.3,7.9-0.6v-85.5c-2.9-0.6-5.3-0.6-7.9-0.6c-2.9,0-5,0-7.9,0.6v85.5
	C398.9,679.5,401.2,679.5,403.9,679.5"/>
<path fill="#FFFFFF" d="M210.6,540.5c32.4,0,66.2,5.1,90.7,15.5v51h-83.3v-17.2c-2.9-0.6-5.3-0.6-7.9-0.6s-4.6,0-7.9,0.6v93
	c2.9,0.6,6.5,0.6,9.7,0.6s6.8-0.3,9.7-0.6v-20.5h-11.1v-49.4h90.4v103.7c-23.7,10.4-57.8,15.7-90.7,16c-32.5,0-67.2-5.5-91.4-15.5
	v-161C143.3,545.8,177.7,540.5,210.6,540.5"/>
<path fill="#FFFFFF" d="M598.7,540.7c32.4,0,66.2,5.1,90.7,15.5v49.4h-82.9v-15.7c-2.9-0.6-5.3-0.6-7.9-0.6c-2.9,0-4.6,0-7.9,0.6
	h0.1v22.3h98.7v105c-24.1,10-58.9,15.5-91.4,15.5c-32.8-0.3-66.9-5.5-91.1-15.5v-49.4h83.4v15.5c2.9,0.6,5.3,0.6,7.9,0.6
	c2.9,0,5-0.3,7.9-0.6v-22.1h-98.7v-105C531.4,545.9,565.8,540.7,598.7,540.7"/>
<path fill="#FFFFFF" d="M501.2,84.2c-35.1,0-69.7,5.9-92.8,15.9l-2.5,1v2.7v172.7v4.1h4.1H493h4.1v-4.1v-43.8h8.1v43.7v4.1h4.1h82.9
	h4.1v-4.1V103.9v-2.7l-2.5-1C570.1,89.9,536.3,84.2,501.2,84.2L501.2,84.2z"/>
<path fill="#FFFFFF" d="M497.1,141.3c1.2-0.1,2.5-0.1,4-0.1s2.8,0,4,0.1v34.5h-8.1L497.1,141.3L497.1,141.3z"/>
<path fill="#FFFFFF" d="M307.5,84.2c-35.5,0-69.4,5.8-93,15.9l-2.5,1v2.7v161.3v2.8l2.6,1c21.8,9.1,52.7,14.9,84,15.8l-15.3,29.6
	l-3.1,6h4.8c-23,2.5-44.2,7.3-59.9,14.2l-2.5,1v2.7V511v4.1h4.1h82.6h4.1V511v-43.7h8.1v43.5v4.1h4.1h83.3h4.1v-4.1V338.4v-2.7
	l-2.5-1c-17.5-7.3-40.2-12.5-64.9-14.7l0.9-1.7l22-39.8c11.6-2.5,22-5.8,31.1-9.7l2.5-1v-2.7v-69.9v-4.1h-4.1h-82.9H311v4.1v28.5
	c-1.2,0.1-2.4,0.2-3.7,0.2s-2.5,0-3.7-0.1v-78.3c1.1-0.1,2.3-0.1,3.7-0.1c1.3,0,2.5,0,3.7,0.1v28.6v4.1h4.1h83.3h4.1v-4.1V104v-2.7
	l-2.5-1C376.3,89.9,342.6,84.2,307.5,84.2L307.5,84.2z"/>
<path fill="#FFFFFF" d="M313.4,375.3c1.2-0.1,2.5-0.1,4-0.1c1.5,0,2.8,0,4,0.1v34.5h-8.1V375.3L313.4,375.3z"/>
<path fill="#FFFFFF" d="M655.3,318.6c-35,0-68.4,5.8-91.7,15.9l-2.5,1v2.7v160.9v2.8l2.6,1c23.9,9.9,58.7,15.9,93,15.9
	c35.5-0.3,69.2-6.1,92.2-15.9l2.5-1v-2.8V338.4v-2.7l-2.5-1c-23.6-10.1-57.2-15.9-92.2-15.9C656.2,318.6,655.7,318.6,655.3,318.6
	L655.3,318.6z"/>
<path fill="#FFFFFF" d="M652.5,379.3c1.2-0.1,2.4-0.1,3.7-0.1c1.3,0,2.5,0,3.7,0.1v78.2c-1.2,0.1-2.5,0.2-3.7,0.2
	c-1.3,0-2.5,0-3.7-0.1V379.3L652.5,379.3z"/>
<polygon fill="#FFFFFF" points="420.8,322.1 416.7,322.1 416.7,326.3 416.7,510.7 416.7,514.8 420.8,514.8 556,514.8 560.2,514.8 
	560.2,510.7 560.2,450.5 560.2,446.4 556,446.4 508.8,446.4 508.8,326.3 508.8,322.1 504.7,322.1 420.8,322.1 "/>
<polygon fill="#FFFFFF" points="220.1,322.1 216,322.1 59,322.1 54.8,322.1 54.8,326.3 54.8,386.4 54.8,390.5 59,390.5 91.6,390.5 
	91.6,510.7 91.6,514.8 95.8,514.8 180,514.8 184.2,514.8 184.2,510.7 184.2,390.5 216.1,390.5 220.2,390.5 220.2,386.4 220.2,326.3 
	220.2,322.1 "/>
<path fill="#FFFFFF" d="M404.3,536.4c-35.5,0-69.4,5.8-93,15.9l-2.5,1v2.7v160.9v2.8l2.6,1c23.9,9.9,58.7,15.9,93,15.9
	c35.5-0.3,69.2-6.1,92.2-15.9l2.5-1v-2.8V556.1v-2.8l-2.5-1C473,542.2,439.4,536.4,404.3,536.4L404.3,536.4z"/>
<path fill="#FFFFFF" d="M400.2,597c1.1-0.1,2.3-0.1,3.7-0.1c1.3,0,2.5,0,3.7,0.1v78.2c-1.2,0.1-2.4,0.2-3.7,0.2
	c-1.3,0-2.5,0-3.7-0.1V597L400.2,597z"/>
<path fill="#FFFFFF" d="M210.6,536.4c-35.6,0-69.5,5.8-93.2,15.9l-2.5,1v2.7v160.9v2.8l2.6,1c23.9,9.9,58.7,15.9,93,15.9
	c35.9-0.3,69.5-6.3,92.3-16.3l2.5-1.1v-2.7V612.9v-1.7h0.1v-4.1v-51v-2.8l-2.5-1C279.4,542.2,245.7,536.4,210.6,536.4L210.6,536.4z"
	/>
<path fill="#FFFFFF" d="M206.5,593.4c1.2-0.1,2.4-0.1,3.7-0.1c1.3,0,2.5,0,3.7,0.1V607v1.7h-3.1h-4.1v4.1v49.4v4.1h4.1h6.9v12.6
	c-2.2,0.2-4,0.2-5.6,0.2c-1.9,0-3.8,0-5.6-0.1v-85.6H206.5z"/>
<path fill="#FFFFFF" d="M598.7,536.6c-35.5,0-69.4,5.8-93,15.9l-2.5,1v2.7v105v2.4h-0.1v4.1v49.4v2.8l2.6,1
	c23.4,9.8,57.2,15.6,92.7,15.9c34.4,0,69.1-5.9,93-15.9l2.6-1v-2.8V612.2v-4.1h-0.3v-2.4v-49.4v-2.7l-2.5-1
	C667.4,542.4,633.8,536.6,598.7,536.6L598.7,536.6z"/>
<path fill="#FFFFFF" d="M595,593.6c1-0.1,2.2-0.1,3.6-0.1c1.3,0,2.5,0,3.7,0.1v12.1v2.4h-7.2v-14.5H595z"/>
<path fill="#FFFFFF" d="M594.6,665.4h7.4v14.3c-1.2,0.1-2.4,0.2-3.7,0.2s-2.5,0-3.7-0.1v-11.9L594.6,665.4L594.6,665.4z"/>
</svg>
