<?xml version="1.0" encoding="utf-8"?>
<!-- Generator: Adobe Illustrator 18.1.1, SVG Export Plug-In . SVG Version: 6.00 Build 0)  -->
<svg version="1.1" id="Layer_1" xmlns="http://www.w3.org/2000/svg" xmlns:xlink="http://www.w3.org/1999/xlink" x="0px" y="0px"
	 viewBox="156 20.5 784.5 784.5" enable-background="new 156 20.5 784.5 784.5" xml:space="preserve">
<g>
	<g>
		<g>
			<path fill="#B3B4A1" d="M280.7,802.5c-67.4,0-122.2-54.8-122.2-122.2V145.1C158.5,77.8,213.3,23,280.7,23H816
				c67.3,0,122,54.8,122,122.2v535.2c0,67.4-54.8,122.2-122.2,122.2H280.7z M280.7,53.3c-24.6,0-47.7,9.5-65,26.8
				c-17.3,17.3-26.9,40.4-26.9,65v535.2c0,24.6,9.5,47.7,26.8,65c17.3,17.3,40.4,26.9,65,26.9H816c24.6,0,47.7-9.5,65-26.8
				c16.8-16.7,26.2-38.9,26.9-62.5h-0.1V145.1c0-24.6-9.5-47.7-26.8-65c-17.3-17.3-40.4-26.9-65-26.9H280.7z M736.1,727.5
				c-34.1-0.3-66.5-5.9-89.1-15.2l-1.5-0.6v-52H731v15.4c1.7,0.2,3.3,0.2,5.1,0.2c1.9,0,3.4-0.1,5.1-0.3v-16.6h-95.6V552.5l1.5-0.6
				c22.7-9.7,55.3-15.3,89.5-15.3c33.8,0,66.1,5.6,88.7,15.3l1.5,0.6v52h-85.3v-15.6c-1.7-0.2-3.3-0.2-5.1-0.2c-2,0-3.3,0-5,0.2
				v16.9h95.6v105.9l-1.5,0.6C802.6,721.8,769.2,727.5,736.1,727.5L736.1,727.5z M548.4,727.4c-33,0-66.5-5.7-89.4-15.2l-1.5-0.6
				V552.4l1.5-0.6c22.7-9.7,55.3-15.3,89.5-15.3c33.8,0,66.1,5.6,88.7,15.3l1.5,0.6v159.1l-1.5,0.6
				C614.9,721.5,582.6,727.1,548.4,727.4L548.4,727.4L548.4,727.4z M542.9,670.9c1.7,0.2,3.3,0.2,5.1,0.2c1.9,0,3.4-0.1,5.1-0.3
				v-78.5c-1.7-0.2-3.3-0.2-5.1-0.2c-2,0-3.5,0-5.1,0.2V670.9z M360.7,727.4c-33,0-66.5-5.7-89.4-15.2l-1.5-0.6V552.4l1.5-0.6
				c22.7-9.7,55.3-15.3,89.6-15.3c33.8,0,66.1,5.6,88.7,15.3l1.5,0.6v53.5h-85.6v-17.1c-1.7-0.2-3.3-0.2-5.1-0.2
				c-1.8,0-3.3,0-5.1,0.2v85.7c2.2,0.2,4.7,0.2,6.9,0.2c1.9,0,4.2-0.1,6.9-0.3v-15.1h-10.7v-52.8H451v104.6l-1.5,0.7
				C427.6,721.4,395.3,727.1,360.7,727.4L360.7,727.4L360.7,727.4z M792.7,516.6c-33,0-66.5-5.7-89.4-15.2l-1.5-0.6V341.5l1.5-0.7
				c22.4-9.7,54.5-15.3,88.2-15.3l1.3,0c33.8,0,66.1,5.6,88.7,15.3l1.5,0.6v159.1l-1.5,0.6C859.2,510.7,826.9,516.3,792.7,516.6
				L792.7,516.6L792.7,516.6z M787.2,460c1.7,0.2,3.3,0.2,5.1,0.2c1.7,0,3.3-0.1,5.1-0.3v-78.4c-1.7-0.2-3.3-0.2-5.1-0.2
				s-3.4,0-5.1,0.2V460z M373.9,512.9V341.5l1.5-0.7c22.1-9.6,55.4-15.3,89.2-15.3c33.8,0,66.3,5.6,89.2,15.2l1.5,0.6v171.2h-85.6
				v-46.1h-10.8v46.3H373.9z M469.6,414v-36.3c-1.7-0.2-3.3-0.2-5.4-0.2s-3.7,0-5.4,0.2V414H469.6z M561.9,512.5V329h86.2v120.3
				h49.8v63.2H561.9z M247.1,512.5V392.2h-35.6V329h157v63.2h-34.9v120.3H247.1z M430.6,324.3l17.7-34.5
				c-30.9-0.6-61.7-6.2-83.1-15.2l-1.5-0.6V114.5l1.5-0.6c22.7-9.7,55.3-15.3,89.4-15.3c33.8,0,66.1,5.6,88.7,15.3l1.5,0.6v72.1
				h-85.6V155c-1.7-0.2-3.3-0.2-5.1-0.2c-2,0-3.4,0-5.1,0.2v78.6c1.7,0.2,3.3,0.2,5.1,0.2c1.9,0,3.4-0.1,5.1-0.3V202h85.3v71.8
				l-1.5,0.7c-8.9,3.9-19.1,7.1-30.5,9.5l-22.4,40.4H430.6z M551.5,285.9V114.5l1.5-0.7c22.1-9.6,55.4-15.3,89.2-15.3
				c33.8,0,66.3,5.6,89.2,15.2l1.5,0.6v171.2h-85.3v-46.3h-10.8v46.4H551.5z M647.6,187.4v-36.3c-1.7-0.2-3.3-0.2-5.4-0.2
				s-3.7,0-5.4,0.2v36.3H647.6z"/>
			<path fill="#FFFFE5" d="M816,25.5c66.1,0,119.5,53.9,119.5,119.7v535.2c0,66.1-53.6,119.7-119.7,119.7H280.7
				C214.6,800,161,746.4,161,680.3V145.1C161,79,214.6,25.5,280.7,25.5H816 M280.7,774.7H816c52.2,0,94.4-42.1,94.4-94.4h-0.1V145.1
				c0-52.2-42.1-94.4-94.4-94.4H280.7c-52.2,0-94.4,42.1-94.4,94.4v535.2C186.3,732.5,228.4,774.7,280.7,774.7 M642.2,101.1
				c31.5,0,64.3,4.9,88.2,15v167.1h-80.3V237h-15.8v46.4H554V116.2C577.1,106.2,610.7,101.1,642.2,101.1 M634.3,189.9h15.8v-40.9
				c-2.8-0.6-5.1-0.6-7.9-0.6c-2.8,0-5.1,0-7.9,0.6V189.9 M454.7,101.1c31.4,0,64.1,4.9,87.8,15v67.9h-80.6v-31.2
				c-2.8-0.6-5.1-0.6-7.6-0.6c-2.8,0-4.5,0-7.6,0.6v82.8c2.8,0.6,5.1,0.6,7.6,0.6c2.8,0,4.8-0.3,7.6-0.6v-31.2h80.3v67.7
				c-9,3.9-19.5,7.2-31.1,9.6l-22.2,40.1h-54.1l17.7-34.5c-30.8-0.1-63.4-5.5-86.2-15V116.2C389.6,106.2,422.9,101.1,454.7,101.1
				 M791.4,328.1c0.4,0,0.9,0,1.3,0c31.4,0,64.1,4.9,87.8,15V499c-22.9,9.7-56,14.8-87.8,15c-31.5,0-65.1-5.3-88.5-15V343.2
				C727.2,333.2,760,328.1,791.4,328.1 M792.3,462.7c2.5,0,4.8-0.3,7.6-0.6v-82.8c-2.8-0.6-5.1-0.6-7.6-0.6c-2.5,0-4.8,0-7.6,0.6
				v82.8C787.5,462.7,789.7,462.7,792.3,462.7 M464.5,328.1c31.5,0,64.3,4.9,88.2,15v167.1h-80.6v-46.1h-15.8v46.3h-80V343.2
				C399.4,333.2,433,328.1,464.5,328.1 M456.4,416.5h15.8v-40.9c-2.8-0.6-5.1-0.6-7.9-0.6c-2.8,0-5.1,0-7.9,0.6V416.5 M645.6,331.5
				v120.3h49.8V510H564.4V331.5H645.6 M366.1,331.5v58.2h-34.9V510h-81.6V389.7h-35.6v-58.2H366.1 M548.4,539
				c31.4,0,64.1,4.9,87.8,15v155.8c-22.9,9.7-55.7,14.8-87.8,15c-31.5,0-65.1-5.3-88.5-15V554C483.3,544,516.6,539,548.4,539
				 M547.9,673.6c2.8,0,4.8-0.3,7.6-0.6v-82.8c-2.8-0.6-5.1-0.6-7.6-0.6c-2.8,0-4.8,0-7.6,0.6V673
				C543.2,673.6,545.4,673.6,547.9,673.6 M360.9,539c31.4,0,64.1,4.9,87.8,15v49.4h-80.6v-16.7c-2.8-0.6-5.1-0.6-7.6-0.6
				c-2.5,0-4.5,0-7.6,0.6v90c2.8,0.6,6.3,0.6,9.4,0.6c3.1,0,6.6-0.3,9.4-0.6v-19.8H361V609h87.5v100.4c-22.9,10.1-56,15.2-87.8,15.5
				c-31.5,0-65.1-5.3-88.5-15V554C295.6,544,329,539,360.9,539 M736.6,539.1c31.4,0,64.1,4.9,87.8,15V602H744v-15.2
				c-2.8-0.6-5.1-0.6-7.6-0.6c-2.8,0-4.5,0-7.6,0.6h0.1v21.5h95.6V710c-23.3,9.7-57,15-88.5,15c-31.8-0.3-64.8-5.3-88.2-15v-47.8
				h80.6v15c2.8,0.6,5.1,0.6,7.6,0.6c2.8,0,4.8-0.3,7.6-0.6v-21.4h-95.6V554.1C671.4,544.2,704.8,539.1,736.6,539.1 M816,20.5H280.7
				c-33.3,0-64.6,13-88.2,36.5C169,80.5,156,111.8,156,145.1v535.2c0,33.3,13,64.6,36.5,88.2c23.6,23.6,54.9,36.5,88.2,36.5h535.2
				c33.3,0,64.6-13,88.2-36.5c23.6-23.6,36.5-54.9,36.5-88.2V145.1C940.6,76.4,884.7,20.5,816,20.5L816,20.5z M280.7,769.7
				c-24,0-46.4-9.3-63.3-26.2c-16.8-16.9-26.1-39.3-26.1-63.2V145.1c0-24,9.3-46.4,26.2-63.3c16.9-16.8,39.3-26.1,63.2-26.1h535.2
				c24,0,46.4,9.3,63.3,26.2c16.8,16.9,26.1,39.3,26.1,63.2v535.2v5h0c-1.2,22.1-10.3,42.6-26,58.3c-16.9,16.8-39.3,26.1-63.2,26.1
				H280.7L280.7,769.7z M642.2,96.1c-34.1,0-67.8,5.8-90.2,15.5l-3,1.3v3.3v167.2v5h5h80.3h5v-5V242h5.8v41.3v5h5h80.3h5v-5V116.2
				v-3.3l-3.1-1.3C709.1,101.8,676.3,96.1,642.2,96.1L642.2,96.1z M639.3,153.4c0.9,0,1.8,0,2.9,0c1.1,0,2,0,2.9,0v31.5h-5.8V153.4
				L639.3,153.4z M454.7,96.1c-34.5,0-67.5,5.6-90.4,15.5l-3,1.3v3.3v156.1v3.3l3.1,1.3c20.8,8.7,50.2,14.3,80,15.3l-14.1,27.3
				l-3,5.9c-20.3,2.5-38.8,7.1-52.9,13.2l-3,1.3v3.3v167.2v5h5h80h5v-5v-41.3h5.8v41.1v5h5h80.6h5v-5V343.2v-3.3l-3-1.3
				c-16.6-7-38.1-11.9-61.6-14.1l0.1-0.2l21.1-38.1c11.1-2.4,21.1-5.6,29.8-9.4l3-1.3v-3.3v-67.7v-5h-5h-80.3h-5v5v26.7
				c-0.8,0.1-1.7,0.1-2.6,0.1c-0.9,0-1.8,0-2.6,0v-73.9c0.8,0,1.6,0,2.6,0c0.9,0,1.8,0,2.6,0v26.8v5h5h80.6h5v-5v-67.9v-3.3l-3-1.3
				C521.5,101.8,488.8,96.1,454.7,96.1L454.7,96.1z M461.4,380c0.9,0,1.8,0,2.9,0c1.1,0,2,0,2.9,0v31.5h-5.8V380L461.4,380z
				 M791.4,323.1c-34,0-66.5,5.6-89.2,15.5l-3,1.3v3.3v103.6h-3.9h-44.8V331.5v-5h-5h-81.2h-5v5V510v5h5h130.9h5v-5v-7.2l1.9,0.8
				c23.2,9.7,57,15.4,90.4,15.4c34.6-0.3,67.2-5.9,89.7-15.4l3.1-1.3V499V343.2v-3.3l-3-1.3c-22.9-9.8-55.6-15.5-89.7-15.5
				C792.3,323.1,791.8,323.1,791.4,323.1L791.4,323.1z M789.7,383.8c0.8,0,1.7,0,2.6,0c0.9,0,1.8,0,2.6,0v73.8
				c-0.9,0.1-1.7,0.1-2.6,0.1c-0.9,0-1.8,0-2.6,0V383.8L789.7,383.8z M371.1,326.5h-5h-152h-5v5v58.2v5h5h30.6V510v5h5h81.6h5v-5
				V394.7h29.9h5v-5v-58.2V326.5L371.1,326.5z M548.4,534c-34.5,0-67.5,5.6-90.4,15.5l-3,1.3v3.3v155.8v3.3l3.1,1.3
				c23.2,9.7,57,15.4,90.4,15.4c34.6-0.3,67.2-5.9,89.7-15.4l3.1-1.3v-3.3V554v-3.3l-3-1.3C615.2,539.6,582.5,534,548.4,534
				L548.4,534z M545.4,594.6c0.8,0,1.6,0,2.6,0c0.9,0,1.8,0,2.6,0v73.8c-0.8,0.1-1.7,0.1-2.6,0.1c-0.9,0-1.8,0-2.6,0V594.6
				L545.4,594.6z M360.9,534c-34.6,0-67.6,5.6-90.6,15.5l-3,1.3v3.3v155.8v3.3l3.1,1.3c23.2,9.7,57,15.4,90.4,15.4
				c34.9-0.3,67.6-6.1,89.8-15.9l3-1.3v-3.3V609v-0.6h0.1v-5V554v-3.3l-3-1.3C427.7,539.6,395,534,360.9,534L360.9,534z
				 M357.9,591.1c0.8,0,1.6,0,2.6,0c0.9,0,1.8,0,2.6,0v12.3v0.6h-2h-3.2V591.1L357.9,591.1z M357.9,661.8h3.2h5.7v10.2
				c-1.7,0.1-3.1,0.2-4.4,0.2c-1.4,0-3,0-4.4-0.1V661.8L357.9,661.8z M736.6,534.1c-34.5,0-67.5,5.6-90.4,15.5l-3,1.3v3.3v101.7v1.3
				h-0.1v5V710v3.3l3.1,1.3c22.9,9.5,55.7,15.1,90.1,15.4c33.4,0,67.2-5.8,90.4-15.4l3.1-1.3V710V608.3v-5h-0.3V602v-47.8v-3.3
				l-3-1.3C803.4,539.7,770.7,534.1,736.6,534.1L736.6,534.1z M734,591.2c0.7,0,1.5,0,2.5,0c0.9,0,1.8,0,2.6,0V602v1.3h-5V591.2
				L734,591.2z M733.5,660.8h5.2v11.8c-0.8,0.1-1.7,0.1-2.6,0.1c-0.9,0-1.8,0-2.6,0v-10.6V660.8L733.5,660.8z"/>
		</g>
	</g>
</g>
</svg>
