<?xml version="1.0" encoding="utf-8"?>
<!-- Generator: Adobe Illustrator 18.1.1, SVG Export Plug-In . SVG Version: 6.00 Build 0)  -->
<svg version="1.1" id="Layer_1" xmlns="http://www.w3.org/2000/svg" xmlns:xlink="http://www.w3.org/1999/xlink" x="0px" y="0px"
	 viewBox="12.3 11.3 784.5 784.5" enable-background="new 12.3 11.3 784.5 784.5" xml:space="preserve">
<g id="Layer_1_1_">
</g>
<g>
	<path fill="#B3B4A1" stroke="#FFFFE5" stroke-width="5" stroke-miterlimit="10" d="M190.8,283c-35.8,0-73.8-5.5-100.6-15.5V107.6
		c26.4-10.3,64.5-15.5,100.6-15.5c35.8,0,73.2,5.2,99.9,15.5v69.3h-91.6V145c-3.2-0.6-5.5-0.6-8.7-0.6c-2.9,0-5.2,0-8.7,0.6v84.8
		c3.2,0.6,5.5,0.6,8.7,0.6c2.9,0,5.5-0.3,8.7-0.6v-31.9h91.6v69.3C264.3,277.5,227.2,282.7,190.8,283z"/>
	<path fill="#B3B4A1" stroke="#FFFFE5" stroke-width="5" stroke-miterlimit="10" d="M404.2,283c-35.8,0-73.8-5.5-100.6-15.5V107.6
		c26.4-10.3,64.5-15.5,100.6-15.5c35.8,0,73.2,5.2,99.9,15.5v159.6C478,277.5,440.6,282.7,404.2,283z M412.6,145
		c-3.2-0.6-5.5-0.6-8.7-0.6c-2.9,0-5.5,0-8.7,0.6v84.8c3.2,0.6,5.5,0.6,8.7,0.6c2.9,0,5.5-0.3,8.7-0.6V145z"/>
	<path fill="#B3B4A1" stroke="#FFFFE5" stroke-width="5" stroke-miterlimit="10" d="M626.3,279.1V145c-2.9-0.6-5.2-0.6-7.7-0.6
		c-2.6,0-4.8,0-7.7,0.6v133.8h-92.5V107.6c26.1-10.3,64.2-15.5,100.3-15.5c35.8,0,73.2,5.2,100.3,15.5v171.2h-92.5V279.1z"/>
	<path fill="#B3B4A1" stroke="#FFFFE5" stroke-width="5" stroke-miterlimit="10" d="M238.5,371.7v123.2H146V371.7h-40.6V312h173.1
		v59.6H238.5z"/>
	<path fill="#B3B4A1" stroke="#FFFFE5" stroke-width="5" stroke-miterlimit="10" d="M396.5,495.2v-47.4h-17.7v47.4h-91.2V324
		c26.1-10.3,64.2-15.5,100.3-15.5c35.8,0,73.2,5.2,100.3,15.5v171.2H396.5z M387.4,356.5c-2.9,0-5.5,0-9,0.6v41.9h17.7v-41.9
		C396.2,357.2,390.7,356.5,387.4,356.5z"/>
	<path fill="#B3B4A1" stroke="#FFFFE5" stroke-width="5" stroke-miterlimit="10" d="M601.5,499c-35.8,0-73.8-5.5-100.6-15.5V324
		c26.4-10.3,64.5-15.5,100.6-15.5c35.8,0,73.2,5.2,99.9,15.5v69.3h-91.6v-31.9c-3.2-0.6-5.5-0.6-8.7-0.6c-2.9,0-5.2,0-8.7,0.6v84.8
		c3.2,0.6,5.5,0.6,8.7,0.6c2.9,0,5.5-0.3,8.7-0.6v-31.9h91.6v69.3C675.3,493.5,637.9,498.7,601.5,499z"/>
	<path fill="#B3B4A1" stroke="#FFFFE5" stroke-width="5" stroke-miterlimit="10" d="M345.2,587.7v123.2h-92.5V587.7h-40.3V528h172.8
		v59.6H345.2z"/>
	<path fill="#B3B4A1" stroke="#FFFFE5" stroke-width="5" stroke-miterlimit="10" d="M494.5,715c-35.8,0-73.8-5.5-100.6-15.5V540
		c26.4-10.3,64.5-15.5,100.6-15.5c35.8,0,73.2,5.2,99.9,15.5v159.6C568,709.5,530.6,714.7,494.5,715z M502.9,577
		c-3.2-0.6-5.5-0.6-8.7-0.6c-3.2,0-5.5,0-8.7,0.6v84.8c3.2,0.6,5.5,0.6,8.7,0.6c3.2,0,5.5-0.3,8.7-0.6V577z"/>
</g>
<g id="TEXTO_BLANCO">
</g>
<g id="GUIAS">
</g>
<g>
	<path fill="#B3B4A1" d="M137,793.4c-67.4,0-122.2-54.8-122.2-122.2V136C14.8,68.6,69.6,13.8,137,13.8h535.3
		c67.3,0,122.1,54.8,122.1,122.2v535.2c0,67.4-54.8,122.2-122.2,122.2H137z M137,44.1c-24.6,0-47.7,9.5-65,26.8
		c-17.3,17.3-26.9,40.4-26.9,65v535.2c0,24.6,9.5,47.7,26.8,65c17.3,17.3,40.4,26.9,65,26.9h535.3c24.6,0,47.7-9.5,65-26.8
		c16.8-16.7,26.2-38.9,26.9-62.5H764V136c0-24.6-9.5-47.7-26.8-65c-17.3-17.3-40.4-26.9-65-26.9H137z"/>
	<path fill="#FFFFE5" d="M672.3,16.3c66.1,0,119.5,53.9,119.5,119.7v535.2c0,66.1-53.6,119.7-119.7,119.7H137
		c-66.1,0-119.7-53.6-119.7-119.7V136C17.3,69.9,70.8,16.3,137,16.3H672.3 M137,765.5h535.3c52.2,0,94.4-42.1,94.4-94.4h-0.1V136
		c0-52.2-42.1-94.4-94.4-94.4H137c-52.2,0-94.4,42.1-94.4,94.4v535.2C42.6,723.4,84.6,765.5,137,765.5 M672.3,11.3H137
		c-33.3,0-64.6,13-88.2,36.5C25.2,71.4,12.3,102.7,12.3,136v535.2c0,33.3,13,64.6,36.5,88.2c23.6,23.6,54.9,36.5,88.2,36.5h535.2
		c33.3,0,64.6-13,88.2-36.5c23.6-23.6,36.5-54.9,36.5-88.2V136C796.8,67.3,740.9,11.3,672.3,11.3L672.3,11.3z M137,760.5
		c-24,0-46.4-9.3-63.3-26.2c-16.8-16.9-26.1-39.3-26.1-63.2V136c0-24,9.3-46.4,26.2-63.3C90.6,55.9,113,46.6,137,46.6h535.2
		c24,0,46.4,9.3,63.3,26.2c16.8,16.9,26.1,39.3,26.1,63.2v535.2v5h0c-1.2,22.1-10.3,42.6-26,58.3c-16.9,16.8-39.3,26.1-63.2,26.1
		H137L137,760.5z"/>
</g>
</svg>
