<?xml version="1.0" encoding="utf-8"?>
<!-- Generator: Adobe Illustrator 18.1.1, SVG Export Plug-In . SVG Version: 6.00 Build 0)  -->
<svg version="1.1" id="Layer_1" xmlns="http://www.w3.org/2000/svg" xmlns:xlink="http://www.w3.org/1999/xlink" x="0px" y="0px"
	 viewBox="148.3 0 550.7 568.8" enable-background="new 148.3 0 550.7 568.8" xml:space="preserve">
<g>
	<g>
		<path fill="#B3B4A1" d="M614,18.1H233.4c-47,0-85.1,38.1-85.1,85.1v380.5c0,47,38.1,85.1,85.1,85.1h380.5
			c47,0,85.1-38.1,85.1-85.1V103.2C699,56.4,661,18.1,614,18.1z M681.1,483.7c0,37.2-30,67.1-67.1,67.1H233.4
			c-37.2,0-67.1-30-67.1-67.1V103.2c0-37.2,30-67.1,67.1-67.1h380.5c37.2,0,67.1,30,67.1,67.1v380.5H681.1z M484.8,168.5H496v32.9
			h57.1V82.6c-17-7.2-40.3-10.7-62.7-10.7s-46.3,3.6-62.7,10.7v118.9h57.1V168.5z M484.8,105.9c2-0.4,3.6-0.4,5.6-0.4s3.6,0,5.6,0.4
			V135h-11.2V105.9z M269.3,362.6v-85.5h24.8v-41.4H186v41.4h25.3v85.5H269.3z M342.9,228.8h38.5l15.8-28.5c8.2-1.7,15.7-4,22.1-6.8
			v-48.1h-57.1v22.2c-2,0.2-3.4,0.4-5.4,0.4c-1.8,0-3.4,0-5.4-0.4v-58.9c2.2-0.4,3.4-0.4,5.4-0.4c1.8,0,3.4,0,5.4,0.4v22.2h57.3
			V82.6c-16.8-7.2-40.1-10.7-62.4-10.7c-22.6,0-46.3,3.6-62.9,10.7v111c16.2,6.8,39.4,10.6,61.3,10.7L342.9,228.8z M369.5,362.8
			h57.3V244c-17-7.2-40.3-10.7-62.7-10.7s-46.3,3.6-62.7,10.7v118.9h56.9V330h11.2V362.8z M358.3,296.1V267c2-0.4,3.6-0.4,5.6-0.4
			s3.6,0,5.6,0.4v29.1H358.3z M435.1,235.7v126.9h93.1v-41.4h-35.4v-85.5L435.1,235.7L435.1,235.7z M534.5,244v110.8
			c16.6,6.9,40.5,10.7,62.9,10.7c22.6-0.2,46.1-3.8,62.4-10.7V244c-16.8-7.2-40.1-10.7-62.4-10.7C574.8,233.2,551.1,236.8,534.5,244
			z M602.5,328.6c-2,0.2-3.6,0.4-5.4,0.4s-3.4,0-5.4-0.4v-58.9c2-0.4,3.6-0.4,5.4-0.4s3.4,0,5.4,0.4V328.6z M227.4,393.9v110.8
			c16.6,6.9,40.5,10.7,62.9,10.7c22.6-0.2,46.1-3.8,62.4-11V433h-62.2v34h7.6v14.1c-2,0.2-4.5,0.4-6.7,0.4c-2.2,0-4.7,0-6.7-0.4v-64
			c2.2-0.4,3.6-0.4,5.4-0.4s3.4,0,5.4,0.4V429h57.3v-35.1c-16.8-7.2-40.1-10.7-62.4-10.7C267.7,383.2,244,386.8,227.4,393.9z
			 M360.8,393.9v110.8c16.6,6.9,40.5,10.7,62.9,10.7c22.8-0.2,46.1-3.8,62.4-10.7V393.9c-16.8-7.2-40.1-10.7-62.4-10.7
			C401.1,383.2,377.4,386.8,360.8,393.9z M428.8,478.5c-2,0.2-3.4,0.4-5.4,0.4c-1.8,0-3.4,0-5.4-0.4v-58.9c2-0.4,3.4-0.4,5.4-0.4
			c1.8,0,3.4,0,5.4,0.4V478.5z M552,417.2c2.2-0.4,3.4-0.4,5.4-0.4c1.8,0,3.4,0,5.4,0.4V428h57.1v-34c-16.8-7.2-40.1-10.7-62.4-10.7
			c-22.6,0-46.3,3.6-62.9,10.7v72.3h68v15.2c-2,0.2-3.4,0.4-5.4,0.4c-1.8,0-3.4,0-5.4-0.4v-10.7h-57.3v34
			c16.6,6.9,40.1,10.5,62.7,10.7c22.4,0,46.3-3.8,62.9-10.7v-72.3h-68v-15.3H552z"/>
	</g>
</g>
</svg>
