<?xml version="1.0" encoding="utf-8"?>
<!-- Generator: Adobe Illustrator 18.1.1, SVG Export Plug-In . SVG Version: 6.00 Build 0)  -->
<svg version="1.1" id="Layer_1" xmlns="http://www.w3.org/2000/svg" xmlns:xlink="http://www.w3.org/1999/xlink" x="0px" y="0px"
	 viewBox="156 20.5 784.5 784.5" enable-background="new 156 20.5 784.5 784.5" xml:space="preserve">
<g>
	<g>
		<g>
			<path fill="#B3B4A1" d="M280.7,802.5c-67.4,0-122.2-54.8-122.2-122.2V145.1C158.5,77.8,213.3,23,280.7,23H816
				c67.3,0,122,54.8,122,122.2v535.2c0,67.4-54.8,122.2-122.2,122.2H280.7z M280.7,53.3c-24.6,0-47.7,9.5-65,26.8
				c-17.3,17.3-26.9,40.4-26.9,65v535.2c0,24.6,9.5,47.7,26.8,65c17.3,17.3,40.4,26.9,65,26.9H816c24.6,0,47.7-9.5,65-26.8
				c16.8-16.7,26.2-38.9,26.9-62.5h-0.1V145.1c0-24.6-9.5-47.7-26.8-65c-17.3-17.3-40.4-26.9-65-26.9H280.7z M756.9,714.9
				c-37.8-0.3-73.8-5.8-98.7-15.2l-1.6-0.6V647h94.7v15.4c1.9,0.2,3.6,0.2,5.9,0.2c2.2,0,3.9-0.1,5.9-0.3v-16.6H656.7V539.8l1.6-0.6
				c24.2-9.5,60.8-15.2,97.8-15.2l1.4,0c37.6,0,73.5,5.5,98.5,15.2l1.6,0.6v52h-94.5v-15.4c-1.9-0.2-3.6-0.2-5.9-0.2
				c-2.3,0-3.9,0-5.9,0.2v16.7h106v105.9l-1.6,0.6C830.7,709.2,793.8,714.9,756.9,714.9L756.9,714.9z M548.4,714.9
				c-36.3,0-73.4-5.7-99-15.2l-1.6-0.6V539.8l1.6-0.6c24.6-9.7,60.2-15.2,97.7-15.2l1.4,0c37.6,0,73.5,5.5,98.5,15.2l1.6,0.6v159.3
				l-1.6,0.6C622.3,709,586.4,714.6,548.4,714.9L548.4,714.9L548.4,714.9z M542.2,658.3c1.9,0.2,3.6,0.2,5.9,0.2
				c2.2,0,3.9-0.1,5.9-0.3v-78.4c-1.9-0.2-3.6-0.2-5.9-0.2s-4,0-5.9,0.2V658.3z M339.5,714.9c-37.8-0.3-73.8-5.8-98.7-15.2l-1.6-0.6
				V647h94.7v15.4c1.9,0.2,3.6,0.2,5.9,0.2c2.2,0,3.9-0.1,5.9-0.3v-16.6H239V539.8l1.6-0.6c24.6-9.7,60.2-15.2,97.7-15.2l1.4,0
				c37.6,0,73.5,5.5,98.5,15.2l1.6,0.6v52h-94v-15.4c-1.9-0.2-3.6-0.2-5.9-0.2c-2.3,0-3.9,0-5.9,0.2v16.7h106v105.9l-1.6,0.6
				C413,709.2,376.1,714.9,339.5,714.9L339.5,714.9z M548.4,504c-36.9,0-73.8-5.7-98.8-15.2l-1.6-0.6V316.8h95.3v131.3
				c1.6,0.2,3.1,0.2,5.1,0.2c1.9,0,3.4-0.1,5.1-0.3V316.8h95.3v171.5l-1.6,0.6C621.5,498.5,585.5,504,548.4,504z M339.7,503.9
				c-36.4,0-73.4-5.7-99-15.2l-1.6-0.6V328.8l1.6-0.6c24.6-9.5,61.6-15.2,99.1-15.2c37.6,0,73.5,5.5,98.5,15.2l1.6,0.6v72h-94.5
				v-31.6c-1.9-0.2-3.6-0.2-5.9-0.2c-2.3,0-3.9,0-5.9,0.2v78.5c1.9,0.2,3.6,0.2,5.9,0.2c2.2,0,3.9-0.1,5.9-0.3v-31.4h94.5v71.9
				l-1.6,0.6C413.6,498.1,377.7,503.6,339.7,503.9L339.7,503.9L339.7,503.9z M762.5,500.1v-58c-2.1-0.7-3.6-0.8-6.4-0.8h-3.8v58.8
				H657V316.3h100.1c37.6,0,73.6,5.8,98.8,15.9l1.6,0.6v74.8l-1.6,0.6c-5.4,2.2-12.2,3.9-21.9,5.6c9.1,1.6,16.5,3.4,22.3,5.8
				l1.5,0.6v79.7H762.5z M757.1,394.1c2.4,0,4.4-0.3,6.4-0.8v-30.4c-1.8-0.4-3.7-0.6-6.4-0.6h-6.4v31.8H757.1z M548.1,292.9
				c-36.3,0-73.4-5.7-99-15.2l-1.6-0.6V117.6l1.6-0.6c24.6-9.5,61.6-15.2,99.1-15.2c37.6,0,73.5,5.5,98.5,15.2l1.6,0.6v159.2
				l-1.6,0.6C622.1,287.1,586.2,292.8,548.1,292.9L548.1,292.9z M541.7,236.5c1.9,0.2,3.6,0.2,5.9,0.2c2,0,3.9-0.2,5.9-0.3V158
				c-1.9-0.2-3.6-0.2-5.9-0.2c-2.1,0-3.9,0-5.9,0.2V236.5z M339.7,292.9c-36.4,0-73.4-5.7-99-15.2l-1.6-0.6V117.6l1.6-0.6
				c24.6-9.5,61.6-15.2,99.1-15.2c37.6,0,73.5,5.5,98.5,15.2l1.6,0.6v72h-94.5v-31.7c-1.9-0.2-3.6-0.2-5.9-0.2c-2.1,0-3.8,0-5.9,0.2
				v78.5c1.9,0.2,3.6,0.2,5.9,0.2c2,0,3.9-0.2,5.9-0.3v-31.4h94.5v71.9l-1.6,0.6C413.5,286.9,377.6,292.6,339.7,292.9L339.7,292.9
				L339.7,292.9z M762.5,289V158c-1.7-0.2-3.3-0.2-5.1-0.2s-3.4,0-5.1,0.2v131H657V117.6l1.6-0.6c24.3-9.5,61.2-15.2,98.8-15.2
				c37.5,0,73.5,5.5,98.8,15.2l1.6,0.6V289H762.5z"/>
			<path fill="#FFFFE5" d="M816,25.5c66.1,0,119.5,53.9,119.5,119.7v535.2c0,66.1-53.6,119.7-119.7,119.7H280.7
				C214.6,800,161,746.4,161,680.3V145.1C161,79,214.6,25.5,280.7,25.5H816 M280.7,774.7H816c52.2,0,94.4-42.1,94.4-94.4h-0.1V145.1
				c0-52.2-42.1-94.4-94.4-94.4H280.7c-52.2,0-94.4,42.1-94.4,94.4v535.2C186.3,732.5,228.4,774.7,280.7,774.7 M757.4,104.2
				c34.9,0,71.4,4.9,97.9,15v167.2H765V155.8c-2.8-0.6-5.1-0.6-7.6-0.6c-2.5,0-4.8,0-7.6,0.6v130.7h-90.3V119.3
				C684.9,109.3,722.2,104.2,757.4,104.2 M548.1,104.2c35,0,71.4,4.9,97.6,15v155.8c-25.6,10.1-62,15.2-97.6,15.3
				c-34.9,0-72-5.3-98.2-15V119.3C475.7,109.3,512.8,104.2,548.1,104.2 M547.5,239.2c0,0,0.1,0,0.1,0c2.8,0,5.3-0.3,8.4-0.6v-82.8
				c-3.1-0.6-5.3-0.6-8.4-0.6c-2.8,0-5.3,0-8.4,0.6v82.8C542.3,239.2,544.5,239.2,547.5,239.2 M339.7,104.2c35,0,71.4,4.9,97.6,15
				v67.8h-89.5v-31.4c-3.1-0.6-5.3-0.6-8.4-0.6c-2.8,0-4.9,0-8.4,0.6v82.8c3.1,0.6,5.3,0.6,8.4,0.6c2.8,0,5.3-0.3,8.4-0.6v-31.2
				h89.5V275c-25.9,10.1-62,15.2-97.6,15.5c-34.9,0-72-5.3-98.2-15V119.3C267.2,109.3,304.3,104.2,339.7,104.2 M339.7,315.5
				c35,0,71.4,4.9,97.6,15v67.8h-89.5v-31.2c-3.1-0.6-5.3-0.6-8.4-0.6c-3.1,0-4.9,0-8.4,0.6v82.8c3.1,0.6,5.3,0.6,8.4,0.6
				c3.1,0,5.3-0.3,8.4-0.6v-31.2h89.5v67.7c-25.5,9.7-62,14.8-97.6,15c-34.9,0-72-5.3-98.2-15V330.5
				C267.2,320.5,304.3,315.5,339.7,315.5 M757.1,318.8c36.6,0,72.7,5.6,97.9,15.8V406c-8.9,3.5-21.7,5.8-38.1,7.9
				c16,2.1,29.5,4.4,38.4,8.2v75.5H765v-57.2c-3.5-1.3-5.3-1.5-8.9-1.5h-6.3v58.8h-90.3V318.8H757.1 M748.2,396.6h8.9
				c3.5,0,6.3-0.6,8.9-1.5v-34c-2.8-1-5.3-1.3-8.9-1.3h-8.9V396.6 M646.3,319.3v167.2c-26.4,10-62.6,15-97.9,15s-72.4-5.3-97.9-15
				V319.3h90.3v130.9c2.8,0.6,4.8,0.6,7.6,0.6c2.8,0,5.1-0.3,7.6-0.6V319.3H646.3 M756.1,526.4c0.5,0,1,0,1.4,0
				c35,0,71.4,4.9,97.6,15v47.8h-89.5v-15c-3.1-0.6-5.3-0.6-8.4-0.6c-3.1,0-4.9,0-8.4,0.6v21.4h106v101.7c-25.5,9.7-63,15-97.9,15
				c-35.6-0.3-72-5.3-97.9-15v-47.8h89.7v15c3.1,0.6,5.3,0.6,8.4,0.6c3.1,0,5.3-0.3,8.4-0.6v-21.4H659.2V541.5
				C684.6,531.5,721.2,526.4,756.1,526.4 M546.9,526.4c0.5,0,1,0,1.4,0c35,0,71.4,4.9,97.6,15v155.8c-25.5,9.7-62,14.8-97.6,15
				c-34.9,0-72-5.3-98.2-15V541.5C475.6,531.5,512.1,526.4,546.9,526.4 M548.1,661c3.1,0,5.3-0.3,8.4-0.6v-82.8
				c-3.1-0.6-5.3-0.6-8.4-0.6c-3.1,0-5.3,0-8.4,0.6v82.8C542.7,661,545,661,548.1,661 M338.2,526.4c0.5,0,1,0,1.4,0
				c35,0,71.4,4.9,97.6,15v47.8h-89v-15c-3.1-0.6-5.3-0.6-8.4-0.6c-3.1,0-4.9,0-8.4,0.6v21.4h106v101.7c-25.7,9.7-63,15-97.9,15
				c-35.6-0.3-72-5.3-97.9-15v-47.8h89.7v15c3.1,0.6,5.3,0.6,8.4,0.6c3.1,0,5.3-0.3,8.4-0.6v-21.4H241.5V541.5
				C266.9,531.5,303.3,526.4,338.2,526.4 M816,20.5H280.7c-33.3,0-64.6,13-88.2,36.5C169,80.5,156,111.8,156,145.1v535.2
				c0,33.3,13,64.6,36.5,88.2c23.6,23.6,54.9,36.5,88.2,36.5h535.2c33.3,0,64.6-13,88.2-36.5c23.6-23.6,36.5-54.9,36.5-88.2V145.1
				C940.6,76.4,884.7,20.5,816,20.5L816,20.5z M280.7,769.7c-24,0-46.4-9.3-63.3-26.2c-16.8-16.9-26.1-39.3-26.1-63.2V145.1
				c0-24,9.3-46.4,26.2-63.3c16.9-16.8,39.3-26.1,63.2-26.1h535.2c24,0,46.4,9.3,63.3,26.2c16.8,16.9,26.1,39.3,26.1,63.2v535.2v5h0
				c-1.2,22.1-10.3,42.6-26,58.3c-16.9,16.8-39.3,26.1-63.2,26.1H280.7L280.7,769.7z M757.4,99.2c-37.9,0-75.1,5.8-99.7,15.4
				l-3.2,1.2v3.4v167.2v5h5h90.3h5v-5V160.3c0.8,0,1.7,0,2.6,0c0.9,0,1.8,0,2.6,0v126.2v5h5h90.3h5v-5V119.3v-3.4l-3.2-1.2
				C831.5,104.8,795.2,99.2,757.4,99.2L757.4,99.2z M548.1,99.2c-37.8,0-75.1,5.8-100,15.4l-3.2,1.2v3.4v156.1v3.5l3.3,1.2
				c25.9,9.6,63.3,15.4,99.9,15.4c38.4-0.2,74.6-5.9,99.4-15.7l3.2-1.3v-3.4V119.3v-3.4l-3.2-1.2C622.2,104.8,586,99.2,548.1,99.2
				L548.1,99.2z M544.2,160.3c1.1,0,2.2,0,3.4,0c1.3,0,2.4,0,3.4,0v73.8c-1.2,0.1-2.3,0.1-3.4,0.1h-0.1c-1.2,0-2.3,0-3.3,0V160.3
				L544.2,160.3z M339.7,99.2c-37.8,0-75.1,5.8-100,15.4l-3.2,1.2v3.4v156.1v3.5l3.3,1.2c25.9,9.6,63.3,15.4,99.9,15.4
				c38.3-0.3,74.5-6.1,99.4-15.8l3.2-1.2V275v-67.7v-5h-5h-89.5h-5v5V234c-1.2,0.1-2.3,0.1-3.4,0.1c-1.3,0-2.4,0-3.4,0v-73.9
				c1.1-0.1,2.2-0.1,3.4-0.1c1.3,0,2.4,0,3.4,0v26.9v5h5h89.5h5v-5v-67.8v-3.4l-3.2-1.2C413.8,104.8,377.6,99.2,339.7,99.2
				L339.7,99.2z M339.7,310.5c-37.8,0-75.1,5.8-100,15.4l-3.2,1.2v3.4v155.8v3.5l3.3,1.2c25.9,9.6,63.3,15.4,99.9,15.4
				c38.3-0.3,74.5-5.9,99.4-15.4l3.2-1.2v-3.4v-67.7v-5h-5h-89.5h-5v5v26.7c-1.1,0.1-2.2,0.1-3.4,0.1c-1.3,0-2.4,0-3.4,0v-73.9
				c1,0,2.1,0,3.4,0c1.3,0,2.4,0,3.4,0v26.7v5h5h89.5h5v-5v-67.8v-3.4l-3.2-1.2C413.8,316.1,377.6,310.5,339.7,310.5L339.7,310.5z
				 M757.1,313.8h-97.6h-5v5v178.8v5h5h90.3h5v-5v-53.8h1.3c1.6,0,2.7,0.1,3.9,0.3v53.5v5h5h90.3h5v-5v-75.5v-3.3l-3-1.3
				c-3.1-1.3-6.8-2.5-10.8-3.5c4-1,7.4-2.1,10.4-3.3l3.2-1.3V406v-71.4v-3.4l-3.1-1.3C831.4,319.7,795,313.8,757.1,313.8
				L757.1,313.8z M753.2,364.8h3.9c1.5,0,2.8,0.1,3.9,0.2v26.3c-1.2,0.2-2.5,0.3-3.9,0.3h-3.9V364.8L753.2,364.8z M651.3,314.3h-5
				H556h-5v5v126.4c-0.8,0.1-1.7,0.1-2.6,0.1c-1,0-1.8,0-2.6,0V319.3v-5h-5h-90.3h-5v5v167.2v3.4l3.2,1.2
				c25.3,9.6,62.5,15.4,99.7,15.4c37.5,0,73.8-5.6,99.7-15.4l3.2-1.2v-3.5V319.3V314.3L651.3,314.3z M756.1,521.4
				c-37.3,0-74.2,5.8-98.7,15.4l-3.2,1.2v3.4v101.7v1.3h-0.1v5v47.8v3.5l3.2,1.2c25.2,9.5,61.5,15.1,99.6,15.4
				c37.2,0,74.5-5.7,99.7-15.4l3.2-1.2v-3.4V595.6v-1.3h0.3v-5v-47.8v-3.4l-3.2-1.2c-25.3-9.8-61.5-15.4-99.4-15.4
				C757,521.4,756.6,521.4,756.1,521.4L756.1,521.4z M753.8,578.7c1,0,2.1,0,3.4,0c1.3,0,2.4,0,3.4,0v10.6v1.3h-6.9V578.7
				L753.8,578.7z M753.8,648.2h6.9V660c-1.1,0.1-2.2,0.1-3.4,0.1c-1.3,0-2.4,0-3.4,0v-10.6V648.2L753.8,648.2z M546.9,521.4
				c-37.8,0-73.7,5.6-98.6,15.4l-3.2,1.2v3.4v155.8v3.5l3.3,1.2c25.9,9.6,63.3,15.4,99.9,15.4c38.3-0.3,74.5-5.9,99.4-15.4l3.2-1.2
				v-3.4V541.5v-3.4l-3.2-1.2c-25.3-9.8-61.5-15.4-99.4-15.4C547.9,521.4,547.4,521.4,546.9,521.4L546.9,521.4z M544.7,582.1
				c1,0,2.1,0,3.4,0s2.4,0,3.4,0v73.8c-1.1,0.1-2.2,0.1-3.4,0.1c-1.3,0-2.4,0-3.4,0V582.1L544.7,582.1z M338.2,521.4
				c-37.8,0-73.7,5.6-98.6,15.4l-3.2,1.2v3.4v101.7v5h0.1v1.3v47.8v3.5l3.2,1.2c25.2,9.5,61.5,15.1,99.6,15.4
				c36.9,0,74.2-5.7,99.7-15.4l3.2-1.2v-3.5V595.6v-5h-0.1v-1.3v-47.8v-3.4l-3.2-1.2c-25.3-9.8-61.5-15.4-99.4-15.4
				C339.2,521.4,338.7,521.4,338.2,521.4L338.2,521.4z M336.4,578.7c1,0,2.1,0,3.4,0c1.3,0,2.4,0,3.4,0v10.6v1.3h-6.9V578.7
				L336.4,578.7z M336.4,648.2h6.9V660c-1.1,0.1-2.2,0.1-3.4,0.1c-1.3,0-2.4,0-3.4,0v-10.6V648.2L336.4,648.2z"/>
		</g>
	</g>
</g>
</svg>
