<?xml version="1.0" encoding="utf-8"?>
<!-- Generator: Adobe Illustrator 18.1.1, SVG Export Plug-In . SVG Version: 6.00 Build 0)  -->
<svg version="1.1" id="Layer_1" xmlns="http://www.w3.org/2000/svg" xmlns:xlink="http://www.w3.org/1999/xlink" x="0px" y="0px"
	 viewBox="0 0 808.4 808.4" enable-background="new 0 0 808.4 808.4" xml:space="preserve">
<g>
	<g>
		<g>
			<path fill="#B3B4A1" d="M127.8,806.3c-69.3,0-125.7-56.4-125.7-125.7V127.8C2.1,58.5,58.5,2.1,127.8,2.1h552.9
				c69.2,0,125.6,56.4,125.6,125.7v552.8c0,69.3-56.4,125.7-125.7,125.7H127.8z M127.8,32.4c-25.5,0-49.5,9.9-67.4,27.9
				c-18,18-27.9,41.9-27.9,67.6v552.7c0,25.5,9.9,49.5,27.9,67.4c18,18,41.9,27.9,67.6,27.9h552.9c25.5,0,49.5-9.9,67.4-27.9
				c17.6-17.5,27.4-40.7,27.9-65.5H776V127.8c0-25.5-9.9-49.5-27.9-67.4s-41.9-27.9-67.6-27.9L127.8,32.4L127.8,32.4z"/>
			<path fill="#FFFFFF" d="M680.7,4.1c68.3,0,123.4,55.7,123.4,123.6v552.8c0,68.3-55.4,123.6-123.6,123.6H127.8
				c-68.3,0-123.6-55.4-123.6-123.6V127.8C4.1,59.5,59.5,4.1,127.8,4.1L680.7,4.1 M127.8,778.1h552.9c53.9,0,97.5-43.5,97.5-97.5
				h-0.1V127.8c0-53.9-43.5-97.5-97.5-97.5H127.8c-53.9,0-97.5,43.5-97.5,97.5v552.8C30.4,734.5,73.8,778.1,127.8,778.1 M680.7,0
				H127.8C93.7,0,61.6,13.3,37.4,37.4C13.2,61.6,0,93.6,0,127.8v552.8c0,34.1,13.3,66.2,37.4,90.4c24.2,24.2,56.2,37.4,90.4,37.4
				h552.8c34.1,0,66.2-13.3,90.4-37.4c24.1-24.2,37.4-56.3,37.4-90.4V127.8C808.4,57.3,751.1,0,680.7,0L680.7,0z M127.8,774
				c-25,0-48.4-9.7-66.1-27.3c-17.6-17.6-27.3-41-27.3-66V127.8c0-25,9.7-48.4,27.3-66.1c17.6-17.6,41-27.3,66-27.3h552.8
				c25,0,48.4,9.7,66.1,27.3c17.6,17.6,27.3,41,27.3,66v552.9v4.1h0.1c-1,23.4-10.5,45.3-27.3,62c-17.6,17.6-41,27.3-66,27.3H127.8
				L127.8,774z"/>
		</g>
	</g>
</g>
</svg>
