<?xml version="1.0" encoding="utf-8"?>
<!-- Generator: Adobe Illustrator 18.1.1, SVG Export Plug-In . SVG Version: 6.00 Build 0)  -->
<svg version="1.1" xmlns="http://www.w3.org/2000/svg" xmlns:xlink="http://www.w3.org/1999/xlink" x="0px" y="0px"
	 viewBox="0 0 250 256" enable-background="new 0 0 250 256" xml:space="preserve">
<g id="Layer_1">
</g>
<g id="CATAS">
	<g>
		<path fill="#2D4D85" d="M40,250.1c-18.7,0-34-15.3-34-34v-170c0-18.7,15.3-34,34-34h170c18.7,0,34,15.3,34,34v170
			c0,18.7-15.3,34-34,34H40z"/>
		<path fill="#B3B4A1" d="M210,16.1c16.6,0,30,13.4,30,30v170c0,16.6-13.4,30-30,30H40c-16.6,0-30-13.4-30-30v-170
			c0-16.6,13.4-30,30-30H210 M210,8.1H40c-21,0-38,17-38,38v170c0,21,17,38,38,38h170c21,0,38-17,38-38v-170
			C248,25.2,231,8.1,210,8.1L210,8.1z"/>
	</g>
	<path fill="#FFFFFF" d="M166.1,100h-28V81.6c0-6.9,4.6-8.5,7.8-8.5c3.2,0,19.8,0,19.8,0V42.7l-27.2-0.1
		c-30.2,0-37.1,22.6-37.1,37.1V100H83.9v31.3h17.5c0,40.1,0,88.5,0,88.5h36.8c0,0,0-48.8,0-88.5h24.8L166.1,100z"/>
</g>
<g id="TEXTO_BLANCO">
</g>
<g id="GUIAS">
</g>
</svg>
