<?xml version="1.0" encoding="utf-8"?>
<!-- Generator: Adobe Illustrator 18.1.1, SVG Export Plug-In . SVG Version: 6.00 Build 0)  -->
<svg version="1.1" id="Layer_1" xmlns="http://www.w3.org/2000/svg" xmlns:xlink="http://www.w3.org/1999/xlink" x="0px" y="0px"
	 viewBox="148.3 0 550.7 568.8" enable-background="new 148.3 0 550.7 568.8" xml:space="preserve">
<g>
	<g>
		<path fill="#B3B4A1" d="M344.2,166.3h70.5V128h-70.5v-17.2c2.5-0.4,4-0.4,6-0.4c2.2,0,3.8,0,6,0.4v12.8h63.6V84.8
			c-18.6-7.2-44.5-10.7-69.4-10.7c-25.1,0-51.5,3.6-69.8,10.7v118.9h63.6V166.3z M566.3,195.6V84.8c-18.6-7.2-44.5-10.7-69.4-10.7
			c-25.1,0-51.5,3.6-69.8,10.7v111c18.6,6.9,45,10.7,69.8,10.7C522.2,206.4,548.1,202.8,566.3,195.6z M490.6,169.7v-58.9
			c2.2-0.4,3.8-0.4,6-0.4s3.8,0,6,0.4v58.9c-2.2,0.2-3.8,0.4-6,0.4S492.9,170.1,490.6,169.7z M346.7,312.2h-39.2v-85.5h-64.2v126.9
			h103.4V312.2z M354.8,226.7v126.9h103.4v-41.4H419v-85.5L354.8,226.7L354.8,226.7z M604.3,269v-34c-18.6-7.2-44.5-10.7-69.4-10.7
			c-25.1,0-51.5,3.6-69.8,10.7v110.8c18.6,6.9,45,10.7,69.8,10.7c25.3,0,51.3-3.8,69.6-10.7v-34h-63.6v10.7c-2.2,0.2-4,0.4-6,0.4
			c-2.2,0-3.8,0-6-0.4v-15.2h70.3v-33.8h-70.5v-15.2c2.5-0.4,4-0.4,6-0.4c2.2,0,3.8,0,6,0.4V269H604.3z M216,418.1h28.2v85.5h64.2
			v-85.5h27.8v-41.4H216V418.1z M342.2,385v110.8c18.6,6.9,45,10.7,69.8,10.7c25.1-0.2,51-3.8,69.4-10.7V385
			c-18.6-7.2-44.5-10.7-69.4-10.7C387,374.2,360.6,377.8,342.2,385z M417.9,469.6c-2.2,0.2-4,0.4-6,0.4c-2.2,0-3.8,0-6-0.4v-58.9
			c2.2-0.4,4-0.4,6-0.4c2.2,0,3.8,0,6,0.4V469.6z M490.8,385v72.3h75.7v15.2c-2.2,0.2-4,0.4-6,0.4c-2.2,0-3.8,0-6-0.4v-10.7h-63.8
			v34c18.4,6.9,44.3,10.5,69.6,10.7c24.8,0,51.3-3.8,69.6-10.7v-72.3h-75.4v-15.2c2.5-0.4,4-0.4,6-0.4c2.2,0,3.8,0,6,0.4V419h63.6
			v-34c-18.6-7.2-44.5-10.7-69.4-10.7C535.6,374.2,509.2,377.8,490.8,385z M614,18.1H233.4c-47,0-85.1,38.1-85.1,85.1v380.5
			c0,47,38.1,85.1,85.1,85.1h380.5c47,0,85.1-38.1,85.1-85.1V103.2C699,56.4,661,18.1,614,18.1z M681.1,483.7
			c0,37.2-30,67.1-67.1,67.1H233.4c-37.2,0-67.1-30-67.1-67.1V103.2c0-37.2,30-67.1,67.1-67.1h380.5c37.2,0,67.1,30,67.1,67.1v380.5
			H681.1z"/>
	</g>
</g>
</svg>
