<?xml version="1.0" encoding="utf-8"?>
<!-- Generator: Adobe Illustrator 18.1.1, SVG Export Plug-In . SVG Version: 6.00 Build 0)  -->
<svg version="1.1" id="Layer_1" xmlns="http://www.w3.org/2000/svg" xmlns:xlink="http://www.w3.org/1999/xlink" x="0px" y="0px"
	 viewBox="156 20.5 784.5 784.5" enable-background="new 156 20.5 784.5 784.5" xml:space="preserve">
<g>
	<g>
		<g>
			<path fill="#B3B4A1" d="M280.7,802.5c-67.4,0-122.2-54.8-122.2-122.2V145.1C158.5,77.8,213.3,23,280.7,23H816
				c67.3,0,122,54.8,122,122.2v535.2c0,67.4-54.8,122.2-122.2,122.2H280.7z M280.7,53.3c-24.6,0-47.7,9.5-65,26.8
				c-17.3,17.3-26.9,40.4-26.9,65v535.2c0,24.6,9.5,47.7,26.8,65c17.3,17.3,40.4,26.9,65,26.9H816c24.6,0,47.7-9.5,65-26.8
				c16.8-16.7,26.2-38.9,26.9-62.5h-0.1V145.1c0-24.6-9.5-47.7-26.8-65c-17.3-17.3-40.4-26.9-65-26.9H280.7z M740.5,714.9
				c-37.8-0.3-73.8-5.8-98.7-15.2l-1.6-0.6V647h94.7v15.4c1.9,0.2,3.6,0.2,5.9,0.2c2,0,3.9-0.2,5.9-0.3v-16.6H640.2V539.8l1.6-0.6
				c24.7-9.7,60.4-15.2,97.8-15.2l1.4,0c37.6,0,73.5,5.5,98.5,15.2l1.6,0.6v52h-94.5v-15.4c-1.9-0.2-3.6-0.2-5.9-0.2
				c-2.1,0-3.8,0-5.9,0.2v16.7h106v105.9l-1.6,0.6C814,709.2,777.1,714.9,740.5,714.9L740.5,714.9z M531.9,714.9
				c-36.4,0-73.4-5.7-99-15.2l-1.6-0.6V539.8l1.6-0.6c24.4-9.5,60.9-15.2,97.7-15.2l1.4,0c37.6,0,73.5,5.5,98.5,15.2l1.6,0.6v159.3
				l-1.6,0.6C605.4,709,569.5,714.6,531.9,714.9L531.9,714.9L531.9,714.9z M525.8,658.3c1.9,0.2,3.6,0.2,5.9,0.2
				c2,0,3.9-0.2,5.9-0.3v-78.4c-1.9-0.2-3.6-0.2-5.9-0.2c-2.1,0-3.9,0-5.9,0.2V658.3z M293.4,710.8V590.5h-39.7v-63.2h174.1v63.2
				h-39.1v120.3H293.4z M704.8,503.9c-36.3,0-73.4-5.7-99-15.2l-1.6-0.6V328.8l1.6-0.6c24.6-9.5,61.6-15.2,99.1-15.2
				c37.6,0,73.5,5.5,98.5,15.2l1.6,0.6v52h-94.5v-15.4c-1.9-0.2-3.6-0.2-5.9-0.2c-2.1,0-3.8,0-5.9,0.2v16.7h99.2v52.5h-98.9v16.7
				c1.9,0.2,3.6,0.2,5.9,0.2c2,0,3.9-0.2,5.9-0.3V436h94.5v52l-1.6,0.6C778.3,498.2,741.4,503.9,704.8,503.9z M449,499.8V316.3h95.3
				v120.3h55.1v63.2H449z M292.1,499.8V316.3h95.3v120.3h55.1v63.2H292.1z M651.3,292.9c-36.4,0-73.4-5.7-99-15.2l-1.6-0.6V117.6
				l1.6-0.6c24.6-9.5,61.6-15.2,99.1-15.2c37.6,0,73.5,5.5,98.5,15.2l1.6,0.6v159.2l-1.6,0.6C725.3,287.1,689.4,292.8,651.3,292.9
				L651.3,292.9z M645,236.5c2,0.2,3.7,0.2,5.9,0.2c2.2,0,3.9-0.1,5.9-0.3V158c-1.9-0.2-3.6-0.2-5.9-0.2s-4,0-5.9,0.2V236.5z
				 M344.6,289V117.6l1.6-0.6c24.6-9.5,61.6-15.2,99.1-15.2c37.6,0,73.5,5.5,98.5,15.2l1.6,0.6v58.8h-94.5V158
				c-1.9-0.2-3.6-0.2-5.9-0.2c-2.1,0-3.8,0-5.9,0.2v19.5h99.2v58.9h-99.2V289H344.6z"/>
			<path fill="#FFFFE5" d="M816,25.5c66.1,0,119.5,53.9,119.5,119.7v535.2c0,66.1-53.6,119.7-119.7,119.7H280.7
				C214.6,800,161,746.4,161,680.3V145.1C161,79,214.6,25.5,280.7,25.5H816 M280.7,774.7H816c52.2,0,94.4-42.1,94.4-94.4h-0.1V145.1
				c0-52.2-42.1-94.4-94.4-94.4H280.7c-52.2,0-94.4,42.1-94.4,94.4v535.2C186.3,732.5,228.4,774.7,280.7,774.7 M651.3,104.2
				c35,0,71.4,4.9,97.6,15v155.8c-25.6,10.1-62,15.2-97.6,15.3c-34.9,0-72-5.3-98.2-15V119.3C578.9,109.3,616,104.2,651.3,104.2
				 M650.9,239.2C650.9,239.2,650.9,239.2,650.9,239.2c3.1,0,5.3-0.3,8.4-0.6v-82.8c-3.1-0.6-5.3-0.6-8.4-0.6c-3.1,0-5.3,0-8.4,0.6
				v82.8C645.7,239.2,647.8,239.2,650.9,239.2 M445.3,104.2c35,0,71.4,4.9,97.6,15v54.6h-89.5v-18c-3.1-0.6-5.3-0.6-8.4-0.6
				c-2.8,0-4.9,0-8.4,0.6V180h99.2v53.9h-99.2h0h0v52.6h-89.5V119.3C372.8,109.3,410,104.2,445.3,104.2 M704.8,315.5
				c35,0,71.4,4.9,97.6,15v47.8h-89.5v-15c-3.1-0.6-5.3-0.6-8.4-0.6c-2.8,0-4.9,0-8.4,0.6v21.4h99.2v47.5h-98.9v21.4
				c3.1,0.6,5.3,0.6,8.4,0.6c2.8,0,5.3-0.3,8.4-0.6v-15h89.5v47.8c-25.7,9.7-62.3,15-97.9,15c-34.9,0-72-5.3-98.2-15V330.5
				C632.3,320.5,669.5,315.5,704.8,315.5 M451.5,318.8l90.3,0v120.3h55.1v58.2H451.5V318.8 M384.9,318.8v120.3h55.1v58.2H294.6
				V318.8H384.9 M739.6,526.4c0.5,0,1,0,1.4,0c35,0,71.4,4.9,97.6,15v47.8h-89.5v-15c-3.1-0.6-5.3-0.6-8.4-0.6c-2.8,0-4.9,0-8.4,0.6
				v21.4h106v101.7c-25.7,9.7-63,15-97.9,15c-35.6-0.3-72-5.3-97.9-15v-47.8h89.7v15c3.1,0.6,5.3,0.6,8.4,0.6c2.8,0,5.3-0.3,8.4-0.6
				v-21.4H642.7V541.5C668.3,531.5,704.8,526.4,739.6,526.4 M530.5,526.4c0.5,0,1,0,1.4,0c35,0,71.4,4.9,97.6,15v155.8
				c-25.9,9.7-62.3,14.8-97.6,15c-34.9,0-72-5.3-98.2-15V541.5C459.3,531.5,495.8,526.4,530.5,526.4 M531.8,661
				c2.8,0,5.3-0.3,8.4-0.6v-82.8c-3.1-0.6-5.3-0.6-8.4-0.6c-2.8,0-5.3,0-8.4,0.6v82.8C526.4,661,528.7,661,531.8,661 M425.3,529.8
				V588h-39.1v120.3h-90.3V588h-39.7v-58.2H425.3 M816,20.5H280.7c-33.3,0-64.6,13-88.2,36.5C169,80.5,156,111.8,156,145.1v535.2
				c0,33.3,13,64.6,36.5,88.2c23.6,23.6,54.9,36.5,88.2,36.5h535.2c33.3,0,64.6-13,88.2-36.5c23.6-23.6,36.5-54.9,36.5-88.2V145.1
				C940.6,76.4,884.7,20.5,816,20.5L816,20.5z M280.7,769.7c-24,0-46.4-9.3-63.3-26.2c-16.8-16.9-26.1-39.3-26.1-63.2V145.1
				c0-24,9.3-46.4,26.2-63.3c16.9-16.8,39.3-26.1,63.2-26.1h535.2c24,0,46.4,9.3,63.3,26.2c16.8,16.9,26.1,39.3,26.1,63.2v535.2v5h0
				c-1.2,22.1-10.3,42.6-26,58.3c-16.9,16.8-39.3,26.1-63.2,26.1H280.7L280.7,769.7z M651.3,99.2c-37.8,0-75.1,5.8-100,15.4
				l-3.2,1.2v3.4v156.1v3.5l3.3,1.2c25.9,9.6,63.3,15.4,99.9,15.4c38.4-0.2,74.6-5.9,99.4-15.7l3.2-1.3v-3.4V119.3v-3.4l-3.2-1.2
				C725.5,104.8,689.2,99.2,651.3,99.2L651.3,99.2z M647.5,160.3c1,0,2.1,0,3.4,0s2.4,0,3.4,0v73.8c-1.1,0.1-2.2,0.1-3.4,0.1h0
				c-1.3,0-2.4,0-3.4,0V160.3L647.5,160.3z M445.3,99.2c-37.8,0-75.1,5.8-100,15.4l-3.2,1.2v3.4v167.2v5h5h89.5h5v-5v-47.6h94.2h5
				v-5V180v-1.2h2.2h5v-5v-54.6v-3.4l-3.2-1.2C519.4,104.8,483.2,99.2,445.3,99.2L445.3,99.2z M441.6,160.3c1.1-0.1,2.2-0.1,3.4-0.1
				c1.3,0,2.4,0,3.4,0v13.5v1.2h-6.9V160.3L441.6,160.3z M704.8,310.5c-37.8,0-75.1,5.8-100,15.4l-3.2,1.2v3.4v103.6h-4.7h-50.1
				V318.8v-5h-5l-90.3,0h-5v5v178.5v5h5h145.4h5v-5v-7.4l3,1.1c25.9,9.6,63.3,15.4,99.9,15.4c36.9,0,74.1-5.7,99.7-15.4l3.2-1.2
				v-3.5v-47.8v-5h-5h-2.5v-1.3v-47.5v-1.3h2.2h5v-5v-47.8v-3.4l-3.2-1.2C778.9,316.1,742.7,310.5,704.8,310.5L704.8,310.5z
				 M701,367.8c1.1-0.1,2.2-0.1,3.4-0.1c1.3,0,2.4,0,3.4,0v10.6v1.3H701V367.8L701,367.8z M701.3,437.2h6.9v1.3V449
				c-1.2,0.1-2.3,0.1-3.4,0.1c-1.3,0-2.4,0-3.4,0V437.2L701.3,437.2z M389.9,313.8h-5h-90.3h-5v5v178.5v5h5h145.4h5v-5v-58.2v-5h-5
				h-50.1V318.8V313.8L389.9,313.8z M739.6,521.4c-37.7,0-73.7,5.6-98.7,15.4l-3.2,1.2v3.4v101.7v1.3h-0.1v5v47.8v3.5l3.2,1.2
				c25.2,9.5,61.5,15.1,99.6,15.4c36.9,0,74.2-5.7,99.7-15.4l3.2-1.2v-3.5V595.6v-1.3h0.3v-5v-47.8v-3.4l-3.2-1.2
				c-25.3-9.8-61.5-15.4-99.4-15.4C740.6,521.4,740.1,521.4,739.6,521.4L739.6,521.4z M737.3,578.7c1.1-0.1,2.2-0.1,3.4-0.1
				c1.3,0,2.4,0,3.4,0v10.6v1.3h-6.9V578.7L737.3,578.7z M737.3,648.2h6.9V660c-1.2,0.1-2.3,0.1-3.4,0.1c-1.3,0-2.4,0-3.4,0v-10.6
				V648.2L737.3,648.2z M530.5,521.4c-37.6,0-73.6,5.6-98.6,15.4l-1.6,0.6v-7.7v-5h-5H256.2h-5v5V588v5h5h34.7v115.3v5h5h90.3h5v-5
				V593h34.1h3.4v104.3v3.5l3.3,1.2c25.9,9.6,63.3,15.4,99.9,15.4c37.9-0.3,74.1-5.9,99.4-15.4l3.2-1.2v-3.5V541.5v-3.4l-3.2-1.2
				c-25.3-9.8-61.5-15.4-99.4-15.4C531.5,521.4,531,521.4,530.5,521.4L530.5,521.4z M528.3,582.1c1.1,0,2.2,0,3.4,0
				c1.3,0,2.4,0,3.4,0v73.8c-1.2,0.1-2.3,0.1-3.4,0.1c-1.3,0-2.4,0-3.4,0V582.1L528.3,582.1z"/>
		</g>
	</g>
</g>
</svg>
