<?xml version="1.0" encoding="utf-8"?>
<!-- Generator: Adobe Illustrator 18.1.1, SVG Export Plug-In . SVG Version: 6.00 Build 0)  -->
<svg version="1.1" xmlns="http://www.w3.org/2000/svg" xmlns:xlink="http://www.w3.org/1999/xlink" x="0px" y="0px"
	 viewBox="0 0 250 256" enable-background="new 0 0 250 256" xml:space="preserve">
<g id="Layer_1">
</g>
<g id="CATAS">
	<g>
		<g>
			<path fill="#B3B4A1" d="M210,16.1c16.6,0,30,13.4,30,30v170c0,16.6-13.4,30-30,30H40c-16.6,0-30-13.4-30-30v-170
				c0-16.6,13.4-30,30-30H210 M210,8.1H40c-21,0-38,17-38,38v170c0,21,17,38,38,38h170c21,0,38-17,38-38v-170
				C248,25.2,231,8.1,210,8.1L210,8.1z"/>
		</g>
	</g>
	<g>
		<polygon fill-rule="evenodd" clip-rule="evenodd" fill="#B3B4A1" points="196.7,107.6 196.7,123.5 212.6,123.5 212.6,139.1 
			196.7,139.1 196.7,155 181.1,155 181.1,139.1 165.1,139.1 165.1,123.5 181.1,123.5 181.1,107.6 		"/>
		<path fill-rule="evenodd" clip-rule="evenodd" fill="#B3B4A1" d="M53.3,170.2c-21.4-21.4-21.1-57.5,0.5-78.7
			C69.8,75.9,93,72,112.6,79.8l8.2,4l8.4,5.8l-14.5,14.4l-5-3.5c-12.7-7.9-30-6.1-41.3,5.1c-13.6,13.5-13.7,37-0.3,50.7
			c13.4,13.7,36.8,13.9,49.4,0.2c3.5-3.8,6.7-8.7,7.7-13.7l0.3-1.6H93.8v-17.5h50.6l0.6,4.1l-0.2,11.9c-1.2,11.7-5.4,22.5-13.3,30.9
			C111.7,191.8,74.7,191.7,53.3,170.2z"/>
	</g>
</g>
<g id="TEXTO_BLANCO">
</g>
<g id="GUIAS">
</g>
</svg>
