<?xml version="1.0" encoding="utf-8"?>
<!-- Generator: Adobe Illustrator 18.1.1, SVG Export Plug-In . SVG Version: 6.00 Build 0)  -->
<svg version="1.1" id="Layer_1" xmlns="http://www.w3.org/2000/svg" xmlns:xlink="http://www.w3.org/1999/xlink" x="0px" y="0px"
	 viewBox="156 20.5 784.5 784.5" enable-background="new 156 20.5 784.5 784.5" xml:space="preserve">
<g>
	<g>
		<g>
			<path fill="#B3B4A1" d="M280.7,802.5c-67.4,0-122.2-54.8-122.2-122.2V145.1C158.5,77.8,213.3,23,280.7,23H816
				c67.3,0,122,54.8,122,122.2v535.2c0,67.4-54.8,122.2-122.2,122.2H280.7z M280.7,53.3c-24.6,0-47.7,9.5-65,26.8
				c-17.3,17.3-26.9,40.4-26.9,65v535.2c0,24.6,9.5,47.7,26.8,65c17.3,17.3,40.4,26.9,65,26.9H816c24.6,0,47.7-9.5,65-26.8
				c16.8-16.7,26.2-38.9,26.9-62.5h-0.1V145.1c0-24.6-9.5-47.7-26.8-65c-17.3-17.3-40.4-26.9-65-26.9H280.7z M593.8,730.6
				c-32.3,0-65.1-5.7-87.6-15.2l-1.5-0.6V555.6l1.5-0.7c21.7-9.7,53.2-15.3,86.4-15.3l1.3,0c33.3,0,65,5.6,86.9,15.3l1.5,0.7v159.1
				l-1.5,0.6C658.8,724.8,627.1,730.3,593.8,730.6L593.8,730.6L593.8,730.6z M588.3,674.1c1.6,0.2,3.1,0.2,5.1,0.2
				c1.7,0,3.3-0.1,5.1-0.3v-78.5c-1.6-0.2-3.1-0.2-5.1-0.2c-1.8,0-3.4,0-5.1,0.2V674.1z M319.3,730.6c-32.3,0-65.1-5.7-87.6-15.2
				l-1.5-0.6V555.6l1.5-0.7c21.7-9.7,53.2-15.3,86.4-15.3l1.3,0c33.3,0,65,5.6,86.9,15.3l1.5,0.7v71.8h-83.8v-31.6
				c-1.6-0.2-3.1-0.2-5.1-0.2c-2,0-3.4,0-5.1,0.2v78.6c1.6,0.2,3.1,0.2,5.1,0.2c1.9,0,3.4-0.1,5.1-0.3v-31.3h83.8v71.8l-1.5,0.6
				C384.3,724.8,352.6,730.3,319.3,730.6L319.3,730.6L319.3,730.6z M781.9,726.8V595.8c-1.4-0.2-2.7-0.2-4.4-0.2
				c-1.7,0-2.8,0-4.1,0.2v131.1h-84.6V555.6l1.5-0.7c21.1-9.6,53.3-15.3,86-15.3l1.3,0c33.3,0,65,5.6,86.9,15.3l1.5,0.7v171.2H781.9
				z M413.9,726.8V543.1h84.6v183.8H413.9z M561.1,538.4l19.1-38.3h-41.8v-58c-2.1-0.7-3.6-0.8-6.4-0.8h-3.8v58.9h-95.7V316.5h100.1
				c37.6,0,73.6,5.8,98.8,15.9l1.6,0.6v74.8l-1.6,0.6c-5.7,2.3-12.8,3.9-22.1,5.5c9.2,1.6,16.7,3.4,22.5,5.9l1.5,0.6l0.1,64.3h8.2
				v-156l1.6-0.6c24.3-9.5,61.2-15.2,98.8-15.2c37.5,0,73.5,5.5,98.8,15.2l1.6,0.6v171.4H748V454h-12.3v46.3h-94v-3.1l-22.5,41.2
				H561.1z M747.7,401.4v-36.3c-1.9-0.2-3.9-0.2-5.9-0.2c-2.1,0-4.1,0-6.4,0.2v36.2H747.7z M532.9,394.1c2.4,0,4.4-0.3,6.4-0.8
				v-30.4c-1.8-0.4-3.7-0.6-6.4-0.6h-6.4v31.8H532.9z M291.9,499.8V379.6h-39.4v-63.2h174.1v63.2h-39.4v120.3H291.9z M570.7,293.1
				c-32.6,0-65.2-5.7-87.2-15.3l-1.5-0.7V105.5h84.6v131.3c1.3,0.2,2.4,0.2,4.1,0.2c1.6,0,2.9-0.1,4.4-0.3V105.5h84.6v171.2
				l-1.5,0.7C635.7,287.4,603.9,293.1,570.7,293.1z M754.1,292.9c-33.3-0.3-65-5.9-86.9-15.3l-1.5-0.6v-52.2h83.8v15.4
				c1.6,0.2,3.1,0.2,5.1,0.2c1.7,0,3.3-0.1,5.1-0.3l-0.1-16.8h-94.1V117.5l1.5-0.7c22.1-9.7,54.1-15.3,87.6-15.3
				c33.3,0,65,5.6,86.9,15.3l1.5,0.7v51.9h-83.8V154c-1.6-0.2-3.1-0.2-5.1-0.2c-1.8,0-3.3,0-5.1,0.2v16.7h93.5v105.8l-1.5,0.7
				C819.4,287.1,786.9,292.9,754.1,292.9L754.1,292.9z M254,289.3V105.5h84.6v183.8H254z M345,289V105.5h84.6v120.3h48.5V289H345z"
				/>
			<path fill="#FFFFE5" d="M816,25.5c66.1,0,119.5,53.9,119.5,119.7v535.2c0,66.1-53.6,119.7-119.7,119.7H280.7
				C214.6,800,161,746.4,161,680.3V145.1C161,79,214.6,25.5,280.7,25.5H816 M280.7,774.7H816c52.2,0,94.4-42.1,94.4-94.4h-0.1V145.1
				c0-52.2-42.1-94.4-94.4-94.4H280.7c-52.2,0-94.4,42.1-94.4,94.4v535.2C186.3,732.5,228.4,774.7,280.7,774.7 M754.6,104.1
				c30.8,0,63,4.9,85.9,15v47.8h-78.8v-15c-2.8-0.6-4.8-0.6-7.6-0.6c-2.5,0-4.5,0-7.6,0.6v21.4h93.5V275
				c-22.4,10.1-55.4,15.5-85.9,15.5c-31.2-0.3-63.3-5.3-85.9-15v-48.1H747v15c2.8,0.6,4.8,0.6,7.6,0.6c2.5,0,4.8-0.3,7.6-0.6
				l-0.1-21.5h-94.1V119.1C690.7,109.1,723.3,104.1,754.6,104.1 M657.2,108v167.1c-23.5,10.4-55.7,15.5-86.5,15.5
				c-31.1,0-63.9-5.3-86.2-15V108h79.6V239c2.5,0.6,4.1,0.6,6.6,0.6c2.5,0,4.4-0.3,6.9-0.6V108H657.2 M427.1,108v120.3h48.5v58.2
				H347.5V108H427.1 M336.1,108v178.8h-79.6V108H336.1 M742,315.5c34.9,0,71.4,4.9,97.9,15v167.2h-89.5v-46.3h-17.3v46.3h-89v-10.4
				V330.5C669.6,320.5,706.7,315.5,742,315.5 M732.9,403.9h17.3V363h0.4c-2.8-0.6-5.8-0.6-8.9-0.6c-2.8,0-5.3,0-8.9,0.6V403.9
				 M424,318.8v58.2h-39.4v120.3h-90.3V377.1H255v-58.2H424 M532.6,319c36.6,0,72.7,5.6,97.9,15.8v71.4c-8.9,3.5-21.8,5.6-38.1,7.9
				c16,2.1,29.5,4.4,38.4,8.2l0.1,65.1h13.2l-26.4,48.5h-52.6l19.1-38.3h-43.3v-57.2c-3.5-1.3-5.3-1.5-8.9-1.5h-6.3v58.9H435V319
				H532.6 M524,396.6h8.9c3.5,0,6.3-0.6,8.9-1.5v-34c-2.8-1-5.3-1.3-8.9-1.3H524V396.6 M776.2,542.2c0.4,0,0.8,0,1.3,0
				c30.8,0,63,4.9,85.9,15v167.1h-79V593.7c-2.5-0.6-4.4-0.6-6.9-0.6c-2.5,0-4.1,0-6.6,0.6v130.7h-79.6V557.2
				C713.3,547.3,745.8,542.2,776.2,542.2 M592.5,542.2c0.4,0,0.8,0,1.3,0c30.8,0,63,4.9,85.9,15v155.8c-22.6,9.7-54.7,14.8-85.9,15
				c-30.9,0-63.7-5.3-86.6-15V557.2C529.5,547.3,561.7,542.2,592.5,542.2 M593.4,676.8c2.5,0,4.8-0.3,7.6-0.6v-82.8
				c-2.8-0.6-4.8-0.6-7.6-0.6c-2.5,0-4.8,0-7.6,0.6v82.8C588.6,676.8,590.6,676.8,593.4,676.8 M318,542.2c0.4,0,0.8,0,1.3,0
				c30.8,0,63,4.9,85.9,15v67.7h-78.8v-31.2c-2.8-0.6-4.8-0.6-7.6-0.6c-2.8,0-4.5,0-7.6,0.6v82.8c2.8,0.6,4.8,0.6,7.6,0.6
				c2.8,0,4.8-0.3,7.6-0.6v-31.1h78.8v67.7c-22.6,9.7-54.7,14.8-85.9,15c-30.9,0-63.7-5.3-86.6-15V557.2
				C255,547.3,287.1,542.2,318,542.2 M496,545.6v178.8h-79.6V545.6H496 M816,20.5H280.7c-33.3,0-64.6,13-88.2,36.5
				C169,80.5,156,111.8,156,145.1v535.2c0,33.3,13,64.6,36.5,88.2c23.6,23.6,54.9,36.5,88.2,36.5h535.2c33.3,0,64.6-13,88.2-36.5
				c23.6-23.6,36.5-54.9,36.5-88.2V145.1C940.6,76.4,884.7,20.5,816,20.5L816,20.5z M280.7,769.7c-24,0-46.4-9.3-63.3-26.2
				c-16.8-16.9-26.1-39.3-26.1-63.2V145.1c0-24,9.3-46.4,26.2-63.3c16.9-16.8,39.3-26.1,63.2-26.1h535.2c24,0,46.4,9.3,63.3,26.2
				c16.8,16.9,26.1,39.3,26.1,63.2v535.2v5h0c-1.2,22.1-10.3,42.6-26,58.3c-16.9,16.8-39.3,26.1-63.2,26.1H280.7L280.7,769.7z
				 M754.6,99.1c-33.9,0-66.2,5.6-88.6,15.5l-3,1.3v3.3v101.7v5h0.3v1.5v48.1v3.3l3,1.3c22.2,9.5,54.2,15.2,87.9,15.5
				c33.1,0,66-5.9,88-15.9l2.9-1.3V275V173.3v-1.3h0.4v-5v-47.8v-3.3l-3-1.3C820.2,104.7,788.2,99.1,754.6,99.1L754.6,99.1z
				 M751.5,156.4c0.8,0,1.6,0,2.6,0c1,0,1.8,0,2.6,0v10.6v1.3h-5.2V156.4L751.5,156.4z M752,225.8h5.1l0.1,12
				c-0.9,0.1-1.7,0.1-2.6,0.1c-1,0-1.8,0-2.6,0v-10.6V225.8L752,225.8z M662.2,103h-5h-79.6h-5v5v126.4c-0.6,0-1.2,0.1-1.9,0.1
				c-0.6,0-1.1,0-1.6,0V108v-5h-5h-79.6h-5v5v115.3h-3.9h-43.5V108v-5h-5h-79.6h-5v5v178.5v5h5h128.1h5v-5v-7.2l1.9,0.8
				c22.3,9.7,55.3,15.5,88.2,15.5c33.5,0,65.7-5.8,88.5-15.9l3-1.3v-3.3V108V103L662.2,103z M341.1,103h-5h-79.6h-5v5v178.8v5h5
				h79.6h5v-5V108V103L341.1,103z M742,310.5c-37.9,0-75.1,5.8-99.7,15.4l-3.2,1.2v3.4v151.8h-3.2l-0.1-60.1l0-3.3l-3-1.3
				c-3.2-1.4-6.8-2.5-10.9-3.6c4-1,7.4-2,10.5-3.2l3.2-1.3v-3.4v-71.4v-3.4l-3.1-1.3c-25.5-10.2-61.8-16.1-99.8-16.1H435h-5v5v178.8
				v5h5h90.7h5v-5v-53.9h1.3c1.6,0,2.7,0.1,3.9,0.3v53.5v5h5h35.2l-15.5,31l-2.8,5.6c-20.2,2.5-38.5,7.1-52.7,13.4l-3,1.3v3.2v155.8
				v3.3l3.1,1.3c22.8,9.7,56,15.4,88.6,15.4c33.7-0.3,65.7-5.9,87.9-15.5l3-1.3v-3.3V557.2V554l-3-1.3c-15.9-7-36.9-11.9-59.8-14.1
				l0.1-0.3l19.3-35.5h2.7h89h5v-5v-41.3h7.3v41.3v5h5h89.5h5v-5V330.5v-3.4l-3.2-1.2C816.2,316.1,779.9,310.5,742,310.5L742,310.5z
				 M529,364.8h3.9c1.5,0,2.8,0.1,3.9,0.2v26.3c-1.2,0.2-2.5,0.3-3.9,0.3H529V364.8L529,364.8z M737.9,367.5
				c1.3-0.1,2.5-0.1,3.9-0.1c1.2,0,2.3,0,3.4,0v31.5h-7.3V367.5L737.9,367.5z M590.8,597.9c0.8,0,1.7,0,2.6,0c1,0,1.8,0,2.6,0v73.8
				c-0.9,0.1-1.7,0.1-2.6,0.1c-1,0-1.8,0-2.6,0V597.9L590.8,597.9z M429,313.8h-5H255h-5v5v58.2v5h5h34.4v115.3v5h5h90.3h5v-5V382.1
				H424h5v-5v-58.2V313.8L429,313.8z M776.2,537.2c-33.1,0-65.6,5.8-87,15.5l-2.9,1.3v3.2v167.1v5h5h79.6h5v-5V598.1
				c0.5,0,1,0,1.6,0c0.7,0,1.3,0,1.9,0v126.2v5h5h79h5v-5V557.2V554l-3-1.3c-22.3-9.8-54.3-15.5-88-15.5
				C777.1,537.2,776.7,537.2,776.2,537.2L776.2,537.2z M318,537.2c-33.5,0-65.4,5.6-87.4,15.5l-3,1.3v3.2v155.8v3.3l3.1,1.3
				c22.8,9.7,56,15.4,88.6,15.4c33.7-0.3,65.7-5.9,87.9-15.5l3-1.3v-3.3v-67.7v-5h-5h-78.8h-5v5V672c-0.8,0.1-1.7,0.1-2.6,0.1
				c-1,0-1.8,0-2.6,0v-73.9c0.8,0,1.6,0,2.6,0c1,0,1.8,0,2.6,0v26.8v5h5h78.8h5v-5v-67.7V554l-3-1.3c-22.3-9.8-54.3-15.5-88-15.5
				C318.9,537.2,318.4,537.2,318,537.2L318,537.2z M501,540.6h-5h-79.6h-5v5v178.8v5h5H496h5v-5V545.6V540.6L501,540.6z"/>
		</g>
	</g>
</g>
</svg>
