<?xml version="1.0" encoding="utf-8"?>
<!-- Generator: Adobe Illustrator 18.1.1, SVG Export Plug-In . SVG Version: 6.00 Build 0)  -->
<svg version="1.1" id="Layer_1" xmlns="http://www.w3.org/2000/svg" xmlns:xlink="http://www.w3.org/1999/xlink" x="0px" y="0px"
	 viewBox="148.3 0 550.7 568.8" enable-background="new 148.3 0 550.7 568.8" xml:space="preserve">
<g>
	<g>
		<path fill="#B3B4A1" d="M272.8,76.8h-56.6v127.1h56.6V76.8z M372,162.3h-34.5V76.8h-56.6v126.9H372V162.3z M501.1,195.6V76.8
			h-56.6v93.1c-1.8,0.2-3.1,0.4-4.9,0.4s-2.9,0-4.7-0.4V76.8h-56.6v119.1c15.9,6.9,39.2,10.7,61.3,10.7
			C461.5,206.6,484.4,203,501.1,195.6z M575.7,172.3c-2,0.2-3.6,0.4-5.4,0.4c-2,0-3.4,0-5.4-0.4v-10.7h-56v34.2
			c16.1,6.9,38.9,10.5,61.1,10.7c21.7,0,45.2-3.8,61.1-11v-72.3h-66.5V108c2.2-0.4,3.6-0.4,5.4-0.4c2,0,3.4,0,5.4,0.4v10.7h56v-34
			C615.1,77.5,592.2,74,570.3,74c-22.2,0-45.4,3.6-61.6,10.7V157h66.9L575.7,172.3L575.7,172.3z M243.1,353.6h64.2v-85.5h28v-41.4
			H215.1v41.4h28V353.6z M482.3,300.2c-6.3-2.7-15.9-4.3-27.3-5.8c11.6-1.6,20.8-3.1,27.1-5.6V238c-17.9-7.2-43.6-11.2-69.6-11.2
			h-69.4v127.1h64.5V312h4.5c2.5,0,3.8,0.2,6.3,1.1v40.7h30.8L435.6,381H473l18.8-34.5h-9.4L482.3,300.2L482.3,300.2z M419,280.9
			c-1.8,0.7-3.8,1.1-6.3,1.1h-6.3v-26.2h6.3c2.5,0,4.3,0.2,6.3,0.9V280.9z M631,353.9V235c-18.8-7.2-44.8-10.7-69.6-10.7
			c-25.1,0-51.5,3.6-69.6,10.7v111.5v7.4h63.3V321h12.3v32.9H631z M567.2,258.1v29.1h-12.3v-29.1c2.5-0.4,4.3-0.4,6.3-0.4
			c2.2,0,4.3,0,6.3,0.4H567.2z M199.2,396.2V507c16.3,6.9,39.6,10.7,61.6,10.7c22.2-0.2,45-3.8,61.1-10.7v-48.1h-56V481
			c-2,0.2-3.4,0.4-5.4,0.4s-3.4,0-5.4-0.4v-58.9c2.2-0.4,3.4-0.4,5.4-0.4s3.4,0,5.4,0.4v22.2h56v-48.1
			c-16.3-7.2-39.2-10.7-61.1-10.7C238.6,385.4,215.3,389,199.2,396.2z M329.9,515h56.6V387.9h-56.6L329.9,515L329.9,515z
			 M394.4,396.2V507c16.3,6.9,39.6,10.7,61.6,10.7c22.2-0.2,45-3.8,61.1-10.7V396.2c-16.3-7.2-39.2-10.7-61.1-10.7
			C433.8,385.4,410.5,389,394.4,396.2z M461.1,480.8c-2,0.2-3.6,0.4-5.4,0.4c-2,0-3.4,0-5.4-0.4v-58.9c2-0.4,3.6-0.4,5.4-0.4
			c2,0,3.4,0,5.4,0.4V480.8z M525.3,396.2V515h56.6v-92.9c1.8-0.4,2.9-0.4,4.7-0.4s3.1,0,4.9,0.4V515h56.2V396.2
			c-16.3-7.2-39.2-10.7-61.1-10.7C564.7,385.4,541.2,389,525.3,396.2z M614,18.1H233.4c-47,0-85.1,38.1-85.1,85.1v380.5
			c0,47,38.1,85.1,85.1,85.1h380.5c47,0,85.1-38.1,85.1-85.1V103.2C699,56.4,661,18.1,614,18.1z M681.1,483.7
			c0,37.2-30,67.1-67.1,67.1H233.4c-37.2,0-67.1-30-67.1-67.1V103.2c0-37.2,30-67.1,67.1-67.1h380.5c37.2,0,67.1,30,67.1,67.1v380.5
			H681.1z"/>
	</g>
</g>
</svg>
