<?xml version="1.0" encoding="utf-8"?>
<!-- Generator: Adobe Illustrator 18.1.1, SVG Export Plug-In . SVG Version: 6.00 Build 0)  -->
<svg version="1.1" xmlns="http://www.w3.org/2000/svg" xmlns:xlink="http://www.w3.org/1999/xlink" x="0px" y="0px"
	 viewBox="0 0 250 256" enable-background="new 0 0 250 256" xml:space="preserve">
<g id="Layer_1">
</g>
<g id="CATAS">
	<g>
		<g>
			<path fill="#B3B4A1" d="M210,16.1c16.6,0,30,13.4,30,30v170c0,16.6-13.4,30-30,30H40c-16.6,0-30-13.4-30-30v-170
				c0-16.6,13.4-30,30-30H210 M210,8.1H40c-21,0-38,17-38,38v170c0,21,17,38,38,38h170c21,0,38-17,38-38v-170
				C248,25.2,231,8.1,210,8.1L210,8.1z"/>
		</g>
	</g>
	<path fill="#B3B4A1" d="M37.4,183.5c0-34.8,0-69.5,0-104.3c2.3-6.5,7.2-8.3,13.7-8.3c49.5,0.1,99,0.1,148.5,0.1
		c9.1,0,12.8,3.6,12.8,12.7c0,31.4-0.1,62.7,0.1,94.1c0,6.7-2.1,11.2-8.6,13.5c-52.7,0-105.3,0-158,0C42,190,39.2,187.3,37.4,183.5z
		 M94.3,132.1c-16.3,16.3-32.6,32.7-48.8,49.1c-0.8,0.8-1,2.3-1.5,3.5c1.2-0.4,2.7-0.4,3.6-1.2c13.7-11.1,27.2-22.4,40.8-33.6
		c5.9-4.8,11.8-9.7,17.7-14.5c3.7,3.1,7.1,6,10.5,8.7c5.4,4.4,12.1,4.3,17.4-0.1c3.4-2.8,6.7-5.6,10.2-8.5c1.1,0.9,2.1,1.5,3,2.3
		c18.1,15,36.1,29.9,54.3,44.8c1.2,1,3,1.4,4.5,2.1c-0.8-1.6-1.2-3.5-2.4-4.6c-17.2-16.9-34.6-33.6-52.2-50.8
		c2.2-1.9,3.2-2.7,4.1-3.6c16.1-14.8,32.3-29.6,48.4-44.4c0.7-0.6,1.5-1.1,1.9-1.9c0.3-0.5,0.5-1.6,0.2-2c-0.3-0.4-1.4-0.6-2-0.4
		c-0.8,0.3-1.5,1-2.2,1.6c-21.9,17.5-43.7,35-65.5,52.5c-7.7,6.2-14.7,6.2-22.4,0c-21.9-17.6-43.9-35.2-65.9-52.7
		c-1-0.8-2.6-0.7-3.9-1c0.6,1.1,0.8,2.6,1.7,3.4c9.1,8.5,18.4,16.8,27.6,25.2c8.1,7.4,16.2,14.8,25,22.8
		C96.7,130.2,95.4,131,94.3,132.1z"/>
</g>
<g id="TEXTO_BLANCO">
</g>
<g id="GUIAS">
</g>
</svg>
