<?xml version="1.0" encoding="utf-8"?>
<!-- Generator: Adobe Illustrator 18.1.1, SVG Export Plug-In . SVG Version: 6.00 Build 0)  -->
<svg version="1.1" id="Layer_1" xmlns="http://www.w3.org/2000/svg" xmlns:xlink="http://www.w3.org/1999/xlink" x="0px" y="0px"
	 viewBox="7.7 13 784.5 784.5" enable-background="new 7.7 13 784.5 784.5" xml:space="preserve">
<g id="Layer_1_1_">
</g>
<g id="FRAMES">
</g>
<g id="TEXTO_SOMBRA" opacity="0.27">
</g>
<g id="TEXTO">
</g>
<g id="FONDO_ACTIVO" display="none">
</g>
<g id="HOVER" display="none">
</g>
<g id="CATAS">
	<g>
		<g>
			<path fill="#B3B4A1" d="M137.8,286.9v-2.2h-2.5v-128c-1-0.1-2-0.1-3.1-0.1c-1.3,0-2.2,0-3.1,0.1v130.2H56.6V116.9l1.3-0.7
				c18.2-9.6,46-15.3,74.3-15.3c27.9,0,54.8,5.6,73.9,15.3l1.4,0.7v170H137.8z"/>
			<path fill="#FFFFE5" d="M132.2,103.4c25.9,0,53.1,5,72.8,15v165.9h-67.2V154.7c-2.2-0.6-3.8-0.6-5.6-0.6c-2.2,0-3.4,0-5.6,0.6
				v129.7H59.1V118.4C78.1,108.4,105.9,103.4,132.2,103.4 M137.8,284.4v0.3V284.4 M132.2,98.4c-28.7,0-56.9,5.8-75.4,15.6l-2.7,1.4
				v3v165.9v5h5h67.5h5v-5V159.1c0.2,0,0.4,0,0.6,0c0.2,0,0.4,0,0.6,0v125.3v5h5H205h5v-5V118.4v-3.1l-2.7-1.4
				C187.8,104.1,160.5,98.4,132.2,98.4L132.2,98.4z"/>
		</g>
		<g>
			<path fill="#B3B4A1" d="M287.5,290.9c-27.4,0-55.1-5.7-74.2-15.3l-1.4-0.7V116.9l1.4-0.7c18.8-9.7,45.9-15.3,74.3-15.3
				c28,0,54.8,5.6,73.6,15.3l1.4,0.7v51.5h-71.2V153c-1.2-0.2-2.3-0.2-3.8-0.2s-2.5,0-3.8,0.2v16.7h74.1v52.2h-74.4v16.7
				c1.2,0.2,2.3,0.2,3.8,0.2c1.3,0,2.4-0.1,3.8-0.3v-15.3h71.6v51.5l-1.3,0.7C342.9,285.1,315.3,290.9,287.5,290.9z"/>
			<path fill="#FFFFE5" d="M287.5,103.4c25.9,0,53.1,5,72.5,15v47.5h-66.2v-15c-2.5-0.6-4.1-0.6-6.2-0.6s-3.8,0-6.2,0.6v21.2h74.1
				v47.2h-74.4v21.2c2.5,0.6,4.1,0.6,6.2,0.6s3.8-0.3,6.2-0.6v-15H360v47.5c-18.8,10-45.9,15.3-72.5,15.3c-25.9,0-53.8-5.3-73.1-15
				v-155C233.8,108.4,261.2,103.4,287.5,103.4 M287.5,98.4c-28.8,0-56.3,5.7-75.4,15.6l-2.7,1.4v3v155v3.1l2.8,1.4
				c19.4,9.7,47.6,15.5,75.4,15.5c28.6,0,55.9-5.8,74.9-15.9l2.6-1.4v-3v-47.5v-5h-4.7v-1.2v-47.2v-1.2h4.7v-5v-47.5v-3l-2.7-1.4
				C343.1,104.1,315.9,98.4,287.5,98.4L287.5,98.4z M286.2,155.3c0.4,0,0.8,0,1.2,0s0.9,0,1.2,0v10.6v1.2h-2.5V155.3L286.2,155.3z
				 M285.9,224.4h2.5v1.2v10.6c-0.4,0-0.8,0-1.2,0c-0.5,0-0.9,0-1.2,0V224.4L285.9,224.4z"/>
		</g>
		<g>
			<path fill="#B3B4A1" d="M477.8,291.2c-44.9,0-80.5-5-108.7-15.1l-1.6-0.6V104.7h69.1v130.4c1.7,0.3,3.9,0.5,6.6,0.6V104.7h69.4
				v131c1.1-0.1,2.1-0.2,3-0.3c1.3-0.1,2.5-0.2,3.6-0.3V104.7h69.1v170.8l-1.6,0.6C558.3,286.3,522.7,291.2,477.8,291.2z"/>
			<path fill="#FFFFE5" d="M585.6,107.2v166.6c-29.4,10.6-65.9,15-107.8,15c-41.9,0-78.4-4.4-107.8-15V107.2h64.1v130
				c2.5,0.6,6.2,0.9,11.6,1.2V107.2H510v131.2c5.3-0.6,8.8-0.6,11.6-1.2v-130H585.6 M590.6,102.2h-5h-64.1h-5v5v125.6
				c-0.4,0-0.8,0.1-1.3,0.1c-0.1,0-0.2,0-0.3,0V107.2v-5h-5h-64.4h-5v5v125.9c-0.5,0-1.1-0.1-1.6-0.1V107.2v-5h-5H370h-5v5v166.6
				v3.5l3.3,1.2c28.5,10.3,64.3,15.3,109.5,15.3s81.1-5,109.5-15.3l3.3-1.2v-3.5V107.2V102.2L590.6,102.2z"/>
		</g>
		<g>
			<path fill="#B3B4A1" d="M668.1,290.9c-28.5-0.3-55.5-5.9-73.9-15.3l-1.4-0.7v-51.8h71.9v15.5c1.2,0.2,2.3,0.2,3.8,0.2
				c1.3,0,2.4-0.1,3.8-0.3v-16.6h-79.4v-105l1.4-0.7c18.8-9.7,45.9-15.3,74.3-15.3c28,0,54.8,5.6,73.6,15.3l1.4,0.7v51.5h-71.6V153
				c-1.2-0.2-2.3-0.2-3.8-0.2s-2.5,0-3.8,0.2v16.7h79.1v104.9l-1.3,0.7C723.5,285.1,695.8,290.9,668.1,290.9L668.1,290.9z"/>
			<path fill="#FFFFE5" d="M668.4,103.4c25.9,0,53.1,5,72.5,15v47.5h-66.6v-15c-2.5-0.6-4.1-0.6-6.2-0.6c-2.2,0-3.7,0-6.2,0.6v21.2
				h79.1v100.9c-19.1,10-46.9,15.3-72.8,15.3c-26.6-0.3-53.8-5.3-72.8-15v-47.8h66.9v15c2.5,0.6,4.1,0.6,6.2,0.6s3.8-0.3,6.2-0.6
				v-21.2h-79.4V118.4C614.7,108.4,642.2,103.4,668.4,103.4 M668.4,98.4c-28.8,0-56.3,5.7-75.4,15.6l-2.7,1.4v3v100.9v5v1.2v47.8
				v3.1l2.7,1.4c18.8,9.5,46.1,15.2,75,15.5l0,0h0c28.1,0,56.2-5.9,75.1-15.9l2.7-1.4v-3V172.2v-1.2v-5v-47.5v-3l-2.7-1.4
				C724.1,104.1,696.8,98.4,668.4,98.4L668.4,98.4z M666.9,155.3c0.4,0,0.8,0,1.2,0s0.9,0,1.2,0v10.6v1.2h-2.5V155.3L666.9,155.3z
				 M667.2,224.4h2.5v11.8c-0.4,0-0.8,0-1.2,0c-0.5,0-0.9,0-1.2,0v-10.6V224.4L667.2,224.4z"/>
		</g>
		<g>
			<polygon fill="#B3B4A1" points="138.8,496.2 138.8,494.1 136.2,494.1 136.2,314.1 230.9,314.1 230.9,433.4 285.6,433.4 
				285.6,496.2 			"/>
			<path fill="#FFFFE5" d="M228.4,316.6v119.4h54.7v57.8H138.8V316.6H228.4 M138.8,493.8v0.3V493.8 M233.4,311.6h-5h-89.7h-5v5
				v177.2v5h5h144.4h5v-5v-57.8v-5h-5h-49.7V316.6V311.6L233.4,311.6z"/>
		</g>
		<g>
			<path fill="#B3B4A1" d="M390.3,500.3c-36.2,0-73-5.7-98.4-15.2l-1.6-0.6V326.4l1.6-0.6c24.3-9.5,61.1-15.2,98.4-15.2
				c37.1,0,72.8,5.5,97.8,15.2l1.6,0.6v51.7h-93.8v-15.4c-1.9-0.2-3.6-0.2-5.9-0.2c-2.1,0-3.8,0-5.9,0.3v16.6h98.4v52.2h-98.4v16.6
				c1.9,0.2,3.6,0.2,5.9,0.2c2,0,3.9-0.2,5.9-0.4v-15.2h93.8v51.7l-1.6,0.6C463.3,494.6,426.7,500.3,390.3,500.3z"/>
			<path fill="#FFFFE5" d="M390.3,313.1c34.7,0,70.9,5,96.9,15v47.5h-88.8v-15c-3.1-0.6-5.3-0.6-8.4-0.6c-2.8,0-5,0-8.4,0.6v21.3
				H480v47.2h-98.4v21.3c3.1,0.6,5.3,0.6,8.4,0.6c2.8,0,5.3-0.3,8.4-0.6v-15h88.7v47.5c-25.3,9.7-61.6,15-96.9,15
				c-34.7,0-71.6-5.3-97.5-15V328.1C318.4,318.1,355.3,313.1,390.3,313.1 M390.3,308.1c-38.1,0-74.3,5.6-99.3,15.3l-3.2,1.2v3.4
				v154.7v3.5l3.3,1.2c25.7,9.6,62.8,15.3,99.2,15.3c36.7,0,73.6-5.7,98.7-15.3l3.2-1.2v-3.4v-47.5v-5h-5H485v-1.2v-47.2v-1.2h2.2h5
				v-5v-47.5v-3.4l-3.2-1.2C463.7,313.7,427.7,308.1,390.3,308.1L390.3,308.1z M386.6,365.1c1.1-0.1,2.2-0.1,3.4-0.1
				c1.3,0,2.4,0,3.4,0v10.6v1.2h-6.9V365.1L386.6,365.1z M386.6,434.1h6.9v1.2v10.5c-1.2,0.1-2.3,0.2-3.4,0.2c-1.3,0-2.4,0-3.4,0
				V434.1L386.6,434.1z"/>
		</g>
		<g>
			<polygon fill="#B3B4A1" points="532.2,496.2 532.2,376.9 493.1,376.9 493.1,314.1 665.9,314.1 665.9,376.9 626.9,376.9 
				626.9,496.2 			"/>
			<path fill="#FFFFE5" d="M663.4,316.6v57.8h-39.1v119.4h-89.7V374.4h-39.1v-57.8H663.4 M668.4,311.6h-5H495.6h-5v5v57.8v5h5h34.1
				v114.4v5h5h89.7h5v-5V379.4h34.1h5v-5v-57.8V311.6L668.4,311.6z"/>
		</g>
		<g>
			<polygon fill="#B3B4A1" points="96.6,705.6 96.6,586.2 63.1,586.2 63.1,523.4 210.6,523.4 210.6,586.2 177.8,586.2 177.8,705.6 
							"/>
			<path fill="#FFFFE5" d="M208.1,525.9v57.8h-32.8v119.4H99.1V583.8H65.6v-57.8H208.1 M213.1,520.9h-5H65.6h-5v5v57.8v5h5h28.4
				v114.4v5h5h76.2h5v-5V588.8h27.8h5v-5v-57.8V520.9L213.1,520.9z"/>
		</g>
		<g>
			<path fill="#B3B4A1" d="M298.1,709.7c-31,0-62.3-5.7-83.8-15.2l-1.5-0.7V535.9l1.5-0.7c21.2-9.7,51.7-15.2,83.9-15.2
				c31.7,0,62.1,5.5,83.2,15.2l1.5,0.7v51.6h-80.3v-15.4c-1.6-0.2-2.9-0.2-4.7-0.2c-1.8,0-3,0-4.7,0.2v16.6h83.8v52.2h-83.4v16.7
				c1.6,0.2,2.9,0.2,4.7,0.2c1.6,0,3-0.2,4.7-0.3v-15.3h80.3v51.6l-1.5,0.7C360.4,704,329.2,709.7,298.1,709.7z"/>
			<path fill="#FFFFE5" d="M298.1,522.5c29.4,0,60.3,5,82.2,15V585H305v-15c-2.8-0.6-4.7-0.6-7.2-0.6c-2.5,0-4.1,0-7.2,0.6v21.2
				h83.8v47.2h-83.4v21.2c2.8,0.6,4.7,0.6,7.2,0.6s4.4-0.3,7.2-0.6v-15h75.3v47.5c-21.6,9.7-52.5,15-82.5,15
				c-29.4,0-60.9-5.3-82.8-15V537.5C237.2,527.5,268.4,522.5,298.1,522.5 M298.1,517.5c-32.5,0-63.4,5.6-84.9,15.5l-2.9,1.3v3.2
				v154.7v3.3l3,1.3c21.8,9.7,53.5,15.4,84.8,15.4c31.4,0,63-5.8,84.5-15.4l3-1.3v-3.2v-47.5v-5h-5h-1.3v-1.2v-47.2V590h0.9h5v-5
				v-47.5v-3.2l-2.9-1.3C360.9,523.1,330.2,517.5,298.1,517.5L298.1,517.5z M295.6,574.4c0.7,0,1.3,0,2.2,0c0.8,0,1.5,0,2.2,0V585
				v1.2h-4.4V574.4L295.6,574.4z M295.9,643.4h4.4v1.2v10.5c-0.7,0.1-1.4,0.1-2.2,0.1c-0.8,0-1.5,0-2.2,0V643.4L295.9,643.4z"/>
		</g>
		<g>
			<path fill="#B3B4A1" d="M478.1,705.9v-57.7c-1.6-0.6-2.7-0.7-4.7-0.7h-2.8v58.4h-81.2V523.4h84.7c31.7,0,62.1,5.8,83.6,15.9
				l1.4,0.7v74.1l-1.5,0.7c-5.1,2.3-11.3,4-18.8,5.6c8,1.6,14.3,3.4,19.2,5.9l1.4,0.7v79H478.1z M474.4,600.6c1.7,0,3.3-0.3,4.7-0.7
				v-30.3c-1.5-0.4-2.8-0.6-4.7-0.6h-4.7v31.6H474.4z"/>
			<path fill="#FFFFE5" d="M474.1,525.9c30.9,0,61.2,5.6,82.5,15.6v70.9c-7.5,3.4-18.1,5.6-32.2,7.8c13.8,2.2,25,4.4,32.5,8.1v75
				h-76.2v-56.9c-2.8-1.2-4.4-1.6-7.2-1.6h-5.3v58.4h-76.2V525.9H474.1 M467.2,603.1h7.2c2.8,0,5.3-0.6,7.2-1.6v-33.8
				c-2.5-0.9-4.4-1.2-7.2-1.2h-7.2V603.1 M474.1,520.9h-82.2h-5v5v177.5v5h5h76.2h5v-5V650h0.3c0.9,0,1.5,0,2.2,0.1v53.3v5h5h76.2h5
				v-5v-75v-3.1l-2.8-1.4c-2.8-1.4-6-2.6-9.6-3.6c3.4-1,6.4-2,9.1-3.3l2.9-1.3v-3.2v-70.9v-3.2l-2.9-1.4
				C536.9,526.8,506.1,520.9,474.1,520.9L474.1,520.9z M472.2,571.6h2.2c0.8,0,1.5,0,2.2,0.1v26.3c-0.7,0.1-1.4,0.2-2.2,0.2h-2.2
				V571.6L472.2,571.6z"/>
		</g>
		<g>
			<path fill="#B3B4A1" d="M650,709.7c-32-0.3-62.4-5.9-83.5-15.2l-1.5-0.7v-51.6h80.6v15.4c1.6,0.2,2.9,0.2,4.7,0.2
				c1.6,0,3-0.2,4.7-0.3v-16.5h-90v-105l1.5-0.7c21.2-9.7,51.7-15.2,83.9-15.2c31.7,0,62.1,5.5,83.2,15.2l1.5,0.7v51.6h-80.3v-15.4
				c-1.6-0.2-2.9-0.2-4.7-0.2c-1.8,0-3,0-4.7,0.2v16.6H735v105.1l-1.5,0.7C712.3,704,681.1,709.7,650,709.7L650,709.7z"/>
			<path fill="#FFFFE5" d="M650.3,522.5c29.4,0,60.3,5,82.2,15V585h-75.3v-15c-2.8-0.6-4.7-0.6-7.2-0.6s-4.1,0-7.2,0.6v21.2h89.7
				v100.9c-21.6,9.7-53.1,15-82.5,15c-30-0.3-60.6-5.3-82.5-15v-47.5h75.6v15c2.8,0.6,4.7,0.6,7.2,0.6s4.4-0.3,7.2-0.6v-21.2h-90
				V537.5C589.4,527.5,620.6,522.5,650.3,522.5 M650.3,517.5c-32.5,0-63.4,5.6-84.9,15.5l-2.9,1.3v3.2v100.9v5v1.2v47.5v3.3l3,1.3
				c21.4,9.5,52.2,15.1,84.5,15.4l0,0h0c31.4,0,63-5.8,84.5-15.4l3-1.3v-3.2V591.2V590v-5v-47.5v-3.2l-2.9-1.3
				C713.1,523.1,682.4,517.5,650.3,517.5L650.3,517.5z M647.8,574.4c0.7,0,1.3,0,2.2,0c0.8,0,1.5,0,2.2,0V585v1.2h-4.4V574.4
				L647.8,574.4z M648.1,643.4h4.4v11.8c-0.7,0.1-1.4,0.1-2.2,0.1c-0.8,0-1.5,0-2.2,0v-10.6V643.4L648.1,643.4z"/>
		</g>
	</g>
</g>
<g id="TEXTO_BLANCO">
</g>
<g id="CATALOGOS">
</g>
<g id="CATALOGOS_3d">
</g>
<g id="FOLLETOS">
</g>
<g id="CONCURSOS">
</g>
<g id="ILUSTRACION">
</g>
<g id="CONCURSOS_copy">
</g>
<g id="GUIAS">
</g>
<g>
	<g>
		<g>
			<path fill="#B3B4A1" d="M132.4,795.1c-67.4,0-122.2-54.8-122.2-122.2V137.7C10.2,70.4,65,15.5,132.4,15.5h535.3
				c67.3,0,122,54.8,122,122.2v535.2c0,67.4-54.8,122.2-122.2,122.2H132.4z M132.4,45.9c-24.6,0-47.7,9.5-65,26.8
				c-17.3,17.3-26.9,40.4-26.9,65v535.2c0,24.6,9.5,47.7,26.8,65c17.3,17.3,40.4,26.9,65,26.9h535.3c24.6,0,47.7-9.5,65-26.8
				c16.8-16.7,26.2-38.9,26.9-62.5h-0.1V137.7c0-24.6-9.5-47.7-26.8-65c-17.3-17.3-40.4-26.9-65-26.9H132.4z"/>
			<path fill="#FFFFE5" d="M667.7,18c66.1,0,119.5,53.9,119.5,119.7v535.2c0,66.1-53.6,119.7-119.7,119.7H132.4
				c-66.1,0-119.7-53.6-119.7-119.7V137.7C12.7,71.6,66.3,18,132.4,18H667.7 M132.4,767.3h535.3c52.2,0,94.4-42.1,94.4-94.4H762
				V137.7c0-52.2-42.1-94.4-94.4-94.4H132.4C80.2,43.4,38,85.4,38,137.7v535.2C38,725.1,80.1,767.3,132.4,767.3 M667.7,13H132.4
				c-33.3,0-64.6,13-88.2,36.5C20.7,73.1,7.7,104.4,7.7,137.7v535.2c0,33.3,13,64.6,36.5,88.2c23.6,23.6,54.9,36.5,88.2,36.5h535.2
				c33.3,0,64.6-13,88.2-36.5c23.6-23.6,36.5-54.9,36.5-88.2V137.7C792.3,69,736.4,13,667.7,13L667.7,13z M132.4,762.3
				c-24,0-46.4-9.3-63.3-26.2C52.3,719.3,43,696.8,43,672.9V137.7c0-24,9.3-46.4,26.2-63.3c16.9-16.8,39.3-26.1,63.2-26.1h535.2
				c24,0,46.4,9.3,63.3,26.2c16.8,16.9,26.1,39.3,26.1,63.2v535.2v5h0c-1.2,22.1-10.3,42.6-26,58.3c-16.9,16.8-39.3,26.1-63.2,26.1
				H132.4L132.4,762.3z"/>
		</g>
	</g>
</g>
</svg>
