<?xml version="1.0" encoding="utf-8"?>
<!-- Generator: Adobe Illustrator 18.1.1, SVG Export Plug-In . SVG Version: 6.00 Build 0)  -->
<svg version="1.1" xmlns="http://www.w3.org/2000/svg" xmlns:xlink="http://www.w3.org/1999/xlink" x="0px" y="0px"
	 viewBox="0 0 250 256" enable-background="new 0 0 250 256" xml:space="preserve">
<g id="Layer_1">
</g>
<g id="FRAMES">
</g>
<g id="TEXTO_SOMBRA" opacity="0.27">
</g>
<g id="TEXTO">
</g>
<g id="FONDO_ACTIVO" display="none">
</g>
<g id="HOVER" display="none">
</g>
<g id="CATAS">
	<g>
		<path fill="#B3B4A1" d="M41.1,91.1V49.5c-0.7-0.2-1.2-0.2-1.8-0.2c-0.7,0-1.1,0-1.8,0.2v41.5H15.9V37.9c6.1-3.2,15-4.8,23.4-4.8
			c8.3,0,17,1.6,23.3,4.8v53.1H41.1z"/>
		<path fill="#B3B4A1" d="M89,92.3c-8.3,0-17.2-1.7-23.4-4.8V37.9c6.2-3.2,15-4.8,23.4-4.8c8.3,0,17,1.6,23.2,4.8v15.2H91v-4.8
			c-0.8-0.2-1.3-0.2-2-0.2c-0.7,0-1.2,0-2,0.2v6.8h23.7v15.1H86.9V77c0.8,0.2,1.3,0.2,2,0.2c0.7,0,1.2-0.1,2-0.2v-4.8h21.3v15.2
			C106.2,90.6,97.5,92.3,89,92.3z"/>
		<path fill="#B3B4A1" d="M149.9,92.4c-13.4,0-25.1-1.4-34.5-4.8V34.3h20.5v41.6c0.8,0.2,2,0.3,3.7,0.4v-42h20.6v42
			c1.7-0.2,2.8-0.2,3.7-0.4V34.3h20.5v53.3C175,91,163.3,92.4,149.9,92.4z"/>
		<path fill="#B3B4A1" d="M210.8,92.3c-8.5-0.1-17.2-1.7-23.3-4.8V72.2h21.4V77c0.8,0.2,1.3,0.2,2,0.2c0.7,0,1.2-0.1,2-0.2v-6.8
			h-25.4V37.9c6.2-3.2,15-4.8,23.4-4.8c8.3,0,17,1.6,23.2,4.8v15.2h-21.3v-4.8c-0.8-0.2-1.3-0.2-2-0.2c-0.7,0-1.2,0-2,0.2v6.8h25.3
			v32.3C228,90.6,219.1,92.3,210.8,92.3z"/>
		<path fill="#B3B4A1" d="M41.4,158.1v-56.8h28.7v38.2h17.5v18.5H41.4z"/>
		<path fill="#B3B4A1" d="M121.9,159.3c-11.1,0-22.9-1.7-31.2-4.8v-49.5c8.2-3.2,20-4.8,31.2-4.8c11.1,0,22.7,1.6,31,4.8v15.2h-28.4
			v-4.8c-1-0.2-1.7-0.2-2.7-0.2c-0.9,0-1.6,0-2.7,0.2v6.8h31.5v15.1h-31.5v6.8c1,0.2,1.7,0.2,2.7,0.2c0.9,0,1.7-0.1,2.7-0.2v-4.8
			h28.4v15.2C144.8,157.6,133.2,159.3,121.9,159.3z"/>
		<path fill="#B3B4A1" d="M196.8,119.8v38.2h-28.7v-38.2h-12.5v-18.5h53.7v18.5H196.8z"/>
		<path fill="#B3B4A1" d="M53.1,186.8v38.2H28.7v-38.2H18v-18.5h45.6v18.5H53.1z"/>
		<path fill="#B3B4A1" d="M92.4,226.3c-9.4,0-19.5-1.7-26.5-4.8v-49.5c7-3.2,17-4.8,26.5-4.8c9.4,0,19.3,1.6,26.3,4.8v15.2H94.6
			v-4.8c-0.9-0.2-1.5-0.2-2.3-0.2s-1.3,0-2.3,0.2v6.8h26.8v15.1H90.1v6.8c0.9,0.2,1.5,0.2,2.3,0.2s1.4-0.1,2.3-0.2v-4.8h24.1v15.2
			C111.9,224.6,102,226.3,92.4,226.3z"/>
		<path fill="#B3B4A1" d="M150.8,225.1v-18.2c-0.9-0.4-1.4-0.5-2.3-0.5h-1.7v18.7h-24.4v-56.8h26.3c9.9,0,19.6,1.8,26.4,5V196
			c-2.4,1.1-5.8,1.8-10.3,2.5c4.4,0.7,8,1.4,10.4,2.6v24H150.8z M151.1,181.7c-0.8-0.3-1.4-0.4-2.3-0.4h-2.3v11.7h2.3
			c0.9,0,1.7-0.2,2.3-0.5V181.7z"/>
		<path fill="#B3B4A1" d="M205,226.3c-9.6-0.1-19.4-1.7-26.4-4.8v-15.2h24.2v4.8c0.9,0.2,1.5,0.2,2.3,0.2s1.4-0.1,2.3-0.2v-6.8
			h-28.8v-32.3c7-3.2,17-4.8,26.5-4.8c9.4,0,19.3,1.6,26.3,4.8v15.2h-24.1v-4.8c-0.9-0.2-1.5-0.2-2.3-0.2s-1.3,0-2.3,0.2v6.8h28.7
			v32.3C224.5,224.6,214.4,226.3,205,226.3z"/>
	</g>
	<g>
		<path fill="#B3B4A1" d="M210,16.1c16.6,0,30,13.4,30,30v170c0,16.6-13.4,30-30,30H40c-16.6,0-30-13.4-30-30v-170
			c0-16.6,13.4-30,30-30H210 M210,8.1H40c-21,0-38,17-38,38v170c0,21,17,38,38,38h170c21,0,38-17,38-38v-170
			C248,25.2,231,8.1,210,8.1L210,8.1z"/>
	</g>
</g>
<g id="TEXTO_BLANCO">
</g>
<g id="CATALOGOS">
</g>
<g id="CATALOGOS_3d">
</g>
<g id="FOLLETOS">
</g>
<g id="CONCURSOS">
</g>
<g id="ILUSTRACION">
</g>
<g id="CONCURSOS_copy">
</g>
<g id="GUIAS">
</g>
</svg>
