<?xml version="1.0" encoding="utf-8"?>
<!-- Generator: Adobe Illustrator 18.1.1, SVG Export Plug-In . SVG Version: 6.00 Build 0)  -->
<svg version="1.1" id="Layer_1" xmlns="http://www.w3.org/2000/svg" xmlns:xlink="http://www.w3.org/1999/xlink" x="0px" y="0px"
	 viewBox="156 20.5 784.5 784.5" enable-background="new 156 20.5 784.5 784.5" xml:space="preserve">
<g>
	<g>
		<g>
			<path fill="#B3B4A1" d="M280.7,802.5c-67.4,0-122.2-54.8-122.2-122.2V145.1C158.5,77.8,213.3,23,280.7,23H816
				c67.3,0,122,54.8,122,122.2v535.2c0,67.4-54.8,122.2-122.2,122.2H280.7z M280.7,53.3c-24.6,0-47.7,9.5-65,26.8
				c-17.3,17.3-26.9,40.4-26.9,65v535.2c0,24.6,9.5,47.7,26.8,65c17.3,17.3,40.4,26.9,65,26.9H816c24.6,0,47.7-9.5,65-26.8
				c16.8-16.7,26.2-38.9,26.9-62.5h-0.1V145.1c0-24.6-9.5-47.7-26.8-65c-17.3-17.3-40.4-26.9-65-26.9H280.7z M730.5,714.9
				c-37.8-0.3-73.8-5.8-98.7-15.2l-1.6-0.6V647h94.7v15.4c1.9,0.2,3.6,0.2,5.9,0.2c2.2,0,3.9-0.1,5.9-0.3v-16.6H630.3V539.8l1.6-0.6
				c24.2-9.5,60.8-15.2,97.8-15.2l1.4,0c37.6,0,73.5,5.5,98.5,15.2l1.6,0.6v52h-94.5v-15.4c-1.9-0.2-3.6-0.2-5.9-0.2
				c-2.3,0-3.9,0-5.9,0.2v16.7h106v105.9l-1.6,0.6C804,709.2,767.1,714.9,730.5,714.9L730.5,714.9z M522.2,714.9
				c-36.4,0-73.4-5.7-99-15.2l-1.6-0.6V539.8l1.6-0.6c24.2-9.5,60.7-15.2,97.7-15.2l1.4,0c37.6,0,73.5,5.5,98.5,15.2l1.6,0.6v52
				h-94.5v-15.4c-1.9-0.2-3.6-0.2-5.9-0.2c-2.3,0-3.9,0-5.9,0.2v16.7h99.2v52.5H516v16.7c1.9,0.2,3.6,0.2,5.9,0.2
				c2.2,0,3.9-0.1,5.9-0.3V647h94.5v52.1l-1.6,0.6C594.9,709.3,559,714.9,522.2,714.9z M266.4,710.8V527.3h95.3v120.3h55.1v63.2
				H266.4z M642.2,500.2V454h-12.3v46.3h-94V328.8l1.6-0.6c24.3-9.5,61.2-15.2,98.8-15.2c37.5,0,73.5,5.5,98.8,15.2l1.6,0.6v171.4
				H642.2z M641.9,401.4v-36.3c-1.9-0.2-3.9-0.2-5.9-0.2c-2.1,0-4.1,0-6.4,0.2v36.2H641.9z M397.6,499.8V379.6h-39.4v-63.2H532v63.2
				h-39.1v120.3H397.6z M755.5,292.9c-37.8-0.3-73.8-5.8-98.7-15.2l-1.6-0.6v-52.3h94.7v15.4c1.9,0.2,3.6,0.2,5.9,0.2
				c2,0,3.9-0.2,5.9-0.3v-16.6H655.4V117.6l1.6-0.6c24.4-9.5,61.4-15.2,99.1-15.4c37.6,0,73.5,5.5,98.5,15.2l1.6,0.6v52h-94.5v-15.4
				c-1.9-0.2-3.6-0.2-5.9-0.2c-2.1,0-3.8,0-5.9,0.2v16.7h106v105.9l-1.6,0.6C829.5,287.1,792.5,292.9,755.5,292.9L755.5,292.9z
				 M546.8,292.9c-36.4,0-73.4-5.7-99-15.2l-1.6-0.6V117.6l1.6-0.6c24.6-9.5,61.6-15.2,99.1-15.2c37.6,0,73.5,5.5,98.5,15.2l1.6,0.6
				v159.2l-1.6,0.6C620.8,287.1,584.9,292.8,546.8,292.9L546.8,292.9z M540.5,236.5c2,0.2,3.7,0.2,5.9,0.2c2.2,0,3.9-0.1,5.9-0.3
				V158c-1.9-0.2-3.6-0.2-5.9-0.2s-4,0-5.9,0.2V236.5z M241.1,289.3V105.5h100.1c37.6,0,74.7,6.4,99.2,17.2l1.5,0.7v99.9l-1.5,0.7
				c-24.3,11.2-61.3,17.8-99.2,17.8h-4.8v47.5H241.1z M341.3,191.2c2.7,0,4.6-0.2,6.4-0.6v-34.2c-1.9-0.5-3.8-0.9-6.4-0.9H335v35.6
				H341.3z"/>
			<path fill="#FFFFE5" d="M816,25.5c66.1,0,119.5,53.9,119.5,119.7v535.2c0,66.1-53.6,119.7-119.7,119.7H280.7
				C214.6,800,161,746.4,161,680.3V145.1C161,79,214.6,25.5,280.7,25.5H816 M280.7,774.7H816c52.2,0,94.4-42.1,94.4-94.4h-0.1V145.1
				c0-52.2-42.1-94.4-94.4-94.4H280.7c-52.2,0-94.4,42.1-94.4,94.4v535.2C186.3,732.5,228.4,774.7,280.7,774.7 M756.1,104.1
				c35,0,71.4,4.9,97.6,15v47.8h-89.5v-15c-3.1-0.6-5.3-0.6-8.4-0.6c-2.8,0-4.9,0-8.4,0.6v21.4h106V275
				c-25.7,10.1-63,15.5-97.9,15.5c-35.6-0.3-72-5.3-97.9-15v-48.1h89.7v15c3.1,0.6,5.3,0.6,8.4,0.6c2.8,0,5.3-0.3,8.4-0.6V221H657.9
				V119.3C683.7,109.3,720.9,104.2,756.1,104.1 M546.8,104.2c35,0,71.4,4.9,97.6,15v155.8c-25.6,10.1-62,15.2-97.6,15.3
				c-34.9,0-72-5.3-98.2-15V119.3C474.4,109.3,511.5,104.2,546.8,104.2 M546.4,239.2C546.4,239.2,546.4,239.2,546.4,239.2
				c3.1,0,5.3-0.3,8.4-0.6v-82.8c-3.1-0.6-5.3-0.6-8.4-0.6c-3.1,0-5.3,0-8.4,0.6v82.8C541.2,239.2,543.3,239.2,546.4,239.2
				 M341.2,108c36.4,0,73.3,6,98.2,17v96.6c-24.5,11.3-61.6,17.6-98.2,17.6H334v0h-0.1v47.5h-90.3V108H341.2 M332.5,193.7h8.9
				c3.5,0,6-0.3,8.9-1.3v-37.8c-2.8-1-5.3-1.5-8.9-1.5h-8.9V193.7 M636.3,315.5c34.9,0,71.4,4.9,97.9,15v167.2h-89.5v-46.3h-17.3
				v46.3h-89V330.5C563.8,320.5,601,315.5,636.3,315.5 M627.1,403.9h17.3V363h0.4c-2.8-0.6-5.8-0.6-8.9-0.6c-2.8,0-5.3,0-8.9,0.6
				V403.9 M529.5,318.8v58.2h-39.1v120.3h-90.3V377.1h-39.4v-58.2H529.5 M729.6,526.4c0.5,0,1,0,1.4,0c35,0,71.4,4.9,97.6,15v47.8
				h-89.5v-15c-3.1-0.6-5.3-0.6-8.4-0.6s-4.9,0-8.4,0.6v21.4h106v101.7c-25.7,9.7-63,15-97.9,15c-35.6-0.3-72-5.3-97.9-15v-47.8
				h89.7v15c3.1,0.6,5.3,0.6,8.4,0.6c3.1,0,5.3-0.3,8.4-0.6v-21.4H632.8V541.5C658.1,531.5,694.8,526.4,729.6,526.4 M520.8,526.4
				c0.5,0,1,0,1.4,0c35,0,71.4,4.9,97.6,15v47.8h-89.5v-15c-3.1-0.6-5.3-0.6-8.4-0.6c-3.1,0-4.9,0-8.4,0.6v21.4h99.2v47.5h-99.2
				v21.4c3.1,0.6,5.3,0.6,8.4,0.6c3.1,0,5.3-0.3,8.4-0.6v-15h89.5v47.8c-25.9,9.7-62,15-97.6,15c-34.9,0-72-5.3-98.2-15V541.5
				C449.4,531.5,486,526.4,520.8,526.4 M359.2,529.8L359.2,529.8L359.2,529.8 M359.2,529.8l0,120.3h55.1v58.2H268.9V529.8H359.2
				 M816,20.5H280.7c-33.3,0-64.6,13-88.2,36.5C169,80.5,156,111.8,156,145.1v535.2c0,33.3,13,64.6,36.5,88.2
				c23.6,23.6,54.9,36.5,88.2,36.5h535.2c33.3,0,64.6-13,88.2-36.5c23.6-23.6,36.5-54.9,36.5-88.2V145.1
				C940.6,76.4,884.7,20.5,816,20.5L816,20.5z M280.7,769.7c-24,0-46.4-9.3-63.3-26.2c-16.8-16.9-26.1-39.3-26.1-63.2V145.1
				c0-24,9.3-46.4,26.2-63.3c16.9-16.8,39.3-26.1,63.2-26.1h535.2c24,0,46.4,9.3,63.3,26.2c16.8,16.9,26.1,39.3,26.1,63.2v535.2v5h0
				c-1.2,22.1-10.3,42.6-26,58.3c-16.9,16.8-39.3,26.1-63.2,26.1H280.7L280.7,769.7z M756.1,99.1L756.1,99.1L756.1,99.1
				c-37.9,0.2-75.3,6-100,15.5l-3.2,1.2v3.4V221v1.3h-0.3v5v48.1v3.5l3.2,1.2c25.2,9.5,61.5,15.1,99.6,15.4
				c37.3,0,74.6-5.9,99.8-15.8l3.2-1.2V275V173.3v-1.3h0.3v-5v-47.8v-3.4l-3.2-1.2C830.3,104.7,794,99.1,756.1,99.1L756.1,99.1z
				 M752.4,156.4c1.1-0.1,2.2-0.1,3.4-0.1c1.3,0,2.4,0,3.4,0v10.6v1.3h-6.9V156.4L752.4,156.4z M752.4,226h6.9v11.8
				c-1.2,0.1-2.3,0.1-3.4,0.1c-1.3,0-2.4,0-3.4,0v-10.6V226L752.4,226z M546.8,99.2c-37.8,0-75.1,5.8-100,15.4l-3.2,1.2v3.4v2.2
				l-2.3-1c-24.8-10.9-62.2-17.4-100.2-17.4h-97.6h-5v5v178.8v5h5h90.3h5v-5v-42.5h2.3c38.2,0,75.7-6.7,100.3-18l2.2-1v50.2v3.5
				l3.3,1.2c25.9,9.6,63.3,15.4,99.9,15.4c38.4-0.2,74.6-5.9,99.4-15.7l3.2-1.3v-3.4V119.3v-3.4l-3.2-1.2
				C621,104.8,584.7,99.2,546.8,99.2L546.8,99.2z M337.5,158h3.9c1.5,0,2.7,0.1,3.9,0.3v30.1c-1.1,0.1-2.3,0.2-3.9,0.2h-3.9V158
				L337.5,158z M543,160.3c1,0,2.1,0,3.4,0s2.4,0,3.4,0v73.8c-1.1,0.1-2.2,0.1-3.4,0.1h0c-1.3,0-2.4,0-3.4,0V160.3L543,160.3z
				 M636.3,310.5c-37.9,0-75.1,5.8-99.7,15.4l-2,0.8v-7.8v-5h-5H360.7h-5v5v58.2v5h5h34.4v115.3v5h5h90.3h5v-5V382.1h34.1h3.9v115.7
				v5h5h89h5v-5v-41.3h7.3v41.3v5h5h89.5h5v-5V330.5v-3.4l-3.2-1.2C710.4,316.1,674.1,310.5,636.3,310.5L636.3,310.5z M632.1,367.5
				c1.3-0.1,2.5-0.1,3.9-0.1c1.2,0,2.3,0,3.4,0v31.5h-7.3V367.5L632.1,367.5z M729.6,521.4c-37.3,0-74.2,5.8-98.7,15.4l-3.2,1.2v3.4
				v101.7v1.3h-0.1v5v47.8v3.5l3.2,1.2c25.2,9.5,61.5,15.1,99.6,15.4c36.9,0,74.2-5.7,99.7-15.4l3.2-1.2v-3.5V595.6v-1.3h0.3v-5
				v-47.8v-3.4l-3.2-1.2c-25.3-9.8-61.5-15.4-99.4-15.4C730.6,521.4,730.1,521.4,729.6,521.4L729.6,521.4z M727.4,578.7
				c1,0,2.1,0,3.4,0c1.3,0,2.4,0,3.4,0v10.6v1.3h-6.9V578.7L727.4,578.7z M727.4,648.2h6.9V660c-1.1,0.1-2.2,0.1-3.4,0.1
				c-1.3,0-2.4,0-3.4,0v-10.6V648.2L727.4,648.2z M520.8,521.4c-37.2,0-74.1,5.8-98.6,15.4l-3.2,1.2v3.4v103.6h-4.7h-50.1V529.8v-5
				h-5h-90.3h-5v5v178.5v5h5h145.4h5v-5v-7.4l3,1.1c25.9,9.6,63.3,15.4,99.9,15.4c37.1,0,73.3-5.6,99.4-15.4l3.2-1.2v-3.5v-47.8v-5
				h-5h-2.2v-1.3v-47.5v-1.3h2.2h5v-5v-47.8v-3.4l-3.2-1.2c-25.3-9.8-61.5-15.4-99.4-15.4C521.7,521.4,521.3,521.4,520.8,521.4
				L520.8,521.4z M518.5,578.7c1,0,2.1,0,3.4,0c1.3,0,2.4,0,3.4,0v10.6v1.3h-6.9V578.7L518.5,578.7z M518.5,648.2h6.9v1.3V660
				c-1.1,0.1-2.2,0.1-3.4,0.1c-1.3,0-2.4,0-3.4,0V648.2L518.5,648.2z"/>
		</g>
	</g>
</g>
</svg>
