<?xml version="1.0" encoding="utf-8"?>
<!-- Generator: Adobe Illustrator 18.1.1, SVG Export Plug-In . SVG Version: 6.00 Build 0)  -->
<svg version="1.1" xmlns="http://www.w3.org/2000/svg" xmlns:xlink="http://www.w3.org/1999/xlink" x="0px" y="0px"
	 viewBox="0 0 250 256" enable-background="new 0 0 250 256" xml:space="preserve">
<g id="Layer_1">
</g>
<g id="CATAS">
	<g>
		<g>
			<path fill="#B3B4A1" d="M210,16.1c16.6,0,30,13.4,30,30v170c0,16.6-13.4,30-30,30H40c-16.6,0-30-13.4-30-30v-170
				c0-16.6,13.4-30,30-30H210 M210,8.1H40c-21,0-38,17-38,38v170c0,21,17,38,38,38h170c21,0,38-17,38-38v-170
				C248,25.2,231,8.1,210,8.1L210,8.1z"/>
		</g>
	</g>
	<g>
		<path fill="#B3B4A1" d="M150.6,69.8c4-3,8.8-5.1,13.8-5.8c-0.6,2.5-2.5,4.3-4.6,5.7c3.9-1.2,8-3.1,12.3-2.2c1.7,1,1.1,3.4-0.5,4.2
			c-4.4,2.7-9.8,3.1-14.5,5c11.8-0.6,23.2,5.4,30.7,14.3c5.6,6.4,9.1,14.4,10.8,22.7c7.7,2,15.8,0.4,23-2.7
			c-3.4,8.1-12.4,11.9-20.6,12.8c6.9,2.3,14.3,2.9,21.4,2c-5.7,6.5-14.6,9-23,9c-1.9,5.1-3.4,10.5-6.1,15.3
			c-10.8,20.7-31.1,35.2-53,42.4c-21.3,6.9-44.8,7.6-66.1,0.6c-18.5-6-35.1-18-46.3-34c9.6,8.9,22.6,14.2,35.8,13.9
			c13.5,0.2,26.5-5.8,36.1-15.2c-4.2,0.1-9-0.6-11.9-4c-2.1-2.1-2.2-5.7-0.5-8.1c1.3-2.1,3.5-3.3,5.6-4.6c-9.2,0.9-18.9-3.6-23-12.1
			c3.2-3.3,7.6-4.6,12-5.4c-6-1.7-12.1-4.3-16-9.4c-2.2-2.9-3.8-6.4-4-10c3.7-0.6,7.4-1.3,11.2-1.5c-9-4.5-16.8-13.7-16-24.3
			c16,5.9,31.7,12.4,46.9,20.3c6.7,3.2,12.4,8,17.5,13.4c4.7-10.9,8.9-22.1,15.7-31.8c4.1-5.9,9.1-11.4,15.3-15.2
			C151.6,66.9,151.1,68.3,150.6,69.8z"/>
	</g>
</g>
<g id="TEXTO_BLANCO">
</g>
<g id="GUIAS">
</g>
</svg>
