<?xml version="1.0" encoding="utf-8"?>
<!-- Generator: Adobe Illustrator 18.1.1, SVG Export Plug-In . SVG Version: 6.00 Build 0)  -->
<svg version="1.1" id="Layer_1" xmlns="http://www.w3.org/2000/svg" xmlns:xlink="http://www.w3.org/1999/xlink" x="0px" y="0px"
	 viewBox="0 0 250 256" enable-background="new 0 0 250 256" xml:space="preserve">
<g>
	<path fill="#B2B3A0" d="M210,16.1c16.6,0,30,13.4,30,30v170c0,16.6-13.4,30-30,30H40c-16.6,0-30-13.4-30-30v-170
		c0-16.6,13.4-30,30-30H210 M210,8.1H40c-21,0-38,17-38,38v170c0,21,17,38,38,38h170c21,0,38-17,38-38v-170
		C248,25.2,231,8.1,210,8.1L210,8.1z"/>
</g>
<rect x="86.7" y="107.6" fill="#B2B3A0" width="76.5" height="106.8"/>
<path fill="#B2B3A0" d="M48.4,122.3l64-69c6.2-6.7,19-6.7,25.2,0l64,69c7.5,8.1,0.1,19.4-12.6,19.4H61
	C48.2,141.6,40.9,130.3,48.4,122.3z"/>
<g>
</g>
<g>
</g>
<g>
</g>
<g>
</g>
<g>
</g>
<g>
</g>
<g>
</g>
<g>
</g>
<g>
</g>
<g>
</g>
<g>
</g>
<g>
</g>
<g>
</g>
<g>
</g>
<g>
</g>
</svg>
