<?xml version="1.0" encoding="utf-8"?>
<!-- Generator: Adobe Illustrator 18.1.1, SVG Export Plug-In . SVG Version: 6.00 Build 0)  -->
<svg version="1.1" xmlns="http://www.w3.org/2000/svg" xmlns:xlink="http://www.w3.org/1999/xlink" x="0px" y="0px"
	 viewBox="0 0 250 256" enable-background="new 0 0 250 256" xml:space="preserve">
<g id="Layer_1">
</g>
<g id="CATAS">
	<g>
		<path fill="#2EBFFF" d="M40,250.1c-18.7,0-34-15.3-34-34v-170c0-18.7,15.3-34,34-34h170c18.7,0,34,15.3,34,34v170
			c0,18.7-15.3,34-34,34H40z"/>
		<path fill="#B3B4A1" d="M210,16.1c16.6,0,30,13.4,30,30v170c0,16.6-13.4,30-30,30H40c-16.6,0-30-13.4-30-30v-170
			c0-16.6,13.4-30,30-30H210 M210,8.1H40c-21,0-38,17-38,38v170c0,21,17,38,38,38h170c21,0,38-17,38-38v-170
			C248,25.2,231,8.1,210,8.1L210,8.1z"/>
	</g>
	<g>
		<path fill="#FFFFFF" d="M153.3,63.4c4.5-3.3,9.7-5.6,15.2-6.4c-0.7,2.8-2.8,4.8-5.1,6.3c4.4-1.4,8.9-3.4,13.5-2.5
			c1.9,1.1,1.2,3.7-0.5,4.6c-4.9,3-10.8,3.4-16,5.5c13.1-0.6,25.6,6,33.9,15.8c6.2,7.1,10,15.9,11.9,25.1c8.4,2.2,17.5,0.4,25.3-3
			c-3.8,9-13.7,13.2-22.8,14.2c7.6,2.6,15.7,3.2,23.7,2.2c-6.3,7.2-16.2,9.9-25.4,9.9c-2.1,5.6-3.7,11.6-6.7,16.9
			c-11.9,22.9-34.4,38.9-58.5,46.8c-23.5,7.7-49.5,8.4-73,0.6c-20.5-6.6-38.8-19.9-51.1-37.6c10.6,9.9,25,15.7,39.5,15.3
			c14.9,0.2,29.3-6.4,39.8-16.7c-4.7,0.1-9.9-0.6-13.1-4.4c-2.3-2.3-2.4-6.3-0.6-8.9c1.5-2.3,3.9-3.6,6.2-5
			c-10.1,1-20.8-4-25.4-13.4c3.5-3.6,8.4-5.1,13.2-5.9c-6.6-1.9-13.4-4.8-17.7-10.3c-2.4-3.2-4.2-7-4.5-11.1
			c4.1-0.7,8.2-1.5,12.3-1.6c-10-5-18.6-15.1-17.6-26.8c17.6,6.5,35,13.7,51.7,22.4c7.4,3.5,13.7,8.9,19.3,14.8
			c5.2-12,9.8-24.4,17.3-35.2c4.5-6.6,10-12.6,16.9-16.8C154.4,60.1,153.8,61.8,153.3,63.4z"/>
	</g>
</g>
<g id="TEXTO_BLANCO">
</g>
<g id="GUIAS">
</g>
</svg>
