<?xml version="1.0" encoding="utf-8"?>
<!-- Generator: Adobe Illustrator 18.1.1, SVG Export Plug-In . SVG Version: 6.00 Build 0)  -->
<svg version="1.1" id="BTX" xmlns="http://www.w3.org/2000/svg" xmlns:xlink="http://www.w3.org/1999/xlink" x="0px" y="0px"
	 viewBox="300.8 21.5 800.1 820" enable-background="new 300.8 21.5 800.1 820" xml:space="preserve">
<g>
	<g>
		<path fill="#B3B4A1" d="M977.3,21.5H424.5c-68.3,0-123.7,56.6-123.7,126.8v566.4c0,70,55.3,126.8,123.7,126.8h552.6
			c68.3,0,123.7-56.6,123.7-126.8V148.3C1100.7,78.5,1045.4,21.5,977.3,21.5z M839.2,537c4.2,4.2,4.2,11.6,0,16l-5.3,5.3
			c-4.2,4.2-11.6,4.2-16,0L701.5,441.9L585.2,558.4c-4.2,4.2-11.6,4.2-16,0l-5.3-5.3c-4.2-4.2-4.2-11.6,0-16l116.3-116.3
			L564.3,304.6c-4.2-4.2-4.2-11.6,0-16l5.3-5.3c4.2-4.4,11.5-4.4,16-0.1L702,399.7L818.3,283c4.2-4.2,11.5-4.2,15.8,0l5.3,5.3
			c4.2,4.2,4.2,11.6,0,16L723.1,420.8L839.2,537z"/>
	</g>
</g>
</svg>
