<?xml version="1.0" encoding="utf-8"?>
<!-- Generator: Adobe Illustrator 18.1.1, SVG Export Plug-In . SVG Version: 6.00 Build 0)  -->
<svg version="1.1" id="BTX" xmlns="http://www.w3.org/2000/svg" xmlns:xlink="http://www.w3.org/1999/xlink" x="0px" y="0px"
	 viewBox="288.1 18.7 800.1 800.1" enable-background="new 288.1 18.7 800.1 800.1" xml:space="preserve">
<g>
	<g>
		<path fill="#B3B4A1" d="M964.6,18.7H411.8c-68.3,0-123.7,55.3-123.7,123.7v552.7c0,68.3,55.3,123.7,123.7,123.7h552.7
			c68.3,0,123.7-55.3,123.7-123.7V142.4C1088,74.3,1032.8,18.7,964.6,18.7z M822.1,521c4.1,4.1,4.1,11.2,0,15.5l-5.1,5.1
			c-4.1,4.1-11.2,4.1-15.5,0L688.8,428.9L576.1,541.7c-4.1,4.1-11.2,4.1-15.5,0l-5.1-5.1c-4.1-4.1-4.1-11.2,0-15.5l112.6-112.6
			L555.9,295.9c-4.1-4.1-4.1-11.2,0-15.5l5.1-5.1c4.1-4.3,11.1-4.3,15.5-0.1L689.3,388l112.6-113c4.1-4.1,11.1-4.1,15.3,0l5.1,5.1
			c4.1,4.1,4.1,11.2,0,15.5L709.7,408.4L822.1,521z"/>
	</g>
</g>
</svg>
