<?xml version="1.0" encoding="utf-8"?>
<!-- Generator: Adobe Illustrator 18.1.1, SVG Export Plug-In . SVG Version: 6.00 Build 0)  -->
<svg version="1.1" id="BTX" xmlns="http://www.w3.org/2000/svg" xmlns:xlink="http://www.w3.org/1999/xlink" x="0px" y="0px"
	 viewBox="316.4 47 774.6 774.6" enable-background="new 316.4 47 774.6 774.6" xml:space="preserve">
<path fill="#B3B4A1" d="M971.4,47H436.1c-66.1,0-119.7,53.6-119.7,119.7v535.2c0,66.1,53.6,119.7,119.7,119.7h535.2
	c66.1,0,119.7-53.6,119.7-119.7V166.6C1091,100.8,1037.5,47,971.4,47z M837.9,547.7c4.1,4.1,4.1,11.3,0,15.6l-5.2,5.2
	c-4.1,4.1-11.3,4.1-15.6,0L703.6,454.9L590.1,568.6c-4.1,4.1-11.3,4.1-15.6,0l-5.2-5.2c-4.1-4.1-4.1-11.3,0-15.6l113.5-113.5
	L569.7,321c-4.1-4.1-4.1-11.3,0-15.6l5.2-5.2c4.1-4.3,11.2-4.3,15.6-0.1l113.6,113.7l113.5-113.9c4.1-4.1,11.2-4.1,15.4,0l5.2,5.2
	c4.1,4.1,4.1,11.3,0,15.6L724.7,434.3L837.9,547.7z"/>
</svg>
