<?xml version="1.0" encoding="utf-8"?>
<!-- Generator: Adobe Illustrator 18.1.1, SVG Export Plug-In . SVG Version: 6.00 Build 0)  -->
<svg version="1.1" id="Layer_1" xmlns="http://www.w3.org/2000/svg" xmlns:xlink="http://www.w3.org/1999/xlink" x="0px" y="0px"
	 viewBox="156 20.5 784.5 784.5" enable-background="new 156 20.5 784.5 784.5" xml:space="preserve">
<g>
	<g>
		<g>
			<path fill="#B3B4A1" d="M280.7,802.5c-67.4,0-122.2-54.8-122.2-122.2V145.1C158.5,77.8,213.3,23,280.7,23H816
				c67.3,0,122,54.8,122,122.2v535.2c0,67.4-54.8,122.2-122.2,122.2H280.7z M280.7,53.3c-24.6,0-47.7,9.5-65,26.8
				c-17.3,17.3-26.9,40.4-26.9,65v535.2c0,24.6,9.5,47.7,26.8,65c17.3,17.3,40.4,26.9,65,26.9H816c24.6,0,47.7-9.5,65-26.8
				c16.8-16.7,26.2-38.9,26.9-62.5h-0.1V145.1c0-24.6-9.5-47.7-26.8-65c-17.3-17.3-40.4-26.9-65-26.9H280.7z M514.5,712.8v-53.8
				c-1.5,0.4-2.8,0.9-4.1,1.4v34.8h-68.6v-53.9l1.5-0.6c5-2.2,11.4-4,19.6-5.8c-7.9-1.5-14.4-3.1-19.7-5.7l-1.4-0.7v-53.9h68.6v34.9
				c1.2,0.5,2.6,0.8,4.1,1.2v-53.4h67.6v53.6c1.3-0.3,2.5-0.8,3.4-1.2l0-35.1h69.3V628l-1.4,0.7c-5.2,2.5-11.6,4.3-18.9,5.8
				c8.1,1.6,14,3.4,18.9,5.8l1.4,0.7v53.9H586v-34.3c-1-0.5-2.2-0.9-3.4-1.2v53.6H514.5z M801.7,535.4c-32.1-0.3-62.7-5.9-84.1-15.3
				l-1.5-0.7v-52h81.2V483c1.6,0.2,3,0.2,4.7,0.2c1.6,0,3-0.1,4.7-0.3v-16.6h-90.7V360.4l1.5-0.7c21-9.7,51.8-15.3,84.5-15.3
				c32.1,0,62.7,5.6,83.9,15.3l1.5,0.7v51.9h-80.8v-15.4c-1.6-0.2-2.9-0.2-4.7-0.2c-1.7,0-3,0-4.7,0.2v16.7h90.3v105.8l-1.5,0.7
				C864.3,529.7,832.9,535.4,801.7,535.4L801.7,535.4z M628.9,531.8v-46.3h-9.8v46.3h-80.8V360.4l1.4-0.7
				c20.6-9.6,52.1-15.3,84.3-15.3c32,0,62.7,5.6,84.2,15.3l1.5,0.7v171.3H628.9z M629.3,433.2V397c-1.6-0.2-3.3-0.2-5.1-0.2
				c-1.7,0-3.1,0-4.7,0.2v36.3H629.3z M450.8,531.6v-58.1c-1.6-0.6-2.8-0.8-4.7-0.9h-2.8v58.9h-82.2V347.9h85.3
				c32,0,62.7,5.8,84.2,16l1.4,0.7v74.6l-1.4,0.7c-5,2.3-11.2,4-18.9,5.6c7.8,1.6,14.2,3.4,19.3,5.9l1.4,0.7v79.6H450.8z
				 M446.7,425.6c1.7,0,3.3-0.2,4.7-0.7v-30.6c-1.4-0.4-2.7-0.5-4.7-0.5H442v31.9H446.7z M241.4,531.3V411.1h-33.6v-63.2h148.5v63.2
				h-33.1v120.3H241.4z M444.4,324.4c-36.3,0-73.4-5.7-99-15.2l-1.6-0.6V149.1l1.6-0.6c24.6-9.5,61.6-15.2,99.1-15.2
				c37.6,0,73.5,5.5,98.5,15.2l1.6,0.6v52h-94.5v-15.4c-1.9-0.2-3.6-0.2-5.9-0.2c-2.3,0-3.9,0-5.9,0.2v16.7h99.2V255h-99.2v16.7
				c1.9,0.2,3.6,0.2,5.9,0.2c2.2,0,3.9-0.1,5.9-0.3v-15.3h94.5v52l-1.6,0.6c-25,9.9-60.5,15.5-97.2,15.5
				C445.8,324.4,444.4,324.4,444.4,324.4z M552.2,320.8v-87.3l1.5-0.6c5.8-2.5,13.3-4.3,21.9-5.8c-9.1-1.6-15.9-3.4-21.6-5.7
				l-1.6-0.6V137h94.7v62c1.8,0.2,3.5,0.2,5.1,0.2c1.5,0,3.3-0.1,5.1-0.3V137h95v83.8l-1.6,0.6c-5.7,2.2-12.9,4.1-21.6,5.6
				c8.8,1.5,16,3.3,21.7,5.8l1.5,0.6v87h-94.7v-64.9c-1.6-0.2-3.3-0.2-5.1-0.2c-1.8,0-3.4,0-5.1,0.2v65.2H552.2z"/>
			<path fill="#FFFFE5" d="M816,25.5c66.1,0,119.5,53.9,119.5,119.7v535.2c0,66.1-53.6,119.7-119.7,119.7H280.7
				C214.6,800,161,746.4,161,680.3V145.1C161,79,214.6,25.5,280.7,25.5H816 M280.7,774.7H816c52.2,0,94.4-42.1,94.4-94.4h-0.1V145.1
				c0-52.2-42.1-94.4-94.4-94.4H280.7c-52.2,0-94.4,42.1-94.4,94.4v535.2C186.3,732.5,228.4,774.7,280.7,774.7 M444.4,135.7
				c35,0,71.4,4.9,97.6,15v47.8h-89.5v-15c-3.1-0.6-5.3-0.6-8.4-0.6c-3.1,0-4.9,0-8.4,0.6v21.4h99.2v47.5h-99.2v21.4
				c3.1,0.6,5.3,0.6,8.4,0.6c3.1,0,5.3-0.3,8.4-0.6v-15H542v47.8c-25.4,10-61.4,15.3-96.2,15.3c-0.5,0-0.9,0-1.4,0
				c-34.9,0-72-5.3-98.2-15V150.8C372,140.8,409.1,135.7,444.4,135.7 M749.9,139.5v79.6c-9.1,3.5-21.8,6-38.1,7.9
				c16,2.1,29.3,4.4,38.1,8.2V318h-89.7v-64.6c-2.5-0.6-5.1-0.6-7.6-0.6s-4.8,0-7.6,0.6h0v64.8h-90.3v-83.1
				c8.9-3.8,22.1-5.9,38.4-8.2c-16-1.8-28.7-4.1-38.1-7.9v-79.6h89.7v61.6c2.8,0.6,5.3,0.6,7.6,0.6c2.3,0,5.1-0.3,7.6-0.6v-61.6
				H749.9 M801.8,347c29.7,0,60.8,4.9,82.8,15v47.8h-75.8v-15c-2.8-0.6-4.6-0.6-7.2-0.6c-2.4,0-4.1,0-7.2,0.6v21.4h90.3v101.7
				c-21.8,9.7-53.6,15-83.1,15c-30.2-0.3-61-5.3-83.1-15V470h76.2v15c2.8,0.6,4.8,0.6,7.2,0.6c2.4,0,4.4-0.3,7.2-0.6v-21.4h-90.7
				V362C740.4,351.9,771.9,347,801.8,347 M624,347c29.5,0,60.8,4.9,83.1,15v167.2h-75.8V483h-14.8v46.3h-75.8V362
				C562.6,351.9,594.4,347,624,347 M617,435.7h14.8v-40.9h-0.4c-2.4-0.6-4.8-0.6-7.2-0.6c-2.4,0-4.6,0-7.2,0.6V435.7 M446.4,350.4
				c31.2,0,61.7,5.6,83.1,15.8v71.4c-7.6,3.5-18.3,5.6-32.5,7.9c13.9,2.1,25.2,4.4,32.8,8.2v75.5h-76.5v-57.2
				c-2.8-1.3-4.4-1.5-7.2-1.7h-5.3v58.9h-77.2V350.4H446.4 M439.5,428.1h7.2c2.8,0,5.3-0.6,7.2-1.5v-34c-2.4-1-4.4-1.3-7.2-1.3h-7.2
				V428.1 M353.7,350.4v58.2h-33.1v120.3h-76.8V408.6h-33.6v-58.2H353.7 M579.6,559.8v54.1c3.4-0.6,6.6-1.5,8.4-2.8v-34h64.3v49.4
				c-7.9,3.8-19,5.9-32.8,8.2c13.9,1.8,24.9,4.1,32.8,7.9v49.8h-63.9v-33.3c-2.1-1.3-4.9-2.3-8.4-2.8v54.1h-63v-54.4
				c-3.5,0.6-6.6,1.8-9.1,2.8v34h-63.6v-49.8c7.9-3.4,18.8-5.9,33.1-8.2c-13.8-2.3-25.2-4.1-33.1-7.9v-49.8h63.6v34
				c2.5,1.3,5.3,1.8,9.1,2.8v-54.1H579.6 M816,20.5H280.7c-33.3,0-64.6,13-88.2,36.5C169,80.5,156,111.8,156,145.1v535.2
				c0,33.3,13,64.6,36.5,88.2c23.6,23.6,54.9,36.5,88.2,36.5h535.2c33.3,0,64.6-13,88.2-36.5c23.6-23.6,36.5-54.9,36.5-88.2V145.1
				C940.6,76.4,884.7,20.5,816,20.5L816,20.5z M280.7,769.7c-24,0-46.4-9.3-63.3-26.2c-16.8-16.9-26.1-39.3-26.1-63.2V145.1
				c0-24,9.3-46.4,26.2-63.3c16.9-16.8,39.3-26.1,63.2-26.1h535.2c24,0,46.4,9.3,63.3,26.2c16.8,16.9,26.1,39.3,26.1,63.2v535.2v5h0
				c-1.2,22.1-10.3,42.6-26,58.3c-16.9,16.8-39.3,26.1-63.2,26.1H280.7L280.7,769.7z M444.4,130.7c-37.8,0-75.1,5.8-100,15.4
				l-3.2,1.2v3.4v156.1v3.5l3.3,1.2c25.9,9.6,63.3,15.4,99.9,15.4c0.4,0,0.9,0,1.4,0c37,0,72.8-5.7,98.1-15.7l3.2-1.2v-3.4v-47.8v-5
				h-5h-2.2v-1.3v-47.5v-1.3h2.2h5v-5v-47.8v-3.4l-3.2-1.2C518.6,136.3,482.4,130.7,444.4,130.7L444.4,130.7z M440.7,188
				c1,0,2.1,0,3.4,0c1.3,0,2.4,0,3.4,0v10.6v1.3h-6.9V188L440.7,188z M440.7,257.5h6.9v1.3v10.5c-1.1,0.1-2.2,0.1-3.4,0.1
				c-1.3,0-2.4,0-3.4,0V257.5L440.7,257.5z M754.9,134.5h-5h-90h-5v5v57.1c-0.9,0.1-1.8,0.1-2.6,0.1c-0.9,0-1.7,0-2.6,0v-57.1v-5h-5
				H555h-5v5v79.6v3.4l3.1,1.3c3.1,1.2,6.4,2.3,10.3,3.3c-4,1-7.6,2.1-10.7,3.5l-3,1.3v3.3v83.1v5h5H645h5v-5v-60.4
				c0.8,0,1.7,0,2.6,0c0.9,0,1.8,0,2.6,0V318v5h5h89.7h5v-5v-82.8v-3.3l-3-1.3c-3.1-1.3-6.7-2.5-10.6-3.5c3.9-1,7.4-2.1,10.5-3.3
				l3.2-1.2v-3.4v-79.6V134.5L754.9,134.5z M801.8,342c-33,0-64.1,5.7-85.5,15.5l-2.9,1.3v3.2v101.7v5h0.1v1.3v47.8v3.3l3,1.3
				c21.7,9.5,52.7,15.2,85.1,15.5c31.6,0,63.4-5.8,85.2-15.5l3-1.3v-3.2V416.2v-5h-0.1v-1.3V362v-3.2l-2.9-1.3
				C865.3,347.6,834.3,342,801.8,342L801.8,342z M799.5,399.3c0.7,0,1.4,0,2.2,0c0.8,0,1.5,0,2.2,0v10.6v1.3h-4.3V399.3L799.5,399.3
				z M799.8,468.7h4.3v11.9c-0.7,0.1-1.4,0.1-2.2,0.1c-0.8,0-1.5,0-2.2,0V470V468.7L799.8,468.7z M624,342
				c-32.5,0-64.5,5.8-85.4,15.5l-2.9,1.3v3.2v167.2v5h5h75.8h5v-5V488h4.8v41.3v5h5h75.8h5v-5V362v-3.2l-2.9-1.3
				C687.5,347.6,656.4,342,624,342L624,342z M622,399.3c0.7,0,1.4,0,2.2,0c0.9,0,1.8,0,2.6,0v31.5H622V399.3L622,399.3z
				 M446.4,345.4h-82.8h-4.8h-5H210.3h-5v5v58.2v5h5h28.6v115.3v5h5h76.8h5v-5V413.6h28.1h4.8v115.5v5h5h77.2h5v-5v-53.9h0.2
				c0.9,0,1.6,0.1,2.3,0.2v53.7v5h5h76.5h5v-5v-75.5v-3.1l-2.8-1.4c-2.8-1.4-6.1-2.6-9.7-3.7c3.5-1,6.5-2.1,9.3-3.3l2.9-1.3v-3.2
				v-71.4v-3.2l-2.9-1.4C509.9,351.3,478.8,345.4,446.4,345.4L446.4,345.4z M444.5,396.3h2.2c0.8,0,1.5,0,2.2,0.1V423
				c-0.7,0.1-1.4,0.2-2.2,0.2h-2.2V396.3L444.5,396.3z M584.6,554.8h-5H517h-5v5v12.3h-4.1h-63.6h-5v5v49.8v3.1l2.8,1.4
				c2.9,1.4,6.2,2.6,9.9,3.6c-3.7,1.1-6.9,2.2-9.7,3.4l-3,1.3v3.3v49.8v5h5h63.6h4.1v12.6v5h5h63h5v-5v-13h3.4h63.9h5v-5v-49.8v-3.1
				l-2.8-1.4c-2.7-1.3-5.8-2.5-9.3-3.5c3.4-1,6.5-2.1,9.3-3.5l2.8-1.4v-3.1v-49.4v-5h-5H588h-3.4v-12.3V554.8L584.6,554.8z"/>
		</g>
	</g>
</g>
</svg>
