<?xml version="1.0" encoding="utf-8"?>
<!-- Generator: Adobe Illustrator 18.1.1, SVG Export Plug-In . SVG Version: 6.00 Build 0)  -->
<svg version="1.1" id="BTX" xmlns="http://www.w3.org/2000/svg" xmlns:xlink="http://www.w3.org/1999/xlink" x="0px" y="0px"
	 viewBox="288.2 18.7 781.3 781.3" enable-background="new 288.2 18.7 781.3 781.3" xml:space="preserve">
<g>
	<g>
		<path fill="#B3B4A1" d="M948.8,18.7H408.9c-66.7,0-120.8,54-120.8,120.8v539.8c0,66.7,54,120.8,120.8,120.8h539.8
			c66.7,0,120.8-54,120.8-120.8V139.5C1069.3,73,1015.4,18.7,948.8,18.7z M809.6,509.3c4,4,4,10.9,0,15.1l-5,5c-4,4-10.9,4-15.1,0
			L679.4,419.3l-110,110.2c-4,4-10.9,4-15.1,0l-5-5c-4-4-4-10.9,0-15.1l110-110l-109.7-110c-4-4-4-10.9,0-15.1l5-5
			c4-4.2,10.8-4.2,15.1-0.1l110.2,110.2L789.9,269c4-4,10.8-4,14.9,0l5,5c4,4,4,10.9,0,15.1l-110,110.2L809.6,509.3z"/>
	</g>
</g>
</svg>
