<?xml version="1.0" encoding="utf-8"?>
<!-- Generator: Adobe Illustrator 18.1.1, SVG Export Plug-In . SVG Version: 6.00 Build 0)  -->
<svg version="1.1" id="Layer_1" xmlns="http://www.w3.org/2000/svg" xmlns:xlink="http://www.w3.org/1999/xlink" x="0px" y="0px"
	 viewBox="148.3 0 550.7 568.8" enable-background="new 148.3 0 550.7 568.8" xml:space="preserve">
<g>
	<g>
		<path fill="#B3B4A1" d="M419.2,218v-34h-63.6v10.7c-2.2,0.2-3.8,0.4-6,0.4s-3.8,0-6-0.4v-15.2h70.5v-33.8h-70.5v-15.2
			c2.5-0.4,3.8-0.4,6-0.4s3.8,0,6,0.4v10.7h63.6v-34c-18.6-7.2-44.5-10.7-69.4-10.7c-25.1,0-51.5,3.6-69.8,10.7v111
			c18.6,6.9,45,10.7,69.8,10.7C374.9,229,400.9,225.2,419.2,218z M492.4,180.2c2-0.4,3.6-0.4,5.4-0.4s3.6,0,5.4,0.4v45.9H567v-58.9
			c-6.3-2.7-15.7-4.3-27.1-5.8c11.6-1.3,20.6-3.1,27.1-5.6V99.2h-64V143c-1.8,0.2-3.8,0.4-5.4,0.4s-3.4,0-5.4-0.4V99.2h-63.8v56.6
			c6.7,2.7,15.7,4.3,27.1,5.6c-11.6,1.6-21,3.1-27.3,5.8v59.1h64.2V180.2z M183.3,290.5h23.9V376h54.6v-85.5h23.5v-41.4h-102V290.5z
			 M356.1,335.5v40.7h54.4v-53.7c-5.4-2.7-13.4-4.3-23.3-5.8c10.1-1.6,17.7-3.1,23.1-5.6v-50.8c-15.2-7.2-36.9-11.2-59.1-11.2h-58.9
			v127.1h54.9v-41.9h3.8C353,334.4,354.1,334.6,356.1,335.5z M346.3,304.4v-26.2h5.1c2,0,3.4,0.2,5.1,0.9v24.2
			c-1.3,0.7-3.1,1.1-5.1,1.1H346.3z M418.3,257.4v118.9h53.9v-32.9h10.5v32.9h53.9V257.4c-15.9-7.2-38.1-10.7-59.1-10.7
			C456.4,246.7,433.8,250.2,418.3,257.4z M483,280.7v29.1h-10.5v-29.1c1.8-0.4,3.4-0.4,5.1-0.4s3.4,0,5.1,0.4H483z M544.6,257.4
			v72.3h64.5v15.2c-2,0.2-3.4,0.4-5.1,0.4s-3.1,0-5.1-0.4v-10.7h-54.2v34c15.7,6.9,37.6,10.5,59.1,10.7c21,0,43.6-3.8,59.1-10.7
			v-72.3h-64.2v-15.2c2.2-0.4,3.4-0.4,5.1-0.4c1.8,0,3.1,0,5.1,0.4v10.7h53.9v-34c-15.7-7.2-37.8-10.7-58.9-10.7
			C582.6,246.7,560.2,250.2,544.6,257.4z M451.9,434.5c-1.3,0.9-3.6,1.6-6,2V398h-44.5v38.5c-2.7-0.7-4.7-1.1-6.5-2v-24.2h-45.2
			v35.4c5.6,2.7,13.7,4,23.5,5.6c-10.1,1.6-17.9,3.4-23.5,5.8v35.4h45.2v-24.2c1.8-0.7,4-1.6,6.5-2V505h44.8v-38.5
			c2.5,0.4,4.5,1.1,6,2v23.7h45.4v-35.4c-5.6-2.7-13.4-4.3-23.3-5.6c9.8-1.6,17.7-3.1,23.3-5.8v-35.1h-45.7L451.9,434.5L451.9,434.5
			z M614,18.1H233.4c-47,0-85.1,38.1-85.1,85.1v380.5c0,47,38.1,85.1,85.1,85.1h380.5c47,0,85.1-38.1,85.1-85.1V103.2
			C699,56.4,661,18.1,614,18.1z M681.1,483.7c0,37.2-30,67.1-67.1,67.1H233.4c-37.2,0-67.1-30-67.1-67.1V103.2
			c0-37.2,30-67.1,67.1-67.1h380.5c37.2,0,67.1,30,67.1,67.1v380.5H681.1z"/>
	</g>
</g>
</svg>
