<?xml version="1.0" encoding="utf-8"?>
<!-- Generator: Adobe Illustrator 18.1.1, SVG Export Plug-In . SVG Version: 6.00 Build 0)  -->
<svg version="1.1" id="Layer_1" xmlns="http://www.w3.org/2000/svg" xmlns:xlink="http://www.w3.org/1999/xlink" x="0px" y="0px"
	 viewBox="148.3 0 550.7 568.8" enable-background="new 148.3 0 550.7 568.8" xml:space="preserve">
<g>
	<g>
		<path fill="#B3B4A1" d="M205.5,84.8v111c18.6,6.9,45,10.7,69.8,10.7c25.3-0.2,51-3.8,69.4-11v-48.1h-63.6v22.2
			c-2.2,0.2-4,0.4-6,0.4c-2.2,0-3.8,0-6-0.4v-58.9c2.5-0.4,4-0.4,6-0.4c2.2,0,3.8,0,6,0.4V133h63.6V84.8
			c-18.6-7.2-44.5-10.7-69.4-10.7C250.2,74.1,223.8,77.7,205.5,84.8z M492.9,195.6V84.8c-18.6-7.2-44.5-10.7-69.4-10.7
			c-25.1,0-51.5,3.6-69.8,10.7v111c18.6,6.9,45,10.7,69.8,10.7C448.8,206.4,474.7,202.8,492.9,195.6z M417.2,169.7v-58.9
			c2.2-0.4,4-0.4,6-0.4c2.2,0,3.8,0,6,0.4v58.9c-2.2,0.2-4,0.4-6,0.4C421,170.1,419.4,170.1,417.2,169.7z M502.7,84.8v118.9h64.2
			v-92.9c2-0.4,3.6-0.4,5.4-0.4s3.4,0,5.4,0.4v92.9h64.2V84.8c-18.8-7.2-44.8-10.7-69.6-10.7C547.3,74.1,520.8,77.7,502.7,84.8z
			 M205.5,235v110.8c18.6,6.9,45,10.7,69.8,10.7c25.3-0.2,51.3-3.8,69.4-10.7v-48.1h-63.6v22.2c-2.2,0.2-3.8,0.4-6,0.4
			c-2.2,0-3.8,0-6-0.4V261c2.5-0.4,3.8-0.4,6-0.4c2.2,0,3.8,0,6,0.4v22.2h63.6V235c-18.6-7.2-44.5-10.7-69.4-10.7
			C250.2,224.3,223.8,227.9,205.5,235z M429.1,320.1c-1.8,0.2-3.4,0.4-5.4,0.4s-3.4,0-5.4-0.4V227h-64.2v118.9
			c18.1,6.9,44.5,10.7,69.6,10.7s50.8-3.6,69.6-10.7V227h-64.2L429.1,320.1L429.1,320.1z M641.7,288.7v-50.8
			c-17.9-7.2-43.6-11.2-69.6-11.2h-69.4v127.1h64.2V312h4.5c2.5,0,3.8,0.2,6.3,1.1v40.7h64.2v-53.7c-6.3-2.7-15.9-4.3-27.3-5.8
			C626.3,292.8,635.4,291.2,641.7,288.7z M578.4,280.9c-1.8,0.7-3.8,1.1-6.3,1.1h-6.3v-26.2h6.3c2.5,0,4.3,0.2,6.3,0.9V280.9z
			 M205.5,385v72.3h75.9v15.2c-2.2,0.2-3.8,0.4-6,0.4c-2.2,0-3.8,0-6-0.4v-10.7h-63.8v34c18.4,6.9,44.3,10.5,69.6,10.7
			c24.8,0,51.3-3.8,69.6-10.7v-72.3h-75.4v-15.2c2.5-0.4,3.8-0.4,6-0.4c2.2,0,3.8,0,6,0.4V419h63.3v-34
			c-18.6-7.2-44.5-10.7-69.4-10.7C250.2,374.2,223.8,377.8,205.5,385z M353.9,385v110.8c18.6,6.9,45,10.7,69.8,10.7
			c25.3-0.2,51.3-3.8,69.4-10.7V385c-18.6-7.2-44.5-10.7-69.4-10.7C398.6,374.2,372.2,377.8,353.9,385z M429.5,469.6
			c-2.2,0.2-3.8,0.4-6,0.4s-3.8,0-6-0.4v-58.9c2.2-0.4,3.8-0.4,6-0.4s3.8,0,6,0.4V469.6z M502.5,385v72.3h75.7v15.2
			c-2.2,0.2-3.8,0.4-6,0.4s-3.8,0-6-0.4v-10.7h-63.8v34c18.4,6.9,44.3,10.5,69.6,10.7c24.8,0,51.5-3.8,69.6-10.7v-72.3h-75.4v-15.2
			c2.5-0.4,3.8-0.4,6-0.4s3.8,0,6,0.4V419h63.6v-34c-18.6-7.2-44.5-10.7-69.4-10.7C547.3,374.2,520.8,377.8,502.5,385z M614,18.1
			H233.4c-47,0-85.1,38.1-85.1,85.1v380.5c0,47,38.1,85.1,85.1,85.1h380.5c47,0,85.1-38.1,85.1-85.1V103.2
			C699,56.4,661,18.1,614,18.1z M681.1,483.7c0,37.2-30,67.1-67.1,67.1H233.4c-37.2,0-67.1-30-67.1-67.1V103.2
			c0-37.2,30-67.1,67.1-67.1h380.5c37.2,0,67.1,30,67.1,67.1v380.5H681.1z"/>
	</g>
</g>
</svg>
