<?xml version="1.0" encoding="utf-8"?>
<!-- Generator: Adobe Illustrator 18.1.1, SVG Export Plug-In . SVG Version: 6.00 Build 0)  -->
<svg version="1.1" xmlns="http://www.w3.org/2000/svg" xmlns:xlink="http://www.w3.org/1999/xlink" x="0px" y="0px"
	 viewBox="0 0 250 256" enable-background="new 0 0 250 256" xml:space="preserve">
<g id="Layer_1">
</g>
<g id="CATAS">
	<g>
		<path fill="#B3B4A1" d="M58.7,92.3c-11.1,0-22.9-1.7-31.2-4.8V37.9c8.2-3.2,20-4.8,31.2-4.8c11.1,0,22.7,1.6,31,4.8v21.5H61.3
			v-9.9c-1-0.2-1.7-0.2-2.7-0.2c-0.9,0-1.6,0-2.7,0.2v26.3c1,0.2,1.7,0.2,2.7,0.2c0.9,0,1.7-0.1,2.7-0.2v-9.9h28.4v21.5
			C81.5,90.6,70,92.2,58.7,92.3z"/>
		<path fill="#B3B4A1" d="M124.9,92.3c-11.1,0-22.9-1.7-31.2-4.8V37.9c8.2-3.2,20-4.8,31.2-4.8c11.1,0,22.7,1.6,31,4.8v49.5
			C147.8,90.6,136.2,92.2,124.9,92.3z M127.5,49.5c-1-0.2-1.7-0.2-2.7-0.2c-0.9,0-1.7,0-2.7,0.2v26.3c1,0.2,1.7,0.2,2.7,0.2
			c0.9,0,1.7-0.1,2.7-0.2V49.5z"/>
		<path fill="#B3B4A1" d="M193.8,91.1V49.5c-0.9-0.2-1.6-0.2-2.4-0.2s-1.5,0-2.4,0.2v41.5h-28.7V37.9c8.1-3.2,19.9-4.8,31.1-4.8
			c11.1,0,22.7,1.6,31.1,4.8v53.1H193.8z"/>
		<path fill="#B3B4A1" d="M73.5,119.8v38.2H44.8v-38.2H32.2v-18.5h53.7v18.5H73.5z"/>
		<path fill="#B3B4A1" d="M122.5,158.1v-14.7H117v14.7H88.7v-53.1c8.1-3.2,19.9-4.8,31.1-4.8c11.1,0,22.7,1.6,31.1,4.8v53.1H122.5z
			 M122.5,115.3c-0.9-0.2-1.8-0.2-2.8-0.2c-0.9,0-1.7,0-2.8,0.2v13h5.5V115.3z"/>
		<path fill="#B3B4A1" d="M186.1,159.3c-11.1,0-22.9-1.7-31.2-4.8v-49.5c8.2-3.2,20-4.8,31.2-4.8c11.1,0,22.7,1.6,31,4.8v21.5h-28.4
			v-9.9c-1-0.2-1.7-0.2-2.7-0.2c-0.9,0-1.6,0-2.7,0.2v26.3c1,0.2,1.7,0.2,2.7,0.2c0.9,0,1.7-0.1,2.7-0.2v-9.9h28.4v21.5
			C209,157.6,197.4,159.2,186.1,159.3z"/>
		<path fill="#B3B4A1" d="M106.6,186.8v38.2H77.9v-38.2H65.4v-18.5H119v18.5H106.6z"/>
		<path fill="#B3B4A1" d="M152.9,226.3c-11.1,0-22.9-1.7-31.2-4.8v-49.5c8.2-3.2,20-4.8,31.2-4.8c11.1,0,22.7,1.6,31,4.8v49.5
			C175.7,224.6,164.1,226.2,152.9,226.3z M155.5,183.5c-1-0.2-1.7-0.2-2.7-0.2s-1.7,0-2.7,0.2v26.3c1,0.2,1.7,0.2,2.7,0.2
			s1.7-0.1,2.7-0.2V183.5z"/>
	</g>
	<g>
		<path fill="#B3B4A1" d="M210,16.1c16.6,0,30,13.4,30,30v170c0,16.6-13.4,30-30,30H40c-16.6,0-30-13.4-30-30v-170
			c0-16.6,13.4-30,30-30H210 M210,8.1H40c-21,0-38,17-38,38v170c0,21,17,38,38,38h170c21,0,38-17,38-38v-170
			C248,25.2,231,8.1,210,8.1L210,8.1z"/>
	</g>
</g>
<g id="TEXTO_BLANCO">
</g>
<g id="GUIAS">
</g>
</svg>
