<?xml version="1.0" encoding="utf-8"?>
<!-- Generator: Adobe Illustrator 18.1.1, SVG Export Plug-In . SVG Version: 6.00 Build 0)  -->
<svg version="1.1" xmlns="http://www.w3.org/2000/svg" xmlns:xlink="http://www.w3.org/1999/xlink" x="0px" y="0px"
	 viewBox="0 0 250 256" enable-background="new 0 0 250 256" xml:space="preserve">
<g id="Layer_1">
</g>
<g id="CATAS">
	<g>
		<g>
			<path fill="#B3B4A1" d="M80.1,144.4H35.7c-4.3,0-7.8-3.5-7.8-7.8V92.1c0-4.3,3.5-7.8,7.8-7.8h44.4c4.3,0,7.8,3.5,7.8,7.8v44.4
				C87.9,140.9,84.4,144.4,80.1,144.4z"/>
		</g>
		<g>
			<path fill="#B3B4A1" d="M155.5,136.5V92.1c0-4.3-3.5-7.8-7.8-7.8h-44.4c-4.3,0-7.8,3.5-7.8,7.8v44.4c0,4.3,3.5,7.8,7.8,7.8h44.4
				C152,144.4,155.5,140.9,155.5,136.5z"/>
		</g>
		<g>
			<path fill="#B3B4A1" d="M223.1,136.5V92.1c0-4.3-3.5-7.8-7.8-7.8h-44.4c-4.3,0-7.8,3.5-7.8,7.8v44.4c0,4.3,3.5,7.8,7.8,7.8h44.4
				C219.6,144.4,223.1,140.9,223.1,136.5z"/>
		</g>
		<g>
			<path fill="#B3B4A1" d="M87.9,204.4V160c0-4.3-3.5-7.8-7.8-7.8H35.7c-4.3,0-7.8,3.5-7.8,7.8v44.4c0,4.3,3.5,7.8,7.8,7.8h44.4
				C84.4,212.3,87.9,208.7,87.9,204.4z"/>
		</g>
		<g>
			<path fill="#B3B4A1" d="M155.5,204.4V160c0-4.3-3.5-7.8-7.8-7.8h-44.4c-4.3,0-7.8,3.5-7.8,7.8v44.4c0,4.3,3.5,7.8,7.8,7.8h44.4
				C152,212.3,155.5,208.7,155.5,204.4z"/>
		</g>
		<g>
			<path fill="#B3B4A1" d="M223.1,204.4V160c0-4.3-3.5-7.8-7.8-7.8h-44.4c-4.3,0-7.8,3.5-7.8,7.8v44.4c0,4.3,3.5,7.8,7.8,7.8h44.4
				C219.6,212.3,223.1,208.7,223.1,204.4z"/>
		</g>
	</g>
	<g>
		<g>
			<path fill="#B3B4A1" d="M214.5,16.1c14.3,0,25.9,11.6,25.9,25.9v178.2c0,14.3-11.6,25.9-25.9,25.9H36.4
				c-14.3,0-25.9-11.6-25.9-25.9V42.1c0-14.3,11.6-25.9,25.9-25.9H214.5 M214.5,8.1H36.4C17.7,8.1,2.5,23.4,2.5,42.1v178.2
				c0,18.7,15.2,33.9,33.9,33.9h178.2c18.7,0,33.9-15.2,33.9-33.9V42.1C248.5,23.4,233.3,8.1,214.5,8.1L214.5,8.1z"/>
		</g>
	</g>
	<g>
		<path fill="#B3B4A1" d="M10.1,53.5V38.4c0-12.5,10.2-22.7,22.7-22.7h185.4c12.5,0,22.7,10.2,22.7,22.7v15.1H10.1z"/>
		<g>
			<path fill="#B3B4A1" d="M218.2,16.1c12.3,0,22.3,10,22.3,22.3v14.7h-230V38.4c0-12.3,10-22.3,22.3-22.3H218.2 M218.2,15.4H32.8
				c-12.7,0-23,10.3-23,23v14.7v0.7h0.7h230h0.7v-0.7V38.4C241.2,25.7,230.9,15.4,218.2,15.4L218.2,15.4z"/>
		</g>
	</g>
</g>
<g id="TEXTO_BLANCO">
</g>
<g id="GUIAS">
</g>
</svg>
