<?xml version="1.0" encoding="utf-8"?>
<!-- Generator: Adobe Illustrator 18.1.1, SVG Export Plug-In . SVG Version: 6.00 Build 0)  -->
<svg version="1.1" id="Layer_1" xmlns="http://www.w3.org/2000/svg" xmlns:xlink="http://www.w3.org/1999/xlink" x="0px" y="0px"
	 viewBox="148.3 0 550.7 568.8" enable-background="new 148.3 0 550.7 568.8" xml:space="preserve">
<g>
	<g>
		<path fill="#B3B4A1" d="M271.3,170.1h5.1c26,0,52.4-4.5,69.8-12.5V88.9c-17.7-7.8-43.9-12.1-69.8-12.1H207v127.1h64.2v-33.8H271.3
			z M270.2,108.8h6.3c2.5,0,4.3,0.4,6.3,1.1v26.9c-2,0.7-3.8,0.9-6.3,0.9h-6.3V108.8z M492,195.6V84.8
			c-18.6-7.2-44.5-10.7-69.4-10.7c-25.1,0-51.5,3.6-69.8,10.7v111c18.6,6.9,45,10.7,69.8,10.7C447.9,206.4,473.8,202.8,492,195.6z
			 M416.3,169.7v-58.9c2.2-0.4,3.8-0.4,6-0.4s3.8,0,6,0.4v58.9c-2.2,0.2-3.8,0.4-6,0.4S418.6,170.1,416.3,169.7z M501.6,84.8v72.3
			h75.6v15.2c-2.2,0.2-4,0.4-6,0.4c-2.2,0-3.8,0-6-0.4v-10.7h-63.8v34.2c18.4,6.9,44.3,10.5,69.6,10.7c24.8,0,51.3-3.8,69.6-11
			v-72.3h-75.4V108c2.5-0.4,4-0.4,6-0.4c2.2,0,3.8,0,6,0.4v10.7h63.6v-34C622.2,77.5,596.3,74,571.4,74
			C546.4,74.1,519.9,77.7,501.6,84.8z M382.5,353.6v-85.5h27.8v-41.4h-120v41.4h28v85.5H382.5z M492.2,353.9h63.6V235
			c-18.8-7.2-44.8-10.7-69.6-10.7c-25.1,0-51.5,3.6-69.6,10.7v118.9h63.3V321h12.3V353.9z M492,258.1v29.1h-12.3v-29.1
			c2.5-0.4,4.3-0.4,6.3-0.4c2.2,0,4.3,0,6.3,0.4H492z M289.2,376.7H225v126.9h103.4v-41.4h-39.2V376.7z M335.3,385v110.8
			c18.6,6.9,45,10.7,69.8,10.7c25.3,0,51-3.8,69.4-10.7v-34h-63.6v10.7c-2.2,0.2-3.8,0.4-6,0.4s-3.8,0-6-0.4v-15.2h70.5v-33.8h-70.5
			v-15.2c2.5-0.4,3.8-0.4,6-0.4s3.8,0,6,0.4V419h63.6v-34c-18.6-7.2-44.5-10.7-69.4-10.7C380.1,374.2,353.6,377.8,335.3,385z
			 M483.7,385v72.3h75.7v15.2c-2.2,0.2-3.8,0.4-6,0.4s-3.8,0-6-0.4v-10.7h-63.8v34c18.4,6.9,44.3,10.5,69.6,10.7
			c24.8,0,51.3-3.8,69.6-10.7v-72.3h-75.4v-15.2c2.5-0.4,3.8-0.4,6-0.4s3.8,0,6,0.4V419H623v-34c-18.6-7.2-44.5-10.7-69.4-10.7
			C528.5,374.2,502,377.8,483.7,385z M614,18.1H233.4c-47,0-85.1,38.1-85.1,85.1v380.5c0,47,38.1,85.1,85.1,85.1h380.5
			c47,0,85.1-38.1,85.1-85.1V103.2C699,56.4,661,18.1,614,18.1z M681.1,483.7c0,37.2-30,67.1-67.1,67.1H233.4
			c-37.2,0-67.1-30-67.1-67.1V103.2c0-37.2,30-67.1,67.1-67.1h380.5c37.2,0,67.1,30,67.1,67.1v380.5H681.1z"/>
	</g>
</g>
</svg>
