<?xml version="1.0" encoding="utf-8"?>
<!-- Generator: Adobe Illustrator 18.1.1, SVG Export Plug-In . SVG Version: 6.00 Build 0)  -->
<svg version="1.1" id="BTX" xmlns="http://www.w3.org/2000/svg" xmlns:xlink="http://www.w3.org/1999/xlink" x="0px" y="0px"
	 viewBox="278.8 0 559.6 573" enable-background="new 278.8 0 559.6 573" xml:space="preserve">
<g>
	<g>
		<path fill="#B3B4A1" d="M752,13.4H365.3c-47.8,0-86.5,38.7-86.5,86.5v386.6c0,47.8,38.7,86.5,86.5,86.5h386.6
			c47.8,0,86.5-38.7,86.5-86.5V99.9C838.3,52.3,799.7,13.4,752,13.4z M652.3,364.8c2.9,2.9,2.9,7.8,0,10.8l-3.6,3.6
			c-2.9,2.9-7.8,2.9-10.8,0L559,300.3l-78.8,78.9c-2.9,2.9-7.8,2.9-10.8,0l-3.6-3.6c-2.9-2.9-2.9-7.8,0-10.8l78.8-78.8L466,207.2
			c-2.9-2.9-2.9-7.8,0-10.8l3.6-3.6c2.9-3,7.7-3,10.8-0.1l78.9,78.9l78.9-78.9c2.9-2.9,7.7-2.9,10.7,0l3.6,3.6
			c2.9,2.9,2.9,7.8,0,10.8L573.7,286L652.3,364.8z"/>
	</g>
</g>
</svg>
