<?xml version="1.0" encoding="utf-8"?>
<!-- Generator: Adobe Illustrator 18.1.1, SVG Export Plug-In . SVG Version: 6.00 Build 0)  -->
<svg version="1.1" id="Layer_1" xmlns="http://www.w3.org/2000/svg" xmlns:xlink="http://www.w3.org/1999/xlink" x="0px" y="0px"
	 viewBox="74.1 4.8 550.7 564" enable-background="new 74.1 4.8 550.7 564" xml:space="preserve">
<g id="Layer_1_1_">
</g>
<g id="FRAMES">
</g>
<g id="TEXTO_SOMBRA" opacity="0.27">
</g>
<g id="TEXTO">
</g>
<g id="FONDO_ACTIVO" display="none">
</g>
<g id="HOVER" display="none">
</g>
<g id="CATAS">
	<g>
		<path fill="#B3B4A1" d="M539.8,36c37.2,0,67.1,30,67.1,67.1v380.5c0,37.2-30,67.1-67.1,67.1H159.2c-37.2,0-67.1-30-67.1-67.1
			V103.2c0-37.2,30-67.1,67.1-67.1L539.8,36 M539.8,18.1H159.2c-47,0-85.1,38.1-85.1,85.1v380.5c0,47,38.1,85.1,85.1,85.1h380.5
			c47,0,85.1-38.1,85.1-85.1V103.2C624.8,56.4,586.8,18.1,539.8,18.1L539.8,18.1z"/>
	</g>
</g>
<g id="TEXTO_BLANCO">
</g>
<g id="CATALOGOS">
</g>
<g id="CATALOGOS_3d">
</g>
<g id="FOLLETOS">
</g>
<g id="CONCURSOS">
</g>
<g id="ILUSTRACION">
</g>
<g id="CONCURSOS_copy">
</g>
<g id="GUIAS">
</g>
<g>
	<path fill="#B3B4A1" d="M272.4,194.6L441.7,364c2.9,2.9,2.9,7.7,0,10.6l-3.5,3.5c-2.9,2.9-7.7,2.9-10.6,0L258.3,208.8
		c-2.9-2.9-2.9-7.7,0-10.6l3.5-3.5C264.7,191.7,269.4,191.7,272.4,194.6z"/>
	<path fill="#B3B4A1" d="M438.2,194.6l3.5,3.5c2.9,2.9,2.9,7.7,0,10.6L272.4,378.1c-2.9,2.9-7.7,2.9-10.6,0l-3.5-3.5
		c-2.9-2.9-2.9-7.7,0-10.6l169.4-169.4C430.6,191.7,435.3,191.7,438.2,194.6z"/>
</g>
</svg>
